CrimsonText-Regular jlb 10-Bold.ufo
<glyph name="exclam" format="1">
  <advance width="206"/>
  <unicode hex="0021"/>
  <note>
    exclam
  </note>
  <outline>
    <contour>
      <point x="102" y="190" type="curve"/>
      <point x="115" y="190"/>
      <point x="122" y="199"/>
      <point x="125" y="221" type="curve"/>
      <point x="137" y="306"/>
      <point x="167" y="528"/>
      <point x="167" y="575" type="curve"/>
      <point x="167" y="616"/>
      <point x="137" y="642"/>
      <point x="104" y="642" type="curve"/>
      <point x="67" y="642"/>
      <point x="39" y="616"/>
      <point x="39" y="575" type="curve"/>
      <point x="39" y="528"/>
      <point x="67" y="306"/>
      <point x="79" y="220" type="curve"/>
      <point x="82" y="199"/>
      <point x="89" y="190"/>
    </contour>
    <contour>
      <point x="105" y="-11" type="curve"/>
      <point x="145" y="-11"/>
      <point x="176" y="25"/>
      <point x="176" y="66" type="curve"/>
      <point x="176" y="106"/>
      <point x="143" y="139"/>
      <point x="103" y="139" type="curve"/>
      <point x="54" y="139"/>
      <point x="30" y="102"/>
      <point x="30" y="65" type="curve"/>
      <point x="30" y="27"/>
      <point x="55" y="-11"/>
    </contour>
  </outline>
</glyph>
<glyph name="numbersign" format="1">
  <advance width="472"/>
  <unicode hex="0023"/>
  <note>
    numbersign
  </note>
  <outline>
    <contour>
      <point x="233" y="533" type="line"/>
      <point x="166" y="533" type="line"/>
      <point x="86" y="0" type="line"/>
      <point x="153" y="0" type="line"/>
    </contour>
    <contour>
      <point x="384" y="533" type="line"/>
      <point x="317" y="533" type="line"/>
      <point x="237" y="0" type="line"/>
      <point x="304" y="0" type="line"/>
    </contour>
    <contour>
      <point x="444" y="378" type="line"/>
      <point x="28" y="378" type="line"/>
      <point x="28" y="314" type="line"/>
      <point x="444" y="314" type="line"/>
    </contour>
    <contour>
      <point x="444" y="234" type="line"/>
      <point x="28" y="234" type="line"/>
      <point x="28" y="170" type="line"/>
      <point x="444" y="170" type="line"/>
    </contour>
  </outline>
</glyph>
<glyph name="dollar" format="1">
  <advance width="497"/>
  <unicode hex="0024"/>
  <note>
    dollar
  </note>
  <outline>
    <contour>
      <point x="38" y="486" type="curve"/>
      <point x="38" y="405"/>
      <point x="65" y="363"/>
      <point x="189" y="286" type="curve"/>
      <point x="294" y="221"/>
      <point x="324" y="188"/>
      <point x="324" y="136" type="curve"/>
      <point x="324" y="83"/>
      <point x="291" y="46"/>
      <point x="231" y="46" type="curve"/>
      <point x="143" y="46"/>
      <point x="93" y="109"/>
      <point x="74" y="186" type="curve"/>
      <point x="73" y="190"/>
      <point x="64" y="192"/>
      <point x="48" y="192" type="curve"/>
      <point x="33" y="192"/>
      <point x="26" y="189"/>
      <point x="24" y="182" type="curve"/>
      <point x="24" y="151"/>
      <point x="36" y="59"/>
      <point x="47" y="16" type="curve"/>
      <point x="121" y="1"/>
      <point x="161" y="-10"/>
      <point x="218" y="-10" type="curve"/>
      <point x="347" y="-10"/>
      <point x="463" y="60"/>
      <point x="463" y="182" type="curve"/>
      <point x="463" y="264"/>
      <point x="431" y="305"/>
      <point x="301" y="383" type="curve"/>
      <point x="196" y="446"/>
      <point x="171" y="483"/>
      <point x="171" y="530" type="curve"/>
      <point x="171" y="584"/>
      <point x="207" y="614"/>
      <point x="255" y="614" type="curve"/>
      <point x="323" y="614"/>
      <point x="362" y="565"/>
      <point x="384" y="473" type="curve"/>
      <point x="385" y="468"/>
      <point x="393" y="466"/>
      <point x="407" y="466" type="curve"/>
      <point x="419" y="466"/>
      <point x="427" y="469"/>
      <point x="430" y="476" type="curve"/>
      <point x="430" y="522"/>
      <point x="426" y="577"/>
      <point x="419" y="642" type="curve"/>
      <point x="360" y="662"/>
      <point x="307" y="670"/>
      <point x="271" y="670" type="curve"/>
      <point x="140" y="670"/>
      <point x="38" y="584"/>
    </contour>
    <contour>
      <point x="338" y="758" type="line"/>
      <point x="278" y="758" type="line"/>
      <point x="158" y="-100" type="line"/>
      <point x="218" y="-100" type="line"/>
    </contour>
  </outline>
</glyph>
<glyph name="percent" format="1">
  <advance width="716"/>
  <unicode hex="0025"/>
  <note>
    percent
  </note>
  <outline>
    <contour>
      <point x="147" y="0" type="line"/>
      <point x="643" y="638" type="line"/>
      <point x="569" y="638" type="line"/>
      <point x="73" y="0" type="line"/>
    </contour>
    <contour>
      <point x="184" y="601" type="curve"/>
      <point x="218" y="601"/>
      <point x="249" y="540"/>
      <point x="249" y="471" type="curve"/>
      <point x="249" y="401"/>
      <point x="233" y="363"/>
      <point x="204" y="363" type="curve"/>
      <point x="168" y="363"/>
      <point x="139" y="425"/>
      <point x="139" y="496" type="curve"/>
      <point x="139" y="566"/>
      <point x="154" y="601"/>
    </contour>
    <contour>
      <point x="190" y="644" type="curve"/>
      <point x="105" y="644"/>
      <point x="40" y="574"/>
      <point x="40" y="483" type="curve"/>
      <point x="40" y="389"/>
      <point x="104" y="320"/>
      <point x="194" y="320" type="curve"/>
      <point x="281" y="320"/>
      <point x="346" y="389"/>
      <point x="346" y="483" type="curve"/>
      <point x="346" y="571"/>
      <point x="277" y="644"/>
    </contour>
    <contour>
      <point x="514" y="271" type="curve"/>
      <point x="548" y="271"/>
      <point x="579" y="210"/>
      <point x="579" y="141" type="curve"/>
      <point x="579" y="71"/>
      <point x="563" y="33"/>
      <point x="534" y="33" type="curve"/>
      <point x="498" y="33"/>
      <point x="469" y="95"/>
      <point x="469" y="166" type="curve"/>
      <point x="469" y="236"/>
      <point x="484" y="271"/>
    </contour>
    <contour>
      <point x="520" y="314" type="curve"/>
      <point x="435" y="314"/>
      <point x="370" y="244"/>
      <point x="370" y="153" type="curve"/>
      <point x="370" y="59"/>
      <point x="434" y="-10"/>
      <point x="524" y="-10" type="curve"/>
      <point x="611" y="-10"/>
      <point x="676" y="59"/>
      <point x="676" y="153" type="curve"/>
      <point x="676" y="241"/>
      <point x="607" y="314"/>
    </contour>
  </outline>
</glyph>
<glyph name="ampersand" format="1">
  <advance width="771"/>
  <unicode hex="0026"/>
  <note>
    ampersand
  </note>
  <outline>
    <contour>
      <point x="267" y="-3" type="curve"/>
      <point x="414" y="-3"/>
      <point x="520" y="75"/>
      <point x="642" y="267" type="curve"/>
      <point x="650" y="276"/>
      <point x="685" y="284"/>
      <point x="718" y="284" type="curve"/>
      <point x="722" y="284"/>
      <point x="724" y="291"/>
      <point x="724" y="303" type="curve"/>
      <point x="724" y="315"/>
      <point x="722" y="323"/>
      <point x="719" y="325" type="curve"/>
      <point x="662" y="324"/>
      <point x="620" y="323"/>
      <point x="603" y="323" type="curve"/>
      <point x="558" y="323"/>
      <point x="515" y="324"/>
      <point x="484" y="326" type="curve"/>
      <point x="482" y="319"/>
      <point x="481" y="313"/>
      <point x="481" y="305" type="curve"/>
      <point x="481" y="297"/>
      <point x="482" y="288"/>
      <point x="483" y="282" type="curve"/>
      <point x="538" y="282"/>
      <point x="551" y="279"/>
      <point x="551" y="266" type="curve"/>
      <point x="551" y="234"/>
      <point x="519" y="188"/>
      <point x="464" y="135" type="curve"/>
      <point x="412" y="85"/>
      <point x="368" y="68"/>
      <point x="301" y="68" type="curve"/>
      <point x="233" y="68"/>
      <point x="179" y="115"/>
      <point x="179" y="183" type="curve"/>
      <point x="179" y="236"/>
      <point x="210" y="279"/>
      <point x="290" y="327" type="curve"/>
      <point x="430" y="410"/>
      <point x="481" y="467"/>
      <point x="481" y="530" type="curve"/>
      <point x="481" y="618"/>
      <point x="413" y="665"/>
      <point x="319" y="665" type="curve"/>
      <point x="215" y="665"/>
      <point x="133" y="586"/>
      <point x="133" y="498" type="curve"/>
      <point x="133" y="431"/>
      <point x="158" y="388"/>
      <point x="257" y="246" type="curve"/>
      <point x="388" y="59"/>
      <point x="463" y="0"/>
      <point x="569" y="0" type="curve"/>
      <point x="642" y="0"/>
      <point x="700" y="27"/>
      <point x="739" y="106" type="curve"/>
      <point x="739" y="120"/>
      <point x="705" y="135"/>
      <point x="697" y="135" type="curve"/>
      <point x="675" y="93"/>
      <point x="645" y="76"/>
      <point x="626" y="76" type="curve"/>
      <point x="559" y="76"/>
      <point x="503" y="125"/>
      <point x="364" y="303" type="curve"/>
      <point x="288" y="402"/>
      <point x="253" y="471"/>
      <point x="253" y="527" type="curve"/>
      <point x="253" y="576"/>
      <point x="272" y="606"/>
      <point x="312" y="606" type="curve"/>
      <point x="346" y="606"/>
      <point x="376" y="573"/>
      <point x="376" y="530" type="curve"/>
      <point x="376" y="452"/>
      <point x="345" y="416"/>
      <point x="225" y="356" type="curve"/>
      <point x="95" y="291"/>
      <point x="42" y="237"/>
      <point x="42" y="158" type="curve"/>
      <point x="42" y="58"/>
      <point x="129" y="-3"/>
    </contour>
  </outline>
</glyph>
<glyph name="quotesingle" format="1">
  <advance width="221"/>
  <unicode hex="0027"/>
  <note>
    quotesingle
  </note>
  <outline>
    <contour>
      <point x="110" y="698" type="curve"/>
      <point x="66" y="698"/>
      <point x="39" y="671"/>
      <point x="39" y="629" type="curve"/>
      <point x="39" y="588"/>
      <point x="81" y="495"/>
      <point x="85" y="419" type="curve"/>
      <point x="86" y="399"/>
      <point x="93" y="391"/>
      <point x="110" y="391" type="curve"/>
      <point x="128" y="391"/>
      <point x="135" y="399"/>
      <point x="136" y="419" type="curve"/>
      <point x="140" y="495"/>
      <point x="182" y="588"/>
      <point x="182" y="629" type="curve"/>
      <point x="182" y="671"/>
      <point x="154" y="698"/>
    </contour>
  </outline>
</glyph>
<glyph name="parenleft" format="1">
  <advance width="309"/>
  <unicode hex="0028"/>
  <note>
    parenleft
  </note>
  <outline>
    <contour>
      <point x="152" y="312" type="curve"/>
      <point x="152" y="490"/>
      <point x="214" y="669"/>
      <point x="294" y="721" type="curve"/>
      <point x="275" y="749" type="line"/>
      <point x="141" y="696"/>
      <point x="26" y="494"/>
      <point x="26" y="312" type="curve"/>
      <point x="26" y="130"/>
      <point x="141" y="-72"/>
      <point x="275" y="-125" type="curve"/>
      <point x="294" y="-97" type="line"/>
      <point x="214" y="-45"/>
      <point x="152" y="134"/>
    </contour>
  </outline>
</glyph>
<glyph name="parenright" format="1">
  <advance width="309"/>
  <unicode hex="0029"/>
  <note>
    parenright
  </note>
  <outline>
    <contour>
      <point x="157" y="312" type="curve"/>
      <point x="157" y="134"/>
      <point x="95" y="-45"/>
      <point x="15" y="-97" type="curve"/>
      <point x="34" y="-125" type="line"/>
      <point x="168" y="-72"/>
      <point x="283" y="130"/>
      <point x="283" y="312" type="curve"/>
      <point x="283" y="494"/>
      <point x="168" y="696"/>
      <point x="34" y="749" type="curve"/>
      <point x="15" y="721" type="line"/>
      <point x="95" y="669"/>
      <point x="157" y="490"/>
    </contour>
  </outline>
</glyph>
<glyph name="asterisk" format="1">
  <advance width="436"/>
  <unicode hex="002A"/>
  <note>
    asterisk
  </note>
  <outline>
    <contour>
      <point x="314" y="620" type="curve"/>
      <point x="303" y="611"/>
      <point x="293" y="592"/>
      <point x="278" y="567" type="curve"/>
      <point x="261" y="540"/>
      <point x="252" y="525"/>
      <point x="246" y="517" type="curve"/>
      <point x="241" y="510"/>
      <point x="238" y="508"/>
      <point x="236" y="508" type="curve"/>
      <point x="234" y="508"/>
      <point x="231" y="511"/>
      <point x="229" y="515" type="curve"/>
      <point x="221" y="534"/>
      <point x="216" y="554"/>
      <point x="212" y="577" type="curve"/>
      <point x="208" y="600"/>
      <point x="202" y="623"/>
      <point x="194" y="638" type="curve"/>
      <point x="186" y="654"/>
      <point x="170" y="665"/>
      <point x="153" y="665" type="curve"/>
      <point x="130" y="665"/>
      <point x="112" y="645"/>
      <point x="112" y="621" type="curve"/>
      <point x="112" y="602"/>
      <point x="126" y="579"/>
      <point x="155" y="550" type="curve"/>
      <point x="180" y="525"/>
      <point x="196" y="503"/>
      <point x="196" y="493" type="curve"/>
      <point x="196" y="489"/>
      <point x="187" y="487"/>
      <point x="167" y="487" type="curve"/>
      <point x="138" y="487"/>
      <point x="104" y="495"/>
      <point x="77" y="495" type="curve"/>
      <point x="42" y="495"/>
      <point x="19" y="478"/>
      <point x="19" y="452" type="curve"/>
      <point x="19" y="428"/>
      <point x="40" y="408"/>
      <point x="65" y="408" type="curve"/>
      <point x="79" y="408"/>
      <point x="100" y="415"/>
      <point x="131" y="430" type="curve"/>
      <point x="150" y="439"/>
      <point x="176" y="452"/>
      <point x="195" y="452" type="curve"/>
      <point x="198" y="452"/>
      <point x="200" y="449"/>
      <point x="200" y="445" type="curve"/>
      <point x="200" y="437"/>
      <point x="194" y="421"/>
      <point x="177" y="382" type="curve"/>
      <point x="160" y="346"/>
      <point x="154" y="326"/>
      <point x="154" y="311" type="curve"/>
      <point x="154" y="287"/>
      <point x="171" y="270"/>
      <point x="195" y="270" type="curve"/>
      <point x="226" y="270"/>
      <point x="242" y="291"/>
      <point x="242" y="330" type="curve"/>
      <point x="242" y="349"/>
      <point x="234" y="405"/>
      <point x="234" y="430" type="curve"/>
      <point x="234" y="436"/>
      <point x="239" y="442"/>
      <point x="244" y="442" type="curve"/>
      <point x="251" y="442"/>
      <point x="275" y="424"/>
      <point x="300" y="400" type="curve"/>
      <point x="335" y="367"/>
      <point x="355" y="355"/>
      <point x="374" y="355" type="curve"/>
      <point x="398" y="355"/>
      <point x="417" y="373"/>
      <point x="417" y="395" type="curve"/>
      <point x="417" y="413"/>
      <point x="407" y="429"/>
      <point x="392" y="437" type="curve"/>
      <point x="376" y="446"/>
      <point x="354" y="452"/>
      <point x="331" y="455" type="curve"/>
      <point x="293" y="461"/>
      <point x="263" y="471"/>
      <point x="263" y="478" type="curve"/>
      <point x="263" y="486"/>
      <point x="275" y="495"/>
      <point x="320" y="520" type="curve"/>
      <point x="372" y="549"/>
      <point x="389" y="567"/>
      <point x="389" y="592" type="curve"/>
      <point x="389" y="615"/>
      <point x="371" y="633"/>
      <point x="348" y="633" type="curve"/>
      <point x="336" y="633"/>
      <point x="325" y="629"/>
    </contour>
  </outline>
</glyph>
<glyph name="plus" format="1">
  <advance width="562"/>
  <unicode hex="002B"/>
  <note>
    plus
  </note>
  <outline>
    <contour>
      <point x="512" y="283" type="line"/>
      <point x="50" y="283" type="line"/>
      <point x="50" y="209" type="line"/>
      <point x="512" y="209" type="line"/>
    </contour>
    <contour>
      <point x="319" y="11" type="line"/>
      <point x="319" y="481" type="line"/>
      <point x="243" y="481" type="line"/>
      <point x="243" y="11" type="line"/>
    </contour>
  </outline>
</glyph>
<glyph name="comma" format="1">
  <advance width="206"/>
  <unicode hex="002C"/>
  <note>
    comma
  </note>
  <outline>
    <contour>
      <point x="40" y="-167" type="curve"/>
      <point x="116" y="-119"/>
      <point x="176" y="-30"/>
      <point x="176" y="36" type="curve"/>
      <point x="176" y="113"/>
      <point x="143" y="138"/>
      <point x="103" y="138" type="curve"/>
      <point x="64" y="138"/>
      <point x="31" y="109"/>
      <point x="31" y="66" type="curve"/>
      <point x="31" y="3"/>
      <point x="69" y="2"/>
      <point x="69" y="-48" type="curve"/>
      <point x="69" y="-77"/>
      <point x="55" y="-96"/>
      <point x="11" y="-134" type="curve"/>
      <point x="11" y="-147"/>
      <point x="32" y="-167"/>
    </contour>
  </outline>
</glyph>
<glyph name="hyphen" format="1">
  <advance width="325"/>
  <unicode hex="002D"/>
  <note>
    hyphen
  </note>
  <outline>
    <contour>
      <point x="32" y="208" type="curve"/>
      <point x="32" y="199"/>
      <point x="35" y="195"/>
      <point x="39" y="193" type="curve"/>
      <point x="285" y="204" type="line"/>
      <point x="290" y="216"/>
      <point x="293" y="237"/>
      <point x="293" y="263" type="curve"/>
      <point x="293" y="271"/>
      <point x="291" y="277"/>
      <point x="287" y="279" type="curve"/>
      <point x="44" y="267" type="line"/>
      <point x="36" y="264"/>
      <point x="32" y="246"/>
    </contour>
  </outline>
</glyph>
<glyph name="period" format="1">
  <advance width="206"/>
  <unicode hex="002E"/>
  <note>
    period
  </note>
  <outline>
    <contour>
      <point x="105" y="-11" type="curve"/>
      <point x="145" y="-11"/>
      <point x="176" y="25"/>
      <point x="176" y="66" type="curve"/>
      <point x="176" y="106"/>
      <point x="143" y="139"/>
      <point x="103" y="139" type="curve"/>
      <point x="54" y="139"/>
      <point x="30" y="102"/>
      <point x="30" y="65" type="curve"/>
      <point x="30" y="27"/>
      <point x="55" y="-11"/>
    </contour>
  </outline>
</glyph>
<glyph name="slash" format="1">
  <advance width="425"/>
  <unicode hex="002F"/>
  <note>
    slash
  </note>
  <outline>
    <contour>
      <point x="103" y="-28" type="line"/>
      <point x="405" y="755" type="line"/>
      <point x="324" y="755" type="line"/>
      <point x="22" y="-28" type="line"/>
    </contour>
  </outline>
</glyph>
<glyph name="zero" format="1">
  <advance width="542"/>
  <unicode hex="0030"/>
  <note>
    zero
  </note>
  <outline>
    <contour>
      <point x="273" y="-3" type="curve"/>
      <point x="404" y="-3"/>
      <point x="497" y="131"/>
      <point x="497" y="319" type="curve"/>
      <point x="497" y="507"/>
      <point x="404" y="641"/>
      <point x="273" y="641" type="curve"/>
      <point x="140" y="641"/>
      <point x="45" y="507"/>
      <point x="45" y="319" type="curve"/>
      <point x="45" y="131"/>
      <point x="140" y="-3"/>
    </contour>
    <contour>
      <point x="274" y="49" type="curve"/>
      <point x="208" y="49"/>
      <point x="180" y="206"/>
      <point x="180" y="320" type="curve"/>
      <point x="180" y="435"/>
      <point x="200" y="591"/>
      <point x="274" y="591" type="curve"/>
      <point x="341" y="591"/>
      <point x="361" y="443"/>
      <point x="361" y="325" type="curve"/>
      <point x="361" y="207"/>
      <point x="346" y="49"/>
    </contour>
  </outline>
</glyph>
<glyph name="one" format="1">
  <advance width="353"/>
  <unicode hex="0031"/>
  <note>
    one
  </note>
  <outline>
    <contour>
      <point x="24" y="469" type="curve"/>
      <point x="61" y="491"/>
      <point x="84" y="502"/>
      <point x="94" y="502" type="curve"/>
      <point x="107" y="502"/>
      <point x="114" y="485"/>
      <point x="114" y="452" type="curve"/>
      <point x="114" y="116" type="line" smooth="yes"/>
      <point x="114" y="94"/>
      <point x="112" y="75"/>
      <point x="108" y="59" type="curve"/>
      <point x="105" y="48"/>
      <point x="62" y="33"/>
      <point x="47" y="33" type="curve"/>
      <point x="44" y="33"/>
      <point x="43" y="28"/>
      <point x="43" y="17" type="curve"/>
      <point x="43" y="6"/>
      <point x="44" y="-1"/>
      <point x="47" y="-4" type="curve"/>
      <point x="60" y="-3"/>
      <point x="148" y="4"/>
      <point x="179" y="4" type="curve"/>
      <point x="210" y="4"/>
      <point x="295" y="-3"/>
      <point x="310" y="-4" type="curve"/>
      <point x="311" y="-1"/>
      <point x="312" y="4"/>
      <point x="312" y="12" type="curve"/>
      <point x="312" y="26"/>
      <point x="311" y="33"/>
      <point x="309" y="33" type="curve"/>
      <point x="298" y="33"/>
      <point x="255" y="48"/>
      <point x="252" y="57" type="curve"/>
      <point x="247" y="78"/>
      <point x="244" y="102"/>
      <point x="244" y="129" type="curve"/>
      <point x="244" y="530" type="line" smooth="yes"/>
      <point x="244" y="573"/>
      <point x="247" y="605"/>
      <point x="253" y="624" type="curve"/>
      <point x="250" y="637"/>
      <point x="246" y="643"/>
      <point x="241" y="643" type="curve"/>
      <point x="239" y="643" type="line"/>
      <point x="145" y="592"/>
      <point x="55" y="533"/>
      <point x="11" y="505" type="curve"/>
      <point x="10" y="504"/>
      <point x="9" y="500"/>
      <point x="9" y="493" type="curve"/>
      <point x="9" y="486"/>
      <point x="16" y="473"/>
    </contour>
  </outline>
</glyph>
<glyph name="two" format="1">
  <advance width="457"/>
  <unicode hex="0032"/>
  <note>
    two
  </note>
  <outline>
    <contour>
      <point x="17" y="0" type="curve"/>
      <point x="383" y="0" type="line" smooth="yes"/>
      <point x="390" y="0"/>
      <point x="394" y="5"/>
      <point x="395" y="14" type="curve"/>
      <point x="408" y="76"/>
      <point x="421" y="135"/>
      <point x="434" y="192" type="curve"/>
      <point x="429" y="196"/>
      <point x="421" y="198"/>
      <point x="411" y="198" type="curve"/>
      <point x="401" y="198"/>
      <point x="395" y="196"/>
      <point x="394" y="191" type="curve"/>
      <point x="382" y="144"/>
      <point x="368" y="102"/>
      <point x="312" y="102" type="curve"/>
      <point x="121" y="102" type="line"/>
      <point x="115" y="91" type="line"/>
      <point x="322" y="272"/>
      <point x="387" y="366"/>
      <point x="387" y="470" type="curve"/>
      <point x="387" y="575"/>
      <point x="313" y="642"/>
      <point x="214" y="642" type="curve"/>
      <point x="109" y="642"/>
      <point x="49" y="568"/>
      <point x="25" y="513" type="curve"/>
      <point x="25" y="500"/>
      <point x="43" y="488"/>
      <point x="54" y="488" type="curve"/>
      <point x="87" y="538"/>
      <point x="114" y="559"/>
      <point x="162" y="559" type="curve"/>
      <point x="214" y="559"/>
      <point x="247" y="508"/>
      <point x="247" y="451" type="curve"/>
      <point x="247" y="354"/>
      <point x="133" y="174"/>
      <point x="5" y="33" type="curve"/>
      <point x="6" y="19"/>
      <point x="10" y="8"/>
    </contour>
  </outline>
</glyph>
<glyph name="three" format="1">
  <advance width="447"/>
  <unicode hex="0033"/>
  <note>
    three
  </note>
  <outline>
    <contour>
      <point x="226" y="642" type="curve"/>
      <point x="161" y="642"/>
      <point x="103" y="612"/>
      <point x="61" y="557" type="curve"/>
      <point x="61" y="547"/>
      <point x="75" y="530"/>
      <point x="84" y="530" type="curve"/>
      <point x="107" y="557"/>
      <point x="138" y="572"/>
      <point x="168" y="572" type="curve"/>
      <point x="214" y="572"/>
      <point x="239" y="544"/>
      <point x="239" y="493" type="curve"/>
      <point x="239" y="421"/>
      <point x="193" y="371"/>
      <point x="117" y="359" type="curve"/>
      <point x="115" y="354"/>
      <point x="114" y="349"/>
      <point x="114" y="344" type="curve"/>
      <point x="114" y="330"/>
      <point x="116" y="320"/>
      <point x="121" y="314" type="curve"/>
      <point x="142" y="317"/>
      <point x="161" y="319"/>
      <point x="176" y="319" type="curve"/>
      <point x="240" y="319"/>
      <point x="281" y="267"/>
      <point x="281" y="188" type="curve"/>
      <point x="281" y="98"/>
      <point x="246" y="48"/>
      <point x="184" y="48" type="curve"/>
      <point x="106" y="48"/>
      <point x="115" y="119"/>
      <point x="58" y="119" type="curve"/>
      <point x="32" y="119"/>
      <point x="16" y="99"/>
      <point x="16" y="71" type="curve"/>
      <point x="16" y="24"/>
      <point x="64" y="-4"/>
      <point x="139" y="-4" type="curve"/>
      <point x="293" y="-4"/>
      <point x="416" y="93"/>
      <point x="416" y="224" type="curve"/>
      <point x="416" y="302"/>
      <point x="355" y="381"/>
      <point x="234" y="381" type="curve"/>
      <point x="232" y="369" type="line"/>
      <point x="314" y="391"/>
      <point x="356" y="465"/>
      <point x="356" y="527" type="curve"/>
      <point x="356" y="594"/>
      <point x="302" y="642"/>
    </contour>
  </outline>
</glyph>
<glyph name="four" format="1">
  <advance width="492"/>
  <unicode hex="0034"/>
  <note>
    four
  </note>
  <outline>
    <contour>
      <point x="394" y="644" type="curve"/>
      <point x="384" y="644"/>
      <point x="375" y="639"/>
      <point x="367" y="630" type="curve"/>
      <point x="24" y="222" type="line"/>
      <point x="24" y="200"/>
      <point x="29" y="184"/>
      <point x="39" y="174" type="curve"/>
      <point x="288" y="174" type="line"/>
      <point x="288" y="8" type="line" smooth="yes"/>
      <point x="288" y="-1"/>
      <point x="307" y="-5"/>
      <point x="346" y="-5" type="curve"/>
      <point x="374" y="-5"/>
      <point x="396" y="-2"/>
      <point x="412" y="4" type="curve"/>
      <point x="412" y="174" type="line"/>
      <point x="462" y="174" type="line"/>
      <point x="465" y="176"/>
      <point x="468" y="188"/>
      <point x="468" y="198" type="curve"/>
      <point x="468" y="228"/>
      <point x="463" y="244"/>
      <point x="453" y="244" type="curve"/>
      <point x="412" y="244" type="line"/>
      <point x="412" y="634" type="line" smooth="yes"/>
      <point x="412" y="641"/>
      <point x="406" y="644"/>
    </contour>
    <contour>
      <point x="288" y="475" type="line"/>
      <point x="288" y="244" type="line"/>
      <point x="94" y="244" type="line"/>
      <point x="85" y="217" type="line"/>
      <point x="300" y="473" type="line"/>
    </contour>
  </outline>
</glyph>
<glyph name="five" format="1">
  <advance width="448"/>
  <unicode hex="0035"/>
  <note>
    five
  </note>
  <outline>
    <contour>
      <point x="154" y="-3" type="curve"/>
      <point x="300" y="-3"/>
      <point x="421" y="101"/>
      <point x="421" y="235" type="curve"/>
      <point x="421" y="331"/>
      <point x="317" y="422"/>
      <point x="208" y="422" type="curve"/>
      <point x="182" y="422"/>
      <point x="155" y="419"/>
      <point x="127" y="412" type="curve"/>
      <point x="149" y="540" type="line"/>
      <point x="142" y="532" type="line"/>
      <point x="236" y="532" type="line" smooth="yes"/>
      <point x="283" y="532"/>
      <point x="335" y="534"/>
      <point x="363" y="535" type="curve"/>
      <point x="370" y="548"/>
      <point x="374" y="573"/>
      <point x="374" y="609" type="curve"/>
      <point x="374" y="624"/>
      <point x="371" y="635"/>
      <point x="366" y="643" type="curve"/>
      <point x="351" y="640"/>
      <point x="267" y="638"/>
      <point x="112" y="638" type="curve"/>
      <point x="56" y="328" type="line"/>
      <point x="60" y="323"/>
      <point x="66" y="318"/>
      <point x="73" y="314" type="curve"/>
      <point x="101" y="323"/>
      <point x="127" y="328"/>
      <point x="154" y="328" type="curve"/>
      <point x="237" y="328"/>
      <point x="286" y="265"/>
      <point x="286" y="183" type="curve"/>
      <point x="286" y="101"/>
      <point x="248" y="49"/>
      <point x="189" y="49" type="curve"/>
      <point x="112" y="49"/>
      <point x="120" y="120"/>
      <point x="63" y="120" type="curve"/>
      <point x="39" y="120"/>
      <point x="21" y="99"/>
      <point x="21" y="70" type="curve"/>
      <point x="21" y="25"/>
      <point x="68" y="-3"/>
    </contour>
  </outline>
</glyph>
<glyph name="six" format="1">
  <advance width="486"/>
  <unicode hex="0036"/>
  <note>
    six
  </note>
  <outline>
    <contour>
      <point x="245" y="-6" type="curve"/>
      <point x="374" y="-6"/>
      <point x="452" y="102"/>
      <point x="452" y="206" type="curve"/>
      <point x="452" y="301"/>
      <point x="373" y="382"/>
      <point x="280" y="382" type="curve"/>
      <point x="257" y="382"/>
      <point x="211" y="369"/>
      <point x="185" y="354" type="curve"/>
      <point x="196" y="345" type="line"/>
      <point x="224" y="444"/>
      <point x="324" y="558"/>
      <point x="430" y="607" type="curve"/>
      <point x="430" y="622"/>
      <point x="420" y="640"/>
      <point x="409" y="646" type="curve"/>
      <point x="187" y="557"/>
      <point x="45" y="388"/>
      <point x="45" y="214" type="curve"/>
      <point x="45" y="90"/>
      <point x="132" y="-6"/>
    </contour>
    <contour>
      <point x="248" y="46" type="curve"/>
      <point x="218" y="46"/>
      <point x="177" y="114"/>
      <point x="177" y="208" type="curve"/>
      <point x="177" y="234"/>
      <point x="181" y="267"/>
      <point x="186" y="287" type="curve"/>
      <point x="192" y="307"/>
      <point x="205" y="319"/>
      <point x="221" y="319" type="curve"/>
      <point x="278" y="319"/>
      <point x="320" y="253"/>
      <point x="320" y="166" type="curve"/>
      <point x="320" y="100"/>
      <point x="288" y="46"/>
    </contour>
  </outline>
</glyph>
<glyph name="seven" format="1">
  <advance width="470"/>
  <unicode hex="0037"/>
  <note>
    seven
  </note>
  <outline>
    <contour>
      <point x="163" y="-11" type="curve"/>
      <point x="166" y="-11"/>
      <point x="168" y="-11"/>
      <point x="170" y="-10" type="curve"/>
      <point x="432" y="565" type="line" smooth="yes"/>
      <point x="452" y="608"/>
      <point x="459" y="623"/>
      <point x="459" y="632" type="curve"/>
      <point x="459" y="638"/>
      <point x="457" y="641"/>
      <point x="452" y="641" type="curve"/>
      <point x="426" y="641"/>
      <point x="403" y="638"/>
      <point x="385" y="638" type="curve"/>
      <point x="90" y="638" type="line" smooth="yes"/>
      <point x="79" y="638"/>
      <point x="73" y="634"/>
      <point x="71" y="626" type="curve"/>
      <point x="60" y="575"/>
      <point x="47" y="521"/>
      <point x="27" y="447" type="curve"/>
      <point x="30" y="444"/>
      <point x="38" y="442"/>
      <point x="46" y="442" type="curve"/>
      <point x="58" y="442"/>
      <point x="70" y="445"/>
      <point x="72" y="449" type="curve"/>
      <point x="88" y="498"/>
      <point x="99" y="536"/>
      <point x="145" y="536" type="curve"/>
      <point x="366" y="536" type="line"/>
      <point x="104" y="23" type="line"/>
      <point x="104" y="5"/>
      <point x="134" y="-11"/>
    </contour>
  </outline>
</glyph>
<glyph name="nine" format="1">
  <advance width="486"/>
  <unicode hex="0039"/>
  <note>
    nine
  </note>
  <outline>
    <contour>
      <point x="241" y="645" type="curve"/>
      <point x="112" y="645"/>
      <point x="34" y="537"/>
      <point x="34" y="433" type="curve"/>
      <point x="34" y="338"/>
      <point x="113" y="257"/>
      <point x="206" y="257" type="curve"/>
      <point x="229" y="257"/>
      <point x="275" y="270"/>
      <point x="301" y="285" type="curve"/>
      <point x="290" y="294" type="line"/>
      <point x="262" y="195"/>
      <point x="162" y="81"/>
      <point x="56" y="32" type="curve"/>
      <point x="56" y="17"/>
      <point x="66" y="-1"/>
      <point x="77" y="-7" type="curve"/>
      <point x="299" y="82"/>
      <point x="441" y="251"/>
      <point x="441" y="425" type="curve"/>
      <point x="441" y="549"/>
      <point x="354" y="645"/>
    </contour>
    <contour>
      <point x="238" y="593" type="curve"/>
      <point x="268" y="593"/>
      <point x="309" y="525"/>
      <point x="309" y="431" type="curve"/>
      <point x="309" y="405"/>
      <point x="305" y="372"/>
      <point x="300" y="352" type="curve"/>
      <point x="295" y="332"/>
      <point x="281" y="320"/>
      <point x="265" y="320" type="curve"/>
      <point x="208" y="320"/>
      <point x="166" y="386"/>
      <point x="166" y="473" type="curve"/>
      <point x="166" y="539"/>
      <point x="198" y="593"/>
    </contour>
  </outline>
</glyph>
<glyph name="colon" format="1">
  <advance width="206"/>
  <unicode hex="003A"/>
  <note>
    colon
  </note>
  <outline>
    <contour>
      <point x="176" y="66" type="curve"/>
      <point x="176" y="106"/>
      <point x="143" y="139"/>
      <point x="103" y="139" type="curve"/>
      <point x="54" y="139"/>
      <point x="30" y="102"/>
      <point x="30" y="65" type="curve"/>
      <point x="30" y="27"/>
      <point x="55" y="-11"/>
      <point x="105" y="-11" type="curve"/>
      <point x="145" y="-11"/>
      <point x="176" y="25"/>
    </contour>
    <contour>
      <point x="176" y="371" type="curve"/>
      <point x="176" y="411"/>
      <point x="143" y="444"/>
      <point x="103" y="444" type="curve"/>
      <point x="54" y="444"/>
      <point x="30" y="407"/>
      <point x="30" y="370" type="curve"/>
      <point x="30" y="332"/>
      <point x="55" y="294"/>
      <point x="105" y="294" type="curve"/>
      <point x="145" y="294"/>
      <point x="176" y="330"/>
    </contour>
  </outline>
</glyph>
<glyph name="semicolon" format="1">
  <advance width="206"/>
  <unicode hex="003B"/>
  <note>
    semicolon
  </note>
  <outline>
    <contour>
      <point x="176" y="371" type="curve"/>
      <point x="176" y="411"/>
      <point x="143" y="444"/>
      <point x="103" y="444" type="curve"/>
      <point x="54" y="444"/>
      <point x="30" y="407"/>
      <point x="30" y="370" type="curve"/>
      <point x="30" y="332"/>
      <point x="55" y="294"/>
      <point x="105" y="294" type="curve"/>
      <point x="145" y="294"/>
      <point x="176" y="330"/>
    </contour>
    <contour>
      <point x="31" y="66" type="curve"/>
      <point x="31" y="3"/>
      <point x="69" y="2"/>
      <point x="69" y="-48" type="curve"/>
      <point x="69" y="-77"/>
      <point x="55" y="-96"/>
      <point x="11" y="-134" type="curve"/>
      <point x="11" y="-147"/>
      <point x="32" y="-167"/>
      <point x="40" y="-167" type="curve"/>
      <point x="116" y="-119"/>
      <point x="176" y="-30"/>
      <point x="176" y="36" type="curve"/>
      <point x="176" y="113"/>
      <point x="143" y="138"/>
      <point x="103" y="138" type="curve"/>
      <point x="64" y="138"/>
      <point x="31" y="109"/>
    </contour>
  </outline>
</glyph>
<glyph name="less" format="1">
  <advance width="515"/>
  <unicode hex="003C"/>
  <note>
    less
  </note>
  <outline>
    <contour>
      <point x="465" y="402" type="line"/>
      <point x="430" y="475" type="line"/>
      <point x="50" y="282" type="line"/>
      <point x="50" y="210" type="line"/>
      <point x="430" y="17" type="line"/>
      <point x="465" y="90" type="line"/>
      <point x="116" y="266" type="line"/>
      <point x="116" y="226" type="line"/>
    </contour>
  </outline>
</glyph>
<glyph name="equal" format="1">
  <advance width="562"/>
  <unicode hex="003D"/>
  <note>
    equal
  </note>
  <outline>
    <contour>
      <point x="50" y="203" type="line"/>
      <point x="50" y="129" type="line"/>
      <point x="512" y="129" type="line"/>
      <point x="512" y="203" type="line"/>
    </contour>
    <contour>
      <point x="50" y="363" type="line"/>
      <point x="50" y="289" type="line"/>
      <point x="512" y="289" type="line"/>
      <point x="512" y="363" type="line"/>
    </contour>
  </outline>
</glyph>
<glyph name="question" format="1">
  <advance width="350"/>
  <unicode hex="003F"/>
  <note>
    question
  </note>
  <outline>
    <contour>
      <point x="98" y="190" type="curve"/>
      <point x="107" y="190"/>
      <point x="115" y="192"/>
      <point x="115" y="199" type="curve"/>
      <point x="115" y="240"/>
      <point x="117" y="256"/>
      <point x="128" y="263" type="curve"/>
      <point x="137" y="269"/>
      <point x="171" y="284"/>
      <point x="193" y="293" type="curve"/>
      <point x="282" y="329"/>
      <point x="314" y="380"/>
      <point x="314" y="469" type="curve"/>
      <point x="314" y="568"/>
      <point x="210" y="646"/>
      <point x="78" y="646" type="curve"/>
      <point x="28" y="646"/>
      <point x="10" y="631"/>
      <point x="10" y="590" type="curve"/>
      <point x="10" y="553"/>
      <point x="43" y="522"/>
      <point x="83" y="522" type="curve"/>
      <point x="118" y="522"/>
      <point x="142" y="536"/>
      <point x="171" y="536" type="curve"/>
      <point x="209" y="536"/>
      <point x="228" y="521"/>
      <point x="228" y="486" type="curve"/>
      <point x="228" y="447"/>
      <point x="204" y="429"/>
      <point x="113" y="377" type="curve"/>
      <point x="76" y="356"/>
      <point x="65" y="334"/>
      <point x="65" y="268" type="curve"/>
      <point x="65" y="239"/>
      <point x="70" y="213"/>
      <point x="73" y="201" type="curve"/>
      <point x="76" y="190"/>
      <point x="90" y="190"/>
    </contour>
    <contour>
      <point x="105" y="-11" type="curve"/>
      <point x="145" y="-11"/>
      <point x="176" y="25"/>
      <point x="176" y="66" type="curve"/>
      <point x="176" y="106"/>
      <point x="143" y="139"/>
      <point x="103" y="139" type="curve"/>
      <point x="54" y="139"/>
      <point x="30" y="102"/>
      <point x="30" y="65" type="curve"/>
      <point x="30" y="27"/>
      <point x="55" y="-11"/>
    </contour>
  </outline>
</glyph>
<glyph name="at" format="1">
  <advance width="781"/>
  <unicode hex="0040"/>
  <note>
    at
  </note>
  <outline>
    <contour>
      <point x="691" y="214" type="curve"/>
      <point x="691" y="94"/>
      <point x="655" y="34"/>
      <point x="584" y="34" type="curve"/>
      <point x="558" y="34"/>
      <point x="546" y="61"/>
      <point x="547" y="115" type="curve"/>
      <point x="547" y="120"/>
      <point x="548" y="130"/>
      <point x="549" y="143" type="curve"/>
      <point x="570" y="348" type="line" smooth="yes"/>
      <point x="571" y="361"/>
      <point x="574" y="379"/>
      <point x="577" y="401" type="curve"/>
      <point x="560" y="404" type="line"/>
      <point x="539" y="407"/>
      <point x="500" y="410"/>
      <point x="476" y="410" type="curve"/>
      <point x="307" y="410"/>
      <point x="192" y="282"/>
      <point x="192" y="141" type="curve"/>
      <point x="192" y="66"/>
      <point x="239" y="-7"/>
      <point x="310" y="-7" type="curve"/>
      <point x="373" y="-7"/>
      <point x="431" y="32"/>
      <point x="447" y="67" type="curve"/>
      <point x="448" y="68"/>
      <point x="449" y="68"/>
      <point x="450" y="69" type="curve"/>
      <point x="451" y="70"/>
      <point x="452" y="70"/>
      <point x="452" y="69" type="curve"/>
      <point x="452" y="26"/>
      <point x="504" y="-13"/>
      <point x="572" y="-13" type="curve"/>
      <point x="615" y="-13"/>
      <point x="655" y="2"/>
      <point x="692" y="37" type="curve"/>
      <point x="729" y="72"/>
      <point x="754" y="141"/>
      <point x="754" y="233" type="curve"/>
      <point x="754" y="313"/>
      <point x="723" y="397"/>
      <point x="669" y="464" type="curve"/>
      <point x="615" y="531"/>
      <point x="528" y="577"/>
      <point x="432" y="577" type="curve"/>
      <point x="201" y="577"/>
      <point x="27" y="425"/>
      <point x="27" y="185" type="curve"/>
      <point x="27" y="104"/>
      <point x="65" y="15"/>
      <point x="127" y="-54" type="curve"/>
      <point x="189" y="-122"/>
      <point x="285" y="-171"/>
      <point x="389" y="-171" type="curve"/>
      <point x="429" y="-171"/>
      <point x="460" y="-166"/>
      <point x="483" y="-156" type="curve"/>
      <point x="505" y="-146"/>
      <point x="516" y="-135"/>
      <point x="516" y="-122" type="curve"/>
      <point x="516" y="-121"/>
      <point x="515" y="-118"/>
      <point x="514" y="-113" type="curve"/>
      <point x="491" y="-122"/>
      <point x="467" y="-126"/>
      <point x="444" y="-126" type="curve"/>
      <point x="207" y="-126"/>
      <point x="102" y="11"/>
      <point x="102" y="223" type="curve"/>
      <point x="102" y="398"/>
      <point x="238" y="519"/>
      <point x="421" y="519" type="curve"/>
      <point x="586" y="519"/>
      <point x="691" y="387"/>
    </contour>
    <contour>
      <point x="462" y="334" type="curve"/>
      <point x="462" y="330"/>
      <point x="462" y="326"/>
      <point x="461" y="322" type="curve"/>
      <point x="446" y="182" type="line" smooth="yes"/>
      <point x="443" y="150"/>
      <point x="382" y="53"/>
      <point x="338" y="53" type="curve"/>
      <point x="325" y="53"/>
      <point x="316" y="60"/>
      <point x="311" y="73" type="curve"/>
      <point x="305" y="86"/>
      <point x="302" y="109"/>
      <point x="302" y="143" type="curve"/>
      <point x="302" y="272"/>
      <point x="371" y="359"/>
      <point x="430" y="359" type="curve"/>
      <point x="457" y="359"/>
      <point x="462" y="350"/>
    </contour>
  </outline>
</glyph>
<glyph name="B" format="1">
  <advance width="639"/>
  <unicode hex="0042"/>
  <note>
    B
  </note>
  <outline>
    <contour>
      <point x="36" y="-4" type="curve"/>
      <point x="110" y="1"/>
      <point x="145" y="2"/>
      <point x="182" y="2" type="curve"/>
      <point x="228" y="2"/>
      <point x="273" y="0"/>
      <point x="319" y="0" type="curve"/>
      <point x="490" y="0"/>
      <point x="601" y="79"/>
      <point x="601" y="197" type="curve"/>
      <point x="601" y="286"/>
      <point x="537" y="343"/>
      <point x="426" y="354" type="curve"/>
      <point x="415" y="343" type="line"/>
      <point x="502" y="365"/>
      <point x="555" y="427"/>
      <point x="555" y="507" type="curve"/>
      <point x="555" y="601"/>
      <point x="470" y="661"/>
      <point x="336" y="660" type="curve"/>
      <point x="282" y="659"/>
      <point x="228" y="659"/>
      <point x="181" y="659" type="curve"/>
      <point x="147" y="659"/>
      <point x="107" y="660"/>
      <point x="34" y="664" type="curve"/>
      <point x="32" y="662"/>
      <point x="31" y="656"/>
      <point x="31" y="645" type="curve"/>
      <point x="31" y="632"/>
      <point x="32" y="627"/>
      <point x="35" y="627" type="curve"/>
      <point x="53" y="627"/>
      <point x="99" y="608"/>
      <point x="102" y="599" type="curve"/>
      <point x="106" y="584"/>
      <point x="108" y="558"/>
      <point x="108" y="521" type="curve"/>
      <point x="108" y="143" type="line" smooth="yes"/>
      <point x="108" y="98"/>
      <point x="106" y="70"/>
      <point x="102" y="55" type="curve"/>
      <point x="99" y="46"/>
      <point x="60" y="33"/>
      <point x="36" y="33" type="curve"/>
      <point x="33" y="33"/>
      <point x="32" y="28"/>
      <point x="32" y="13" type="curve"/>
      <point x="32" y="4"/>
      <point x="33" y="-1"/>
    </contour>
    <contour>
      <point x="310" y="52" type="curve"/>
      <point x="260" y="52"/>
      <point x="248" y="62"/>
      <point x="248" y="103" type="curve"/>
      <point x="248" y="310" type="line"/>
      <point x="262" y="314"/>
      <point x="278" y="315"/>
      <point x="308" y="315" type="curve"/>
      <point x="399" y="315"/>
      <point x="451" y="266"/>
      <point x="451" y="179" type="curve"/>
      <point x="451" y="97"/>
      <point x="401" y="52"/>
    </contour>
    <contour>
      <point x="300" y="371" type="curve"/>
      <point x="274" y="371"/>
      <point x="260" y="372"/>
      <point x="248" y="374" type="curve"/>
      <point x="248" y="589" type="line" smooth="yes"/>
      <point x="248" y="602"/>
      <point x="263" y="608"/>
      <point x="295" y="608" type="curve"/>
      <point x="364" y="608"/>
      <point x="407" y="563"/>
      <point x="407" y="490" type="curve"/>
      <point x="407" y="410"/>
      <point x="372" y="371"/>
    </contour>
    <contour>
      <point x="308" y="0" type="move" name="bottom"/>
    </contour>
    <contour>
      <point x="308" y="658" type="move" name="top"/>
    </contour>
  </outline>
</glyph>
<glyph name="D" format="1">
  <advance width="747"/>
  <unicode hex="0044"/>
  <note>
    D
  </note>
  <outline>
    <contour>
      <point x="181" y="659" type="curve"/>
      <point x="136" y="659"/>
      <point x="87" y="661"/>
      <point x="34" y="664" type="curve"/>
      <point x="32" y="662"/>
      <point x="31" y="656"/>
      <point x="31" y="645" type="curve"/>
      <point x="31" y="633"/>
      <point x="32" y="627"/>
      <point x="35" y="627" type="curve"/>
      <point x="53" y="627"/>
      <point x="99" y="608"/>
      <point x="102" y="599" type="curve"/>
      <point x="106" y="584"/>
      <point x="108" y="558"/>
      <point x="108" y="521" type="curve"/>
      <point x="108" y="143" type="line" smooth="yes"/>
      <point x="108" y="100"/>
      <point x="106" y="70"/>
      <point x="102" y="55" type="curve"/>
      <point x="99" y="47"/>
      <point x="57" y="33"/>
      <point x="36" y="33" type="curve"/>
      <point x="33" y="33"/>
      <point x="32" y="26"/>
      <point x="32" y="13" type="curve"/>
      <point x="32" y="4"/>
      <point x="33" y="-1"/>
      <point x="36" y="-4" type="curve"/>
      <point x="85" y="-2"/>
      <point x="135" y="2"/>
      <point x="182" y="2" type="curve"/>
      <point x="201" y="2"/>
      <point x="338" y="-3"/>
      <point x="354" y="-3" type="curve"/>
      <point x="561" y="-3"/>
      <point x="702" y="135"/>
      <point x="702" y="336" type="curve"/>
      <point x="702" y="524"/>
      <point x="557" y="659"/>
      <point x="345" y="659" type="curve"/>
      <point x="270" y="659"/>
      <point x="206" y="659"/>
    </contour>
    <contour>
      <point x="248" y="136" type="curve"/>
      <point x="248" y="524" type="line"/>
      <point x="248" y="554"/>
      <point x="252" y="575"/>
      <point x="261" y="587" type="curve"/>
      <point x="269" y="598"/>
      <point x="301" y="603"/>
      <point x="338" y="603" type="curve"/>
      <point x="475" y="603"/>
      <point x="546" y="498"/>
      <point x="546" y="340" type="curve"/>
      <point x="546" y="154"/>
      <point x="484" y="53"/>
      <point x="350" y="53" type="curve"/>
      <point x="309" y="53"/>
      <point x="272" y="57"/>
      <point x="257" y="66" type="curve"/>
      <point x="251" y="69"/>
      <point x="248" y="93"/>
    </contour>
    <contour>
      <point x="367" y="0" type="move" name="bottom"/>
    </contour>
    <contour>
      <point x="367" y="329" type="move" name="center"/>
    </contour>
    <contour>
      <point x="224" y="330" type="move" name="stroke"/>
    </contour>
    <contour>
      <point x="367" y="658" type="move" name="top"/>
    </contour>
  </outline>
</glyph>
<glyph name="F" format="1">
  <advance width="565"/>
  <unicode hex="0046"/>
  <note>
    F
  </note>
  <outline>
    <contour>
      <point x="36" y="-4" type="curve"/>
      <point x="85" y="-1"/>
      <point x="133" y="2"/>
      <point x="182" y="2" type="curve"/>
      <point x="204" y="2"/>
      <point x="255" y="0"/>
      <point x="335" y="-4" type="curve"/>
      <point x="336" y="0"/>
      <point x="337" y="6"/>
      <point x="337" y="14" type="curve"/>
      <point x="337" y="27"/>
      <point x="336" y="33"/>
      <point x="333" y="33" type="curve"/>
      <point x="301" y="33"/>
      <point x="258" y="47"/>
      <point x="255" y="59" type="curve"/>
      <point x="250" y="80"/>
      <point x="248" y="107"/>
      <point x="248" y="141" type="curve"/>
      <point x="248" y="295" type="line" smooth="yes"/>
      <point x="248" y="301"/>
      <point x="272" y="304"/>
      <point x="320" y="304" type="curve"/>
      <point x="366" y="304"/>
      <point x="398" y="303"/>
      <point x="410" y="286" type="curve"/>
      <point x="413" y="281"/>
      <point x="419" y="264"/>
      <point x="426" y="238" type="curve"/>
      <point x="428" y="233"/>
      <point x="433" y="230"/>
      <point x="442" y="230" type="curve"/>
      <point x="453" y="230"/>
      <point x="460" y="231"/>
      <point x="463" y="234" type="curve"/>
      <point x="463" y="423" type="line"/>
      <point x="460" y="426"/>
      <point x="452" y="428"/>
      <point x="441" y="428" type="curve"/>
      <point x="432" y="428"/>
      <point x="427" y="426"/>
      <point x="425" y="421" type="curve"/>
      <point x="422" y="400"/>
      <point x="418" y="368"/>
      <point x="412" y="364" type="curve"/>
      <point x="408" y="361"/>
      <point x="385" y="359"/>
      <point x="344" y="359" type="curve"/>
      <point x="291" y="359" type="line" smooth="yes"/>
      <point x="262" y="359"/>
      <point x="248" y="361"/>
      <point x="248" y="365" type="curve"/>
      <point x="248" y="519" type="line" smooth="yes"/>
      <point x="248" y="555"/>
      <point x="250" y="581"/>
      <point x="253" y="597" type="curve"/>
      <point x="254" y="606"/>
      <point x="276" y="610"/>
      <point x="318" y="610" type="curve"/>
      <point x="356" y="610" type="line" smooth="yes"/>
      <point x="431" y="610"/>
      <point x="465" y="581"/>
      <point x="496" y="518" type="curve"/>
      <point x="498" y="513"/>
      <point x="503" y="511"/>
      <point x="510" y="511" type="curve"/>
      <point x="522" y="511"/>
      <point x="530" y="513"/>
      <point x="533" y="516" type="curve"/>
      <point x="514" y="608"/>
      <point x="505" y="657"/>
      <point x="504" y="664" type="curve"/>
      <point x="469" y="664"/>
      <point x="418" y="663"/>
      <point x="349" y="662" type="curve"/>
      <point x="280" y="660"/>
      <point x="224" y="659"/>
      <point x="181" y="659" type="curve"/>
      <point x="143" y="659"/>
      <point x="94" y="661"/>
      <point x="34" y="664" type="curve"/>
      <point x="32" y="662"/>
      <point x="31" y="656"/>
      <point x="31" y="645" type="curve"/>
      <point x="31" y="633"/>
      <point x="32" y="627"/>
      <point x="35" y="627" type="curve"/>
      <point x="53" y="627"/>
      <point x="99" y="608"/>
      <point x="102" y="599" type="curve"/>
      <point x="106" y="584"/>
      <point x="108" y="558"/>
      <point x="108" y="521" type="curve"/>
      <point x="108" y="143" type="line" smooth="yes"/>
      <point x="108" y="100"/>
      <point x="106" y="70"/>
      <point x="102" y="55" type="curve"/>
      <point x="99" y="47"/>
      <point x="57" y="33"/>
      <point x="36" y="33" type="curve"/>
      <point x="33" y="33"/>
      <point x="32" y="26"/>
      <point x="32" y="13" type="curve"/>
      <point x="32" y="4"/>
      <point x="33" y="-1"/>
    </contour>
    <contour>
      <point x="282" y="0" type="move" name="bottom"/>
    </contour>
    <contour>
      <point x="282" y="658" type="move" name="top"/>
    </contour>
  </outline>
</glyph>
<glyph name="H" format="1">
  <advance width="737"/>
  <unicode hex="0048"/>
  <note>
    H
  </note>
  <outline>
    <contour>
      <point x="36" y="-4" type="curve"/>
      <point x="100" y="0"/>
      <point x="160" y="4"/>
      <point x="178" y="4" type="curve"/>
      <point x="215" y="4"/>
      <point x="249" y="0"/>
      <point x="320" y="-4" type="curve"/>
      <point x="322" y="0"/>
      <point x="323" y="7"/>
      <point x="323" y="14" type="curve"/>
      <point x="323" y="25"/>
      <point x="321" y="33"/>
      <point x="318" y="33" type="curve"/>
      <point x="302" y="33"/>
      <point x="258" y="51"/>
      <point x="256" y="58" type="curve"/>
      <point x="251" y="79"/>
      <point x="248" y="107"/>
      <point x="248" y="142" type="curve"/>
      <point x="248" y="306" type="line"/>
      <point x="250" y="308" type="line"/>
      <point x="265" y="309"/>
      <point x="287" y="311"/>
      <point x="370" y="311" type="curve"/>
      <point x="405" y="311"/>
      <point x="444" y="311"/>
      <point x="487" y="309" type="curve"/>
      <point x="489" y="305" type="line"/>
      <point x="489" y="138" type="line" smooth="yes"/>
      <point x="489" y="101"/>
      <point x="487" y="74"/>
      <point x="483" y="59" type="curve"/>
      <point x="480" y="50"/>
      <point x="436" y="33"/>
      <point x="417" y="33" type="curve"/>
      <point x="414" y="33"/>
      <point x="412" y="25"/>
      <point x="412" y="14" type="curve"/>
      <point x="412" y="7"/>
      <point x="414" y="-2"/>
      <point x="416" y="-4" type="curve"/>
      <point x="463" y="0"/>
      <point x="542" y="4"/>
      <point x="565" y="4" type="curve"/>
      <point x="590" y="4"/>
      <point x="653" y="-1"/>
      <point x="700" y="-4" type="curve"/>
      <point x="702" y="2"/>
      <point x="703" y="8"/>
      <point x="703" y="13" type="curve"/>
      <point x="703" y="27"/>
      <point x="702" y="34"/>
      <point x="699" y="34" type="curve"/>
      <point x="682" y="34"/>
      <point x="639" y="50"/>
      <point x="637" y="57" type="curve"/>
      <point x="632" y="78"/>
      <point x="629" y="106"/>
      <point x="629" y="142" type="curve"/>
      <point x="629" y="516" type="line" smooth="yes"/>
      <point x="629" y="553"/>
      <point x="632" y="581"/>
      <point x="637" y="601" type="curve"/>
      <point x="639" y="608"/>
      <point x="683" y="625"/>
      <point x="700" y="625" type="curve"/>
      <point x="703" y="625"/>
      <point x="705" y="631"/>
      <point x="705" y="644" type="curve"/>
      <point x="705" y="650"/>
      <point x="704" y="656"/>
      <point x="702" y="662" type="curve"/>
      <point x="622" y="658"/>
      <point x="577" y="656"/>
      <point x="567" y="656" type="curve"/>
      <point x="560" y="656"/>
      <point x="510" y="658"/>
      <point x="418" y="662" type="curve"/>
      <point x="416" y="660"/>
      <point x="414" y="652"/>
      <point x="414" y="644" type="curve"/>
      <point x="414" y="633"/>
      <point x="416" y="625"/>
      <point x="419" y="625" type="curve"/>
      <point x="437" y="625"/>
      <point x="479" y="608"/>
      <point x="482" y="599" type="curve"/>
      <point x="487" y="581"/>
      <point x="489" y="555"/>
      <point x="489" y="520" type="curve"/>
      <point x="489" y="375" type="line"/>
      <point x="487" y="371" type="line"/>
      <point x="427" y="370"/>
      <point x="388" y="369"/>
      <point x="370" y="369" type="curve"/>
      <point x="355" y="369"/>
      <point x="315" y="370"/>
      <point x="250" y="371" type="curve"/>
      <point x="248" y="374" type="line"/>
      <point x="248" y="516" type="line" smooth="yes"/>
      <point x="248" y="559"/>
      <point x="251" y="587"/>
      <point x="256" y="601" type="curve"/>
      <point x="259" y="608"/>
      <point x="304" y="625"/>
      <point x="320" y="625" type="curve"/>
      <point x="323" y="625"/>
      <point x="324" y="630"/>
      <point x="324" y="641" type="curve"/>
      <point x="324" y="652"/>
      <point x="323" y="659"/>
      <point x="321" y="662" type="curve"/>
      <point x="241" y="658"/>
      <point x="192" y="656"/>
      <point x="175" y="656" type="curve"/>
      <point x="174" y="656"/>
      <point x="128" y="658"/>
      <point x="36" y="662" type="curve"/>
      <point x="35" y="661"/>
      <point x="34" y="655"/>
      <point x="34" y="645" type="curve"/>
      <point x="34" y="632"/>
      <point x="35" y="625"/>
      <point x="38" y="625" type="curve"/>
      <point x="61" y="625"/>
      <point x="96" y="610"/>
      <point x="101" y="598" type="curve"/>
      <point x="106" y="587"/>
      <point x="108" y="561"/>
      <point x="108" y="520" type="curve"/>
      <point x="108" y="138" type="line" smooth="yes"/>
      <point x="108" y="102"/>
      <point x="106" y="75"/>
      <point x="101" y="57" type="curve"/>
      <point x="98" y="48"/>
      <point x="56" y="33"/>
      <point x="34" y="33" type="curve"/>
      <point x="33" y="33"/>
      <point x="32" y="26"/>
      <point x="32" y="13" type="curve"/>
      <point x="32" y="4"/>
      <point x="33" y="-1"/>
    </contour>
    <contour>
      <point x="370" y="0" type="move" name="bottom"/>
    </contour>
    <contour>
      <point x="369" y="499" type="move" name="stroke"/>
    </contour>
    <contour>
      <point x="370" y="658" type="move" name="top"/>
    </contour>
    <contour>
      <point x="26" y="658" type="move" name="topleft"/>
    </contour>
  </outline>
</glyph>
<glyph name="I" format="1">
  <advance width="356"/>
  <unicode hex="0049"/>
  <note>
    I
  </note>
  <outline>
    <contour>
      <point x="36" y="-4" type="curve"/>
      <point x="55" y="-3"/>
      <point x="145" y="4"/>
      <point x="181" y="4" type="curve"/>
      <point x="212" y="4"/>
      <point x="285" y="-2"/>
      <point x="320" y="-4" type="curve"/>
      <point x="321" y="0"/>
      <point x="322" y="6"/>
      <point x="322" y="14" type="curve"/>
      <point x="322" y="27"/>
      <point x="321" y="33"/>
      <point x="318" y="33" type="curve"/>
      <point x="306" y="33"/>
      <point x="259" y="49"/>
      <point x="256" y="57" type="curve"/>
      <point x="249" y="88"/>
      <point x="248" y="118"/>
      <point x="248" y="146" type="curve"/>
      <point x="248" y="531" type="line" smooth="yes"/>
      <point x="248" y="551"/>
      <point x="251" y="585"/>
      <point x="255" y="601" type="curve"/>
      <point x="257" y="610"/>
      <point x="308" y="625"/>
      <point x="320" y="625" type="curve"/>
      <point x="323" y="625"/>
      <point x="324" y="631"/>
      <point x="324" y="644" type="curve"/>
      <point x="324" y="650"/>
      <point x="323" y="656"/>
      <point x="321" y="662" type="curve"/>
      <point x="241" y="658"/>
      <point x="194" y="656"/>
      <point x="181" y="656" type="curve"/>
      <point x="133" y="656"/>
      <point x="84" y="659"/>
      <point x="36" y="662" type="curve"/>
      <point x="35" y="661"/>
      <point x="34" y="654"/>
      <point x="34" y="642" type="curve"/>
      <point x="34" y="631"/>
      <point x="35" y="625"/>
      <point x="38" y="625" type="curve"/>
      <point x="53" y="625"/>
      <point x="93" y="611"/>
      <point x="100" y="600" type="curve"/>
      <point x="105" y="591"/>
      <point x="108" y="565"/>
      <point x="108" y="522" type="curve"/>
      <point x="108" y="138" type="line" smooth="yes"/>
      <point x="108" y="103"/>
      <point x="106" y="76"/>
      <point x="101" y="58" type="curve"/>
      <point x="97" y="47"/>
      <point x="50" y="33"/>
      <point x="35" y="33" type="curve"/>
      <point x="33" y="33"/>
      <point x="32" y="26"/>
      <point x="32" y="12" type="curve"/>
      <point x="32" y="4"/>
      <point x="33" y="-1"/>
    </contour>
    <contour>
      <point x="179" y="0" type="move" name="bottom"/>
    </contour>
    <contour>
      <point x="279" y="10" type="move" name="ogonek"/>
    </contour>
    <contour>
      <point x="179" y="658" type="move" name="top"/>
    </contour>
    <contour>
      <point x="26" y="658" type="move" name="topleft"/>
    </contour>
  </outline>
</glyph>
<glyph name="J" format="1">
  <advance width="349"/>
  <unicode hex="004A"/>
  <note>
    J
  </note>
  <outline>
    <contour>
      <point x="179" y="656" type="curve"/>
      <point x="174" y="656"/>
      <point x="126" y="658"/>
      <point x="34" y="662" type="curve"/>
      <point x="33" y="661"/>
      <point x="32" y="654"/>
      <point x="32" y="642" type="curve"/>
      <point x="32" y="631"/>
      <point x="33" y="625"/>
      <point x="36" y="625" type="curve"/>
      <point x="51" y="625"/>
      <point x="91" y="611"/>
      <point x="98" y="600" type="curve"/>
      <point x="103" y="591"/>
      <point x="106" y="565"/>
      <point x="106" y="522" type="curve"/>
      <point x="106" y="135" type="line" smooth="yes"/>
      <point x="106" y="40"/>
      <point x="101" y="-31"/>
      <point x="92" y="-78" type="curve"/>
      <point x="83" y="-125"/>
      <point x="63" y="-148"/>
      <point x="34" y="-148" type="curve"/>
      <point x="25" y="-148"/>
      <point x="11" y="-138"/>
      <point x="-8" y="-118" type="curve"/>
      <point x="-26" y="-97"/>
      <point x="-43" y="-87"/>
      <point x="-59" y="-87" type="curve"/>
      <point x="-92" y="-87"/>
      <point x="-122" y="-115"/>
      <point x="-122" y="-148" type="curve"/>
      <point x="-122" y="-187"/>
      <point x="-88" y="-218"/>
      <point x="-30" y="-218" type="curve"/>
      <point x="123" y="-218"/>
      <point x="246" y="-84"/>
      <point x="246" y="143" type="curve"/>
      <point x="246" y="516" type="line" smooth="yes"/>
      <point x="246" y="555"/>
      <point x="248" y="583"/>
      <point x="253" y="602" type="curve"/>
      <point x="256" y="610"/>
      <point x="306" y="625"/>
      <point x="318" y="625" type="curve"/>
      <point x="321" y="625"/>
      <point x="322" y="631"/>
      <point x="322" y="644" type="curve"/>
      <point x="322" y="650"/>
      <point x="321" y="656"/>
      <point x="319" y="662" type="curve"/>
      <point x="239" y="658"/>
      <point x="192" y="656"/>
    </contour>
    <contour>
      <point x="102" y="0" type="move" name="bottom"/>
    </contour>
    <contour>
      <point x="178" y="658" type="move" name="top"/>
    </contour>
  </outline>
</glyph>
<glyph name="K" format="1">
  <advance width="723"/>
  <unicode hex="004B"/>
  <note>
    K
  </note>
  <outline>
    <contour>
      <point x="36" y="-4" type="curve"/>
      <point x="55" y="-3"/>
      <point x="145" y="4"/>
      <point x="181" y="4" type="curve"/>
      <point x="203" y="4"/>
      <point x="278" y="-1"/>
      <point x="320" y="-4" type="curve"/>
      <point x="321" y="0"/>
      <point x="322" y="6"/>
      <point x="322" y="14" type="curve"/>
      <point x="322" y="27"/>
      <point x="321" y="33"/>
      <point x="318" y="33" type="curve"/>
      <point x="306" y="33"/>
      <point x="259" y="49"/>
      <point x="256" y="58" type="curve"/>
      <point x="249" y="78"/>
      <point x="248" y="108"/>
      <point x="248" y="146" type="curve"/>
      <point x="248" y="289" type="line"/>
      <point x="271" y="289" type="line" smooth="yes"/>
      <point x="282" y="289"/>
      <point x="290" y="287"/>
      <point x="300" y="275" type="curve"/>
      <point x="444" y="102" type="line" smooth="yes"/>
      <point x="461" y="81"/>
      <point x="471" y="64"/>
      <point x="471" y="55" type="curve"/>
      <point x="471" y="42"/>
      <point x="439" y="33"/>
      <point x="424" y="33" type="curve"/>
      <point x="421" y="33"/>
      <point x="420" y="28"/>
      <point x="420" y="17" type="curve"/>
      <point x="420" y="6"/>
      <point x="421" y="-1"/>
      <point x="424" y="-4" type="curve"/>
      <point x="483" y="1"/>
      <point x="530" y="4"/>
      <point x="566" y="4" type="curve"/>
      <point x="593" y="4"/>
      <point x="691" y="-1"/>
      <point x="721" y="-4" type="curve"/>
      <point x="724" y="1"/>
      <point x="725" y="7"/>
      <point x="725" y="14" type="curve"/>
      <point x="725" y="27"/>
      <point x="724" y="33"/>
      <point x="721" y="33" type="curve"/>
      <point x="705" y="33"/>
      <point x="666" y="40"/>
      <point x="651" y="58" type="curve"/>
      <point x="400" y="360" type="line"/>
      <point x="396" y="364"/>
      <point x="394" y="369"/>
      <point x="394" y="374" type="curve"/>
      <point x="394" y="379"/>
      <point x="396" y="384"/>
      <point x="401" y="389" type="curve"/>
      <point x="578" y="586" type="line" smooth="yes"/>
      <point x="598" y="609"/>
      <point x="639" y="624"/>
      <point x="694" y="627" type="curve"/>
      <point x="696" y="629"/>
      <point x="698" y="638"/>
      <point x="698" y="647" type="curve"/>
      <point x="698" y="654"/>
      <point x="697" y="660"/>
      <point x="696" y="662" type="curve"/>
      <point x="616" y="658"/>
      <point x="572" y="656"/>
      <point x="564" y="656" type="curve"/>
      <point x="549" y="656"/>
      <point x="504" y="658"/>
      <point x="430" y="662" type="curve"/>
      <point x="429" y="660"/>
      <point x="429" y="657"/>
      <point x="429" y="653" type="curve"/>
      <point x="429" y="642"/>
      <point x="432" y="627"/>
      <point x="436" y="627" type="curve"/>
      <point x="457" y="627"/>
      <point x="496" y="622"/>
      <point x="496" y="609" type="curve"/>
      <point x="496" y="600"/>
      <point x="494" y="591"/>
      <point x="478" y="574" type="curve"/>
      <point x="306" y="388" type="line" smooth="yes"/>
      <point x="282" y="362"/>
      <point x="267" y="350"/>
      <point x="262" y="350" type="curve"/>
      <point x="248" y="350" type="line"/>
      <point x="248" y="516" type="line" smooth="yes"/>
      <point x="248" y="555"/>
      <point x="249" y="583"/>
      <point x="255" y="601" type="curve"/>
      <point x="258" y="610"/>
      <point x="308" y="625"/>
      <point x="320" y="625" type="curve"/>
      <point x="323" y="625"/>
      <point x="324" y="631"/>
      <point x="324" y="644" type="curve"/>
      <point x="324" y="650"/>
      <point x="323" y="656"/>
      <point x="321" y="662" type="curve"/>
      <point x="241" y="658"/>
      <point x="194" y="656"/>
      <point x="181" y="656" type="curve"/>
      <point x="176" y="656"/>
      <point x="128" y="658"/>
      <point x="36" y="662" type="curve"/>
      <point x="35" y="661"/>
      <point x="34" y="654"/>
      <point x="34" y="642" type="curve"/>
      <point x="34" y="631"/>
      <point x="35" y="625"/>
      <point x="38" y="625" type="curve"/>
      <point x="53" y="625"/>
      <point x="93" y="611"/>
      <point x="100" y="600" type="curve"/>
      <point x="105" y="591"/>
      <point x="108" y="565"/>
      <point x="108" y="522" type="curve"/>
      <point x="108" y="138" type="line" smooth="yes"/>
      <point x="108" y="103"/>
      <point x="106" y="76"/>
      <point x="101" y="58" type="curve"/>
      <point x="97" y="47"/>
      <point x="50" y="33"/>
      <point x="35" y="33" type="curve"/>
      <point x="33" y="33"/>
      <point x="32" y="26"/>
      <point x="32" y="12" type="curve"/>
      <point x="32" y="4"/>
      <point x="33" y="-1"/>
    </contour>
    <contour>
      <point x="377" y="0" type="move" name="bottom"/>
    </contour>
    <contour>
      <point x="377" y="658" type="move" name="top"/>
    </contour>
  </outline>
</glyph>
<glyph name="L" format="1">
  <advance width="573"/>
  <unicode hex="004C"/>
  <note>
    L
  </note>
  <outline>
    <contour>
      <point x="181" y="656" type="curve"/>
      <point x="176" y="656"/>
      <point x="131" y="658"/>
      <point x="36" y="662" type="curve"/>
      <point x="35" y="661"/>
      <point x="34" y="652"/>
      <point x="34" y="642" type="curve"/>
      <point x="34" y="630"/>
      <point x="35" y="625"/>
      <point x="38" y="625" type="curve"/>
      <point x="56" y="625"/>
      <point x="94" y="610"/>
      <point x="100" y="600" type="curve"/>
      <point x="105" y="591"/>
      <point x="108" y="563"/>
      <point x="108" y="525" type="curve"/>
      <point x="108" y="143" type="line" smooth="yes"/>
      <point x="108" y="100"/>
      <point x="106" y="70"/>
      <point x="102" y="55" type="curve"/>
      <point x="99" y="46"/>
      <point x="60" y="33"/>
      <point x="36" y="33" type="curve"/>
      <point x="33" y="33"/>
      <point x="32" y="28"/>
      <point x="32" y="13" type="curve"/>
      <point x="32" y="4"/>
      <point x="33" y="-1"/>
      <point x="36" y="-4" type="curve"/>
      <point x="75" y="-2"/>
      <point x="133" y="2"/>
      <point x="182" y="2" type="curve"/>
      <point x="211" y="2"/>
      <point x="265" y="1"/>
      <point x="346" y="0" type="curve"/>
      <point x="427" y="-1"/>
      <point x="486" y="-2"/>
      <point x="524" y="-2" type="curve"/>
      <point x="527" y="20"/>
      <point x="543" y="72"/>
      <point x="578" y="170" type="curve"/>
      <point x="574" y="174"/>
      <point x="564" y="176"/>
      <point x="548" y="176" type="curve"/>
      <point x="540" y="176"/>
      <point x="535" y="174"/>
      <point x="534" y="170" type="curve"/>
      <point x="504" y="92"/>
      <point x="442" y="54"/>
      <point x="350" y="54" type="curve"/>
      <point x="324" y="54" type="line" smooth="yes"/>
      <point x="281" y="54"/>
      <point x="259" y="59"/>
      <point x="256" y="70" type="curve"/>
      <point x="251" y="89"/>
      <point x="248" y="116"/>
      <point x="248" y="142" type="curve"/>
      <point x="248" y="521" type="line" smooth="yes"/>
      <point x="248" y="564"/>
      <point x="250" y="586"/>
      <point x="255" y="601" type="curve"/>
      <point x="257" y="608"/>
      <point x="303" y="625"/>
      <point x="320" y="625" type="curve"/>
      <point x="323" y="625"/>
      <point x="324" y="630"/>
      <point x="324" y="644" type="curve"/>
      <point x="324" y="650"/>
      <point x="323" y="656"/>
      <point x="321" y="662" type="curve"/>
      <point x="246" y="658"/>
      <point x="195" y="656"/>
    </contour>
    <contour>
      <point x="305" y="0" type="move" name="bottom"/>
    </contour>
    <contour>
      <point x="203" y="329" type="move" name="center"/>
    </contour>
    <contour>
      <point x="417" y="329" type="move" name="dotacc"/>
    </contour>
    <contour>
      <point x="305" y="658" type="move" name="top"/>
    </contour>
    <contour>
      <point x="396" y="439" type="move" name="topright"/>
    </contour>
  </outline>
</glyph>
<glyph name="M" format="1">
  <advance width="890"/>
  <unicode hex="004D"/>
  <note>
    M
  </note>
  <outline>
    <contour>
      <point x="0" y="-4" type="curve"/>
      <point x="63" y="0"/>
      <point x="91" y="4"/>
      <point x="129" y="4" type="curve"/>
      <point x="143" y="4"/>
      <point x="185" y="4"/>
      <point x="272" y="-4" type="curve"/>
      <point x="273" y="0"/>
      <point x="274" y="6"/>
      <point x="274" y="13" type="curve"/>
      <point x="274" y="26"/>
      <point x="273" y="33"/>
      <point x="270" y="33" type="curve"/>
      <point x="253" y="33"/>
      <point x="176" y="56"/>
      <point x="172" y="73" type="curve"/>
      <point x="171" y="78"/>
      <point x="171" y="90"/>
      <point x="171" y="109" type="curve"/>
      <point x="188" y="539" type="line"/>
      <point x="170" y="535" type="line"/>
      <point x="399" y="20" type="line" smooth="yes"/>
      <point x="406" y="4"/>
      <point x="414" y="-2"/>
      <point x="423" y="-2" type="curve"/>
      <point x="435" y="-2"/>
      <point x="446" y="4"/>
      <point x="457" y="31" type="curve"/>
      <point x="664" y="554" type="line"/>
      <point x="630" y="509" type="line"/>
      <point x="633" y="499"/>
      <point x="641" y="477"/>
      <point x="642" y="432" type="curve"/>
      <point x="653" y="109" type="line" smooth="yes"/>
      <point x="654" y="80"/>
      <point x="650" y="71"/>
      <point x="645" y="61" type="curve"/>
      <point x="638" y="48"/>
      <point x="598" y="33"/>
      <point x="583" y="33" type="curve"/>
      <point x="581" y="33"/>
      <point x="580" y="26"/>
      <point x="580" y="12" type="curve"/>
      <point x="580" y="5"/>
      <point x="582" y="-1"/>
      <point x="585" y="-4" type="curve"/>
      <point x="614" y="0"/>
      <point x="691" y="4"/>
      <point x="727" y="4" type="curve"/>
      <point x="762" y="4"/>
      <point x="842" y="-3"/>
      <point x="857" y="-4" type="curve"/>
      <point x="858" y="0"/>
      <point x="859" y="6"/>
      <point x="859" y="13" type="curve"/>
      <point x="859" y="26"/>
      <point x="858" y="33"/>
      <point x="855" y="33" type="curve"/>
      <point x="843" y="33"/>
      <point x="802" y="48"/>
      <point x="797" y="60" type="curve"/>
      <point x="789" y="81"/>
      <point x="784" y="111"/>
      <point x="782" y="152" type="curve"/>
      <point x="762" y="572" type="line" smooth="yes"/>
      <point x="761" y="592"/>
      <point x="766" y="606"/>
      <point x="776" y="613" type="curve"/>
      <point x="787" y="621"/>
      <point x="801" y="625"/>
      <point x="819" y="625" type="curve"/>
      <point x="822" y="625"/>
      <point x="824" y="632"/>
      <point x="824" y="646" type="curve"/>
      <point x="824" y="653"/>
      <point x="823" y="658"/>
      <point x="820" y="662" type="curve"/>
      <point x="770" y="657"/>
      <point x="718" y="656"/>
      <point x="694" y="656" type="curve"/>
      <point x="652" y="656"/>
      <point x="625" y="657"/>
      <point x="613" y="658" type="curve"/>
      <point x="604" y="621"/>
      <point x="584" y="554"/>
      <point x="570" y="517" type="curve"/>
      <point x="460" y="236" type="line"/>
      <point x="459" y="233"/>
      <point x="458" y="231"/>
      <point x="456" y="231" type="curve"/>
      <point x="454" y="231"/>
      <point x="452" y="234"/>
      <point x="448" y="244" type="curve"/>
      <point x="324" y="524" type="line" smooth="yes"/>
      <point x="300" y="579"/>
      <point x="273" y="641"/>
      <point x="266" y="662" type="curve"/>
      <point x="240" y="659"/>
      <point x="177" y="656"/>
      <point x="160" y="656" type="curve"/>
      <point x="135" y="656"/>
      <point x="74" y="660"/>
      <point x="45" y="662" type="curve"/>
      <point x="42" y="659"/>
      <point x="41" y="654"/>
      <point x="41" y="647" type="curve"/>
      <point x="41" y="633"/>
      <point x="42" y="626"/>
      <point x="45" y="626" type="curve"/>
      <point x="62" y="626"/>
      <point x="115" y="616"/>
      <point x="119" y="605" type="curve"/>
      <point x="121" y="600"/>
      <point x="122" y="594"/>
      <point x="121" y="557" type="curve"/>
      <point x="120" y="522"/>
      <point x="116" y="410"/>
      <point x="111" y="285" type="curve"/>
      <point x="108" y="218"/>
      <point x="106" y="159"/>
      <point x="101" y="97" type="curve"/>
      <point x="100" y="78"/>
      <point x="95" y="70"/>
      <point x="85" y="60" type="curve"/>
      <point x="63" y="45"/>
      <point x="17" y="32"/>
      <point x="-1" y="32" type="curve"/>
      <point x="-3" y="32"/>
      <point x="-4" y="26"/>
      <point x="-4" y="13" type="curve"/>
      <point x="-4" y="4"/>
      <point x="-3" y="-1"/>
    </contour>
    <contour>
      <point x="429" y="0" type="move" name="bottom"/>
    </contour>
    <contour>
      <point x="429" y="658" type="move" name="top"/>
    </contour>
  </outline>
</glyph>
<glyph name="N" format="1">
  <advance width="743"/>
  <unicode hex="004E"/>
  <note>
    N
  </note>
  <outline>
    <contour>
      <point x="612" y="-5" type="curve"/>
      <point x="626" y="-5"/>
      <point x="634" y="-4"/>
      <point x="637" y="-1" type="curve"/>
      <point x="634" y="68"/>
      <point x="633" y="115"/>
      <point x="633" y="139" type="curve"/>
      <point x="633" y="519" type="line" smooth="yes"/>
      <point x="633" y="556"/>
      <point x="638" y="581"/>
      <point x="647" y="592" type="curve"/>
      <point x="666" y="614"/>
      <point x="693" y="625"/>
      <point x="730" y="625" type="curve"/>
      <point x="733" y="625"/>
      <point x="735" y="631"/>
      <point x="735" y="644" type="curve"/>
      <point x="735" y="651"/>
      <point x="734" y="657"/>
      <point x="731" y="662" type="curve"/>
      <point x="715" y="661"/>
      <point x="640" y="654"/>
      <point x="607" y="654" type="curve"/>
      <point x="580" y="654"/>
      <point x="536" y="657"/>
      <point x="475" y="662" type="curve"/>
      <point x="473" y="660"/>
      <point x="473" y="654"/>
      <point x="473" y="648" type="curve"/>
      <point x="473" y="637"/>
      <point x="475" y="625"/>
      <point x="478" y="625" type="curve"/>
      <point x="494" y="625"/>
      <point x="544" y="611"/>
      <point x="556" y="596" type="curve"/>
      <point x="565" y="586"/>
      <point x="569" y="562"/>
      <point x="569" y="524" type="curve"/>
      <point x="569" y="289" type="line" smooth="yes"/>
      <point x="569" y="250"/>
      <point x="566" y="238"/>
      <point x="564" y="226" type="curve"/>
      <point x="596" y="212" type="line"/>
      <point x="315" y="564" type="line" smooth="yes"/>
      <point x="281" y="606"/>
      <point x="260" y="639"/>
      <point x="249" y="662" type="curve"/>
      <point x="206" y="657"/>
      <point x="167" y="654"/>
      <point x="144" y="654" type="curve"/>
      <point x="121" y="654"/>
      <point x="39" y="660"/>
      <point x="14" y="662" type="curve"/>
      <point x="12" y="660"/>
      <point x="11" y="653"/>
      <point x="11" y="646" type="curve"/>
      <point x="11" y="636"/>
      <point x="13" y="625"/>
      <point x="16" y="625" type="curve"/>
      <point x="35" y="625"/>
      <point x="88" y="617"/>
      <point x="95" y="608" type="curve"/>
      <point x="105" y="595"/>
      <point x="110" y="572"/>
      <point x="110" y="537" type="curve"/>
      <point x="110" y="144" type="line" smooth="yes"/>
      <point x="110" y="106"/>
      <point x="107" y="82"/>
      <point x="100" y="71" type="curve"/>
      <point x="83" y="42"/>
      <point x="35" y="33"/>
      <point x="15" y="33" type="curve"/>
      <point x="13" y="33"/>
      <point x="12" y="27"/>
      <point x="12" y="14" type="curve"/>
      <point x="12" y="4"/>
      <point x="13" y="-2"/>
      <point x="15" y="-4" type="curve"/>
      <point x="71" y="-1"/>
      <point x="102" y="4"/>
      <point x="138" y="4" type="curve"/>
      <point x="169" y="4"/>
      <point x="198" y="0"/>
      <point x="274" y="-4" type="curve"/>
      <point x="275" y="-2"/>
      <point x="276" y="5"/>
      <point x="276" y="12" type="curve"/>
      <point x="276" y="22"/>
      <point x="274" y="34"/>
      <point x="272" y="34" type="curve"/>
      <point x="252" y="34"/>
      <point x="194" y="47"/>
      <point x="182" y="70" type="curve"/>
      <point x="177" y="81"/>
      <point x="174" y="104"/>
      <point x="174" y="141" type="curve"/>
      <point x="174" y="569" type="line"/>
      <point x="146" y="559" type="line"/>
      <point x="581" y="18" type="line" smooth="yes"/>
      <point x="594" y="3"/>
      <point x="604" y="-5"/>
    </contour>
    <contour>
      <point x="373" y="0" type="move" name="bottom"/>
    </contour>
    <contour>
      <point x="373" y="658" type="move" name="top"/>
    </contour>
  </outline>
</glyph>
<glyph name="O" format="1">
  <advance width="733"/>
  <unicode hex="004F"/>
  <note>
    O
  </note>
  <outline>
    <contour>
      <point x="367" y="-10" type="curve"/>
      <point x="545" y="-10"/>
      <point x="688" y="140"/>
      <point x="688" y="328" type="curve"/>
      <point x="688" y="516"/>
      <point x="544" y="668"/>
      <point x="367" y="668" type="curve"/>
      <point x="189" y="668"/>
      <point x="45" y="516"/>
      <point x="45" y="328" type="curve"/>
      <point x="45" y="140"/>
      <point x="188" y="-10"/>
    </contour>
    <contour>
      <point x="380" y="46" type="curve"/>
      <point x="270" y="46"/>
      <point x="201" y="187"/>
      <point x="201" y="349" type="curve"/>
      <point x="201" y="497"/>
      <point x="259" y="611"/>
      <point x="351" y="611" type="curve"/>
      <point x="462" y="611"/>
      <point x="532" y="471"/>
      <point x="532" y="310" type="curve"/>
      <point x="532" y="164"/>
      <point x="475" y="46"/>
    </contour>
    <contour>
      <point x="368" y="0" type="move" name="bottom"/>
    </contour>
    <contour>
      <point x="368" y="329" type="move" name="center"/>
    </contour>
    <contour>
      <point x="646" y="10" type="move" name="ogonek"/>
    </contour>
    <contour>
      <point x="368" y="658" type="move" name="top"/>
    </contour>
    <contour>
      <point x="40" y="658" type="move" name="topleft"/>
    </contour>
    <contour>
      <point x="695" y="658" type="move" name="topright"/>
    </contour>
  </outline>
</glyph>
<glyph name="P" format="1">
  <advance width="582"/>
  <unicode hex="0050"/>
  <note>
    P
  </note>
  <outline>
    <contour>
      <point x="181" y="659" type="curve"/>
      <point x="143" y="659"/>
      <point x="94" y="661"/>
      <point x="34" y="664" type="curve"/>
      <point x="32" y="662"/>
      <point x="31" y="656"/>
      <point x="31" y="645" type="curve"/>
      <point x="31" y="633"/>
      <point x="32" y="627"/>
      <point x="35" y="627" type="curve"/>
      <point x="53" y="627"/>
      <point x="99" y="608"/>
      <point x="102" y="599" type="curve"/>
      <point x="106" y="584"/>
      <point x="108" y="558"/>
      <point x="108" y="521" type="curve"/>
      <point x="108" y="143" type="line" smooth="yes"/>
      <point x="108" y="100"/>
      <point x="106" y="70"/>
      <point x="102" y="55" type="curve"/>
      <point x="99" y="47"/>
      <point x="57" y="33"/>
      <point x="36" y="33" type="curve"/>
      <point x="33" y="33"/>
      <point x="32" y="26"/>
      <point x="32" y="13" type="curve"/>
      <point x="32" y="4"/>
      <point x="33" y="-1"/>
      <point x="36" y="-4" type="curve"/>
      <point x="85" y="-2"/>
      <point x="133" y="2"/>
      <point x="182" y="2" type="curve"/>
      <point x="204" y="2"/>
      <point x="255" y="0"/>
      <point x="345" y="-4" type="curve"/>
      <point x="346" y="0"/>
      <point x="347" y="6"/>
      <point x="347" y="14" type="curve"/>
      <point x="347" y="27"/>
      <point x="346" y="33"/>
      <point x="343" y="33" type="curve"/>
      <point x="301" y="33"/>
      <point x="258" y="47"/>
      <point x="255" y="59" type="curve"/>
      <point x="250" y="80"/>
      <point x="248" y="107"/>
      <point x="248" y="141" type="curve"/>
      <point x="248" y="499" type="line" smooth="yes"/>
      <point x="248" y="558"/>
      <point x="252" y="591"/>
      <point x="260" y="597" type="curve"/>
      <point x="267" y="602"/>
      <point x="281" y="605"/>
      <point x="294" y="605" type="curve"/>
      <point x="365" y="605"/>
      <point x="398" y="559"/>
      <point x="398" y="468" type="curve"/>
      <point x="398" y="377"/>
      <point x="370" y="332"/>
      <point x="314" y="332" type="curve"/>
      <point x="293" y="332"/>
      <point x="278" y="335"/>
      <point x="268" y="340" type="curve"/>
      <point x="266" y="338"/>
      <point x="265" y="332"/>
      <point x="265" y="325" type="curve"/>
      <point x="265" y="316"/>
      <point x="270" y="307"/>
      <point x="271" y="306" type="curve"/>
      <point x="281" y="289"/>
      <point x="315" y="280"/>
      <point x="346" y="280" type="curve"/>
      <point x="453" y="280"/>
      <point x="550" y="360"/>
      <point x="550" y="469" type="curve"/>
      <point x="550" y="597"/>
      <point x="445" y="662"/>
      <point x="306" y="662" type="curve"/>
      <point x="279" y="662"/>
      <point x="222" y="659"/>
    </contour>
    <contour>
      <point x="291" y="0" type="move" name="bottom"/>
    </contour>
    <contour>
      <point x="291" y="658" type="move" name="top"/>
    </contour>
  </outline>
</glyph>
<glyph name="Q" format="1">
  <advance width="733"/>
  <unicode hex="0051"/>
  <note>
    Q
  </note>
  <outline>
    <contour>
      <point x="573" y="-143" type="curve"/>
      <point x="632" y="-143"/>
      <point x="713" y="-120"/>
      <point x="770" y="-89" type="curve"/>
      <point x="770" y="-84" type="line" smooth="yes"/>
      <point x="770" y="-71"/>
      <point x="766" y="-64"/>
      <point x="758" y="-64" type="curve"/>
      <point x="752" y="-64"/>
      <point x="706" y="-74"/>
      <point x="682" y="-74" type="curve"/>
      <point x="633" y="-74"/>
      <point x="592" y="-64"/>
      <point x="570" y="-53" type="curve"/>
      <point x="542" y="-40"/>
      <point x="497" y="-12"/>
      <point x="460" y="5" type="curve"/>
      <point x="573" y="37"/>
      <point x="688" y="157"/>
      <point x="688" y="328" type="curve"/>
      <point x="688" y="516"/>
      <point x="544" y="668"/>
      <point x="367" y="668" type="curve"/>
      <point x="189" y="668"/>
      <point x="45" y="515"/>
      <point x="45" y="328" type="curve"/>
      <point x="45" y="240"/>
      <point x="80" y="153"/>
      <point x="129" y="100" type="curve"/>
      <point x="178" y="47"/>
      <point x="230" y="15"/>
      <point x="278" y="0" type="curve"/>
      <point x="333" y="-17"/>
      <point x="416" y="-81"/>
      <point x="476" y="-115" type="curve"/>
      <point x="509" y="-134"/>
      <point x="541" y="-143"/>
    </contour>
    <contour>
      <point x="380" y="46" type="curve"/>
      <point x="270" y="46"/>
      <point x="201" y="187"/>
      <point x="201" y="349" type="curve"/>
      <point x="201" y="497"/>
      <point x="259" y="611"/>
      <point x="351" y="611" type="curve"/>
      <point x="462" y="611"/>
      <point x="532" y="471"/>
      <point x="532" y="310" type="curve"/>
      <point x="532" y="164"/>
      <point x="475" y="46"/>
    </contour>
    <contour>
      <point x="367" y="0" type="move" name="bottom"/>
    </contour>
    <contour>
      <point x="367" y="658" type="move" name="top"/>
    </contour>
  </outline>
</glyph>
<glyph name="R" format="1">
  <advance width="664"/>
  <unicode hex="0052"/>
  <note>
    R
  </note>
  <outline>
    <contour>
      <point x="297" y="605" type="curve"/>
      <point x="360" y="605"/>
      <point x="399" y="562"/>
      <point x="399" y="476" type="curve"/>
      <point x="399" y="396"/>
      <point x="363" y="348"/>
      <point x="285" y="348" type="curve"/>
      <point x="280" y="348" type="line" smooth="yes"/>
      <point x="269" y="348"/>
      <point x="257" y="349"/>
      <point x="248" y="351" type="curve"/>
      <point x="248" y="499" type="line" smooth="yes"/>
      <point x="248" y="559"/>
      <point x="251" y="592"/>
      <point x="258" y="597" type="curve"/>
      <point x="265" y="602"/>
      <point x="275" y="605"/>
    </contour>
    <contour>
      <point x="341" y="660" type="curve"/>
      <point x="288" y="660"/>
      <point x="197" y="659"/>
      <point x="181" y="659" type="curve"/>
      <point x="144" y="659"/>
      <point x="95" y="661"/>
      <point x="34" y="664" type="curve"/>
      <point x="32" y="662"/>
      <point x="31" y="656"/>
      <point x="31" y="645" type="curve"/>
      <point x="31" y="633"/>
      <point x="32" y="627"/>
      <point x="35" y="627" type="curve"/>
      <point x="50" y="627"/>
      <point x="98" y="610"/>
      <point x="102" y="599" type="curve"/>
      <point x="106" y="584"/>
      <point x="108" y="558"/>
      <point x="108" y="521" type="curve"/>
      <point x="108" y="143" type="line" smooth="yes"/>
      <point x="108" y="100"/>
      <point x="106" y="70"/>
      <point x="102" y="55" type="curve"/>
      <point x="98" y="44"/>
      <point x="52" y="33"/>
      <point x="36" y="33" type="curve"/>
      <point x="33" y="33"/>
      <point x="32" y="26"/>
      <point x="32" y="13" type="curve"/>
      <point x="32" y="4"/>
      <point x="33" y="-1"/>
      <point x="36" y="-4" type="curve"/>
      <point x="85" y="-1"/>
      <point x="133" y="2"/>
      <point x="182" y="2" type="curve"/>
      <point x="204" y="2"/>
      <point x="255" y="0"/>
      <point x="335" y="-4" type="curve"/>
      <point x="336" y="0"/>
      <point x="337" y="6"/>
      <point x="337" y="14" type="curve"/>
      <point x="337" y="27"/>
      <point x="336" y="33"/>
      <point x="333" y="33" type="curve"/>
      <point x="313" y="33"/>
      <point x="259" y="43"/>
      <point x="255" y="59" type="curve"/>
      <point x="250" y="80"/>
      <point x="248" y="107"/>
      <point x="248" y="141" type="curve"/>
      <point x="248" y="292" type="line"/>
      <point x="251" y="293"/>
      <point x="254" y="293"/>
      <point x="257" y="293" type="curve"/>
      <point x="267" y="293"/>
      <point x="275" y="287"/>
      <point x="279" y="281" type="curve"/>
      <point x="377" y="133" type="line" smooth="yes"/>
      <point x="441" y="37"/>
      <point x="505" y="-7"/>
      <point x="643" y="-7" type="curve"/>
      <point x="657" y="-7"/>
      <point x="669" y="-6"/>
      <point x="678" y="-5" type="curve"/>
      <point x="681" y="1"/>
      <point x="682" y="8"/>
      <point x="682" y="15" type="curve"/>
      <point x="682" y="24"/>
      <point x="681" y="30"/>
      <point x="678" y="33" type="curve"/>
      <point x="624" y="33"/>
      <point x="576" y="88"/>
      <point x="524" y="156" type="curve"/>
      <point x="481" y="212"/>
      <point x="444" y="270"/>
      <point x="401" y="319" type="curve"/>
      <point x="398" y="303" type="line"/>
      <point x="512" y="342"/>
      <point x="551" y="408"/>
      <point x="551" y="494" type="curve"/>
      <point x="551" y="594"/>
      <point x="471" y="660"/>
    </contour>
    <contour>
      <point x="360" y="0" type="move" name="bottom"/>
    </contour>
    <contour>
      <point x="360" y="658" type="move" name="top"/>
    </contour>
  </outline>
</glyph>
<glyph name="S" format="1">
  <advance width="497"/>
  <unicode hex="0053"/>
  <note>
    S
  </note>
  <outline>
    <contour>
      <point x="38" y="486" type="curve"/>
      <point x="38" y="405"/>
      <point x="65" y="363"/>
      <point x="189" y="286" type="curve"/>
      <point x="294" y="221"/>
      <point x="324" y="188"/>
      <point x="324" y="136" type="curve"/>
      <point x="324" y="83"/>
      <point x="291" y="46"/>
      <point x="231" y="46" type="curve"/>
      <point x="143" y="46"/>
      <point x="93" y="109"/>
      <point x="74" y="186" type="curve"/>
      <point x="73" y="190"/>
      <point x="64" y="192"/>
      <point x="48" y="192" type="curve"/>
      <point x="33" y="192"/>
      <point x="26" y="189"/>
      <point x="24" y="182" type="curve"/>
      <point x="24" y="151"/>
      <point x="36" y="59"/>
      <point x="47" y="16" type="curve"/>
      <point x="121" y="1"/>
      <point x="161" y="-10"/>
      <point x="218" y="-10" type="curve"/>
      <point x="347" y="-10"/>
      <point x="463" y="60"/>
      <point x="463" y="182" type="curve"/>
      <point x="463" y="264"/>
      <point x="431" y="305"/>
      <point x="301" y="383" type="curve"/>
      <point x="196" y="446"/>
      <point x="171" y="483"/>
      <point x="171" y="530" type="curve"/>
      <point x="171" y="584"/>
      <point x="207" y="614"/>
      <point x="255" y="614" type="curve"/>
      <point x="323" y="614"/>
      <point x="362" y="565"/>
      <point x="384" y="473" type="curve"/>
      <point x="385" y="468"/>
      <point x="393" y="466"/>
      <point x="407" y="466" type="curve"/>
      <point x="419" y="466"/>
      <point x="427" y="469"/>
      <point x="430" y="476" type="curve"/>
      <point x="430" y="522"/>
      <point x="426" y="577"/>
      <point x="419" y="642" type="curve"/>
      <point x="360" y="662"/>
      <point x="307" y="670"/>
      <point x="271" y="670" type="curve"/>
      <point x="140" y="670"/>
      <point x="38" y="584"/>
    </contour>
    <contour>
      <point x="249" y="0" type="move" name="bottom"/>
    </contour>
    <contour>
      <point x="249" y="658" type="move" name="top"/>
    </contour>
  </outline>
</glyph>
<glyph name="T" format="1">
  <advance width="654"/>
  <unicode hex="0054"/>
  <note>
    T
  </note>
  <outline>
    <contour>
      <point x="99" y="663" type="curve"/>
      <point x="78" y="664"/>
      <point x="56" y="668"/>
      <point x="30" y="674" type="curve"/>
      <point x="11" y="511" type="line"/>
      <point x="16" y="506"/>
      <point x="25" y="504"/>
      <point x="40" y="504" type="curve"/>
      <point x="46" y="504"/>
      <point x="49" y="506"/>
      <point x="50" y="509" type="curve"/>
      <point x="68" y="577"/>
      <point x="100" y="607"/>
      <point x="157" y="607" type="curve"/>
      <point x="214" y="607"/>
      <point x="242" y="607"/>
      <point x="249" y="593" type="curve"/>
      <point x="254" y="584"/>
      <point x="257" y="549"/>
      <point x="257" y="497" type="curve"/>
      <point x="257" y="135" type="line" smooth="yes"/>
      <point x="257" y="102"/>
      <point x="255" y="76"/>
      <point x="250" y="58" type="curve"/>
      <point x="247" y="49"/>
      <point x="204" y="33"/>
      <point x="164" y="33" type="curve"/>
      <point x="162" y="33"/>
      <point x="161" y="26"/>
      <point x="161" y="12" type="curve"/>
      <point x="161" y="4"/>
      <point x="162" y="-1"/>
      <point x="165" y="-4" type="curve"/>
      <point x="214" y="-2"/>
      <point x="294" y="4"/>
      <point x="330" y="4" type="curve"/>
      <point x="379" y="4"/>
      <point x="437" y="-2"/>
      <point x="489" y="-4" type="curve"/>
      <point x="490" y="0"/>
      <point x="491" y="6"/>
      <point x="491" y="14" type="curve"/>
      <point x="491" y="27"/>
      <point x="490" y="33"/>
      <point x="487" y="33" type="curve"/>
      <point x="451" y="33"/>
      <point x="407" y="51"/>
      <point x="405" y="58" type="curve"/>
      <point x="400" y="79"/>
      <point x="397" y="106"/>
      <point x="397" y="139" type="curve"/>
      <point x="397" y="500" type="line" smooth="yes"/>
      <point x="397" y="541"/>
      <point x="400" y="574"/>
      <point x="405" y="593" type="curve"/>
      <point x="408" y="605"/>
      <point x="446" y="607"/>
      <point x="500" y="607" type="curve"/>
      <point x="555" y="607"/>
      <point x="590" y="574"/>
      <point x="607" y="508" type="curve"/>
      <point x="608" y="505"/>
      <point x="611" y="503"/>
      <point x="617" y="503" type="curve"/>
      <point x="632" y="503"/>
      <point x="641" y="505"/>
      <point x="646" y="510" type="curve"/>
      <point x="627" y="674" type="line"/>
      <point x="601" y="668"/>
      <point x="579" y="664"/>
      <point x="558" y="663" type="curve"/>
      <point x="495" y="660"/>
      <point x="391" y="657"/>
      <point x="328" y="657" type="curve"/>
      <point x="265" y="657"/>
      <point x="162" y="660"/>
    </contour>
    <contour>
      <point x="330" y="0" type="move" name="bottom"/>
    </contour>
    <contour>
      <point x="330" y="330" type="move" name="stroke"/>
    </contour>
    <contour>
      <point x="330" y="658" type="move" name="top"/>
    </contour>
  </outline>
</glyph>
<glyph name="U" format="1">
  <advance width="735"/>
  <unicode hex="0055"/>
  <note>
    U
  </note>
  <outline>
    <contour>
      <point x="177" y="656" type="curve"/>
      <point x="152" y="656"/>
      <point x="114" y="658"/>
      <point x="32" y="662" type="curve"/>
      <point x="31" y="661"/>
      <point x="30" y="654"/>
      <point x="30" y="642" type="curve"/>
      <point x="30" y="631"/>
      <point x="31" y="625"/>
      <point x="34" y="625" type="curve"/>
      <point x="51" y="625"/>
      <point x="90" y="609"/>
      <point x="96" y="600" type="curve"/>
      <point x="101" y="591"/>
      <point x="104" y="565"/>
      <point x="104" y="522" type="curve"/>
      <point x="104" y="291" type="line" smooth="yes"/>
      <point x="104" y="86"/>
      <point x="199" y="-5"/>
      <point x="383" y="-5" type="curve"/>
      <point x="535" y="-5"/>
      <point x="631" y="96"/>
      <point x="631" y="281" type="curve"/>
      <point x="631" y="519" type="line" smooth="yes"/>
      <point x="631" y="556"/>
      <point x="636" y="581"/>
      <point x="645" y="592" type="curve"/>
      <point x="664" y="614"/>
      <point x="691" y="625"/>
      <point x="728" y="625" type="curve"/>
      <point x="731" y="625"/>
      <point x="733" y="631"/>
      <point x="733" y="644" type="curve"/>
      <point x="733" y="651"/>
      <point x="732" y="657"/>
      <point x="729" y="662" type="curve"/>
      <point x="713" y="661"/>
      <point x="638" y="654"/>
      <point x="605" y="654" type="curve"/>
      <point x="578" y="654"/>
      <point x="534" y="657"/>
      <point x="473" y="662" type="curve"/>
      <point x="472" y="661"/>
      <point x="471" y="656"/>
      <point x="471" y="648" type="curve"/>
      <point x="471" y="635"/>
      <point x="473" y="625"/>
      <point x="476" y="625" type="curve"/>
      <point x="499" y="625"/>
      <point x="545" y="608"/>
      <point x="554" y="596" type="curve"/>
      <point x="563" y="586"/>
      <point x="567" y="562"/>
      <point x="567" y="524" type="curve"/>
      <point x="567" y="286" type="line" smooth="yes"/>
      <point x="567" y="138"/>
      <point x="507" y="75"/>
      <point x="412" y="75" type="curve"/>
      <point x="303" y="75"/>
      <point x="244" y="135"/>
      <point x="244" y="259" type="curve"/>
      <point x="244" y="516" type="line" smooth="yes"/>
      <point x="244" y="555"/>
      <point x="246" y="583"/>
      <point x="251" y="601" type="curve"/>
      <point x="253" y="608"/>
      <point x="299" y="625"/>
      <point x="316" y="625" type="curve"/>
      <point x="319" y="625"/>
      <point x="320" y="631"/>
      <point x="320" y="644" type="curve"/>
      <point x="320" y="650"/>
      <point x="319" y="656"/>
      <point x="317" y="662" type="curve"/>
      <point x="237" y="658"/>
      <point x="190" y="656"/>
    </contour>
    <contour>
      <point x="383" y="0" type="move" name="bottom"/>
    </contour>
    <contour>
      <point x="517" y="10" type="move" name="ogonek"/>
    </contour>
    <contour>
      <point x="383" y="658" type="move" name="top"/>
    </contour>
    <contour>
      <point x="739" y="658" type="move" name="topright"/>
    </contour>
  </outline>
</glyph>
<glyph name="V" format="1">
  <advance width="697"/>
  <unicode hex="0056"/>
  <note>
    V
  </note>
  <outline>
    <contour>
      <point x="143" y="654" type="curve"/>
      <point x="127" y="654"/>
      <point x="40" y="658"/>
      <point x="3" y="662" type="curve"/>
      <point x="2" y="660"/>
      <point x="1" y="653"/>
      <point x="1" y="642" type="curve"/>
      <point x="1" y="631"/>
      <point x="2" y="625"/>
      <point x="5" y="625" type="curve"/>
      <point x="24" y="625"/>
      <point x="70" y="613"/>
      <point x="78" y="592" type="curve"/>
      <point x="80" y="587"/>
      <point x="91" y="560"/>
      <point x="111" y="510" type="curve"/>
      <point x="312" y="12" type="line" smooth="yes"/>
      <point x="319" y="-4"/>
      <point x="330" y="-10"/>
      <point x="342" y="-10" type="curve"/>
      <point x="358" y="-10"/>
      <point x="371" y="3"/>
      <point x="378" y="18" type="curve"/>
      <point x="598" y="524" type="line" smooth="yes"/>
      <point x="617" y="568"/>
      <point x="631" y="592"/>
      <point x="636" y="597" type="curve"/>
      <point x="656" y="613"/>
      <point x="695" y="626"/>
      <point x="710" y="626" type="curve"/>
      <point x="711" y="626"/>
      <point x="712" y="633"/>
      <point x="712" y="647" type="curve"/>
      <point x="712" y="654"/>
      <point x="711" y="659"/>
      <point x="708" y="662" type="curve"/>
      <point x="647" y="659"/>
      <point x="610" y="655"/>
      <point x="594" y="655" type="curve"/>
      <point x="580" y="655"/>
      <point x="559" y="656"/>
      <point x="478" y="662" type="curve"/>
      <point x="477" y="658"/>
      <point x="476" y="651"/>
      <point x="476" y="641" type="curve"/>
      <point x="476" y="631"/>
      <point x="477" y="626"/>
      <point x="479" y="625" type="curve"/>
      <point x="519" y="625"/>
      <point x="550" y="610"/>
      <point x="550" y="590" type="curve"/>
      <point x="550" y="575"/>
      <point x="543" y="552"/>
      <point x="530" y="522" type="curve"/>
      <point x="374" y="157" type="line"/>
      <point x="403" y="157" type="line"/>
      <point x="255" y="523" type="line" smooth="yes"/>
      <point x="240" y="561"/>
      <point x="232" y="583"/>
      <point x="232" y="589" type="curve"/>
      <point x="232" y="613"/>
      <point x="275" y="625"/>
      <point x="298" y="625" type="curve"/>
      <point x="301" y="625"/>
      <point x="302" y="631"/>
      <point x="302" y="642" type="curve"/>
      <point x="302" y="653"/>
      <point x="301" y="659"/>
      <point x="298" y="662" type="curve"/>
      <point x="202" y="657"/>
      <point x="162" y="654"/>
    </contour>
    <contour>
      <point x="350" y="0" type="move" name="bottom"/>
    </contour>
    <contour>
      <point x="350" y="658" type="move" name="top"/>
    </contour>
  </outline>
</glyph>
<glyph name="X" format="1">
  <advance width="713"/>
  <unicode hex="0058"/>
  <note>
    X
  </note>
  <outline>
    <contour>
      <point x="5" y="-4" type="curve"/>
      <point x="85" y="0"/>
      <point x="128" y="2"/>
      <point x="133" y="2" type="curve"/>
      <point x="155" y="2"/>
      <point x="203" y="0"/>
      <point x="269" y="-4" type="curve"/>
      <point x="270" y="-1"/>
      <point x="271" y="4"/>
      <point x="271" y="12" type="curve"/>
      <point x="271" y="26"/>
      <point x="269" y="33"/>
      <point x="266" y="33" type="curve"/>
      <point x="231" y="33"/>
      <point x="192" y="46"/>
      <point x="192" y="66" type="curve"/>
      <point x="192" y="76"/>
      <point x="198" y="87"/>
      <point x="215" y="111" type="curve"/>
      <point x="328" y="269" type="line"/>
      <point x="451" y="82" type="line" smooth="yes"/>
      <point x="458" y="72"/>
      <point x="461" y="65"/>
      <point x="461" y="61" type="curve"/>
      <point x="461" y="45"/>
      <point x="422" y="33"/>
      <point x="405" y="33" type="curve"/>
      <point x="402" y="33"/>
      <point x="400" y="22"/>
      <point x="400" y="12" type="curve"/>
      <point x="400" y="5"/>
      <point x="401" y="-2"/>
      <point x="403" y="-4" type="curve"/>
      <point x="438" y="-2"/>
      <point x="536" y="2"/>
      <point x="561" y="2" type="curve"/>
      <point x="578" y="2"/>
      <point x="627" y="0"/>
      <point x="707" y="-4" type="curve"/>
      <point x="709" y="0"/>
      <point x="710" y="5"/>
      <point x="710" y="11" type="curve"/>
      <point x="710" y="26"/>
      <point x="709" y="33"/>
      <point x="707" y="33" type="curve"/>
      <point x="690" y="33"/>
      <point x="641" y="44"/>
      <point x="605" y="97" type="curve"/>
      <point x="432" y="356" type="line"/>
      <point x="605" y="586" type="line" smooth="yes"/>
      <point x="627" y="615"/>
      <point x="675" y="625"/>
      <point x="694" y="625" type="curve"/>
      <point x="697" y="625"/>
      <point x="698" y="630"/>
      <point x="698" y="641" type="curve"/>
      <point x="698" y="652"/>
      <point x="697" y="659"/>
      <point x="695" y="662" type="curve"/>
      <point x="615" y="658"/>
      <point x="571" y="656"/>
      <point x="562" y="656" type="curve"/>
      <point x="553" y="656"/>
      <point x="515" y="658"/>
      <point x="441" y="662" type="curve"/>
      <point x="439" y="660"/>
      <point x="437" y="652"/>
      <point x="437" y="644" type="curve"/>
      <point x="437" y="634"/>
      <point x="439" y="625"/>
      <point x="442" y="625" type="curve"/>
      <point x="478" y="625"/>
      <point x="516" y="612"/>
      <point x="516" y="599" type="curve"/>
      <point x="516" y="585"/>
      <point x="505" y="568"/>
      <point x="484" y="539" type="curve"/>
      <point x="394" y="414" type="line"/>
      <point x="283" y="582" type="line" smooth="yes"/>
      <point x="278" y="590"/>
      <point x="275" y="597"/>
      <point x="275" y="604" type="curve"/>
      <point x="276" y="617"/>
      <point x="308" y="625"/>
      <point x="328" y="625" type="curve"/>
      <point x="330" y="625"/>
      <point x="332" y="636"/>
      <point x="332" y="647" type="curve"/>
      <point x="332" y="654"/>
      <point x="331" y="660"/>
      <point x="330" y="662" type="curve"/>
      <point x="250" y="658"/>
      <point x="202" y="656"/>
      <point x="186" y="656" type="curve"/>
      <point x="164" y="656"/>
      <point x="89" y="659"/>
      <point x="45" y="662" type="curve"/>
      <point x="42" y="659"/>
      <point x="41" y="653"/>
      <point x="41" y="642" type="curve"/>
      <point x="41" y="631"/>
      <point x="42" y="625"/>
      <point x="45" y="625" type="curve"/>
      <point x="66" y="625"/>
      <point x="84" y="620"/>
      <point x="98" y="610" type="curve"/>
      <point x="106" y="605"/>
      <point x="124" y="579"/>
      <point x="152" y="537" type="curve"/>
      <point x="289" y="327" type="line"/>
      <point x="93" y="67" type="line" smooth="yes"/>
      <point x="78" y="47"/>
      <point x="22" y="33"/>
      <point x="5" y="33" type="curve"/>
      <point x="2" y="33"/>
      <point x="1" y="25"/>
      <point x="1" y="10" type="curve"/>
      <point x="1" y="9"/>
      <point x="2" y="4"/>
    </contour>
    <contour>
      <point x="358" y="0" type="move" name="bottom"/>
    </contour>
    <contour>
      <point x="358" y="658" type="move" name="top"/>
    </contour>
  </outline>
</glyph>
<glyph name="Y" format="1">
  <advance width="636"/>
  <unicode hex="0059"/>
  <note>
    Y
  </note>
  <outline>
    <contour>
      <point x="172" y="-4" type="curve"/>
      <point x="201" y="-2"/>
      <point x="281" y="4"/>
      <point x="317" y="4" type="curve"/>
      <point x="337" y="4"/>
      <point x="429" y="-1"/>
      <point x="456" y="-4" type="curve"/>
      <point x="457" y="2"/>
      <point x="458" y="9"/>
      <point x="458" y="14" type="curve"/>
      <point x="458" y="28"/>
      <point x="457" y="33"/>
      <point x="454" y="33" type="curve"/>
      <point x="438" y="33"/>
      <point x="394" y="51"/>
      <point x="392" y="58" type="curve"/>
      <point x="387" y="81"/>
      <point x="384" y="111"/>
      <point x="384" y="145" type="curve"/>
      <point x="384" y="304" type="line" smooth="yes"/>
      <point x="384" y="312"/>
      <point x="392" y="328"/>
      <point x="405" y="350" type="curve"/>
      <point x="530" y="548" type="line" smooth="yes"/>
      <point x="541" y="566"/>
      <point x="553" y="581"/>
      <point x="559" y="590" type="curve"/>
      <point x="575" y="610"/>
      <point x="608" y="626"/>
      <point x="637" y="626" type="curve"/>
      <point x="640" y="626"/>
      <point x="641" y="631"/>
      <point x="641" y="644" type="curve"/>
      <point x="641" y="650"/>
      <point x="640" y="656"/>
      <point x="638" y="662" type="curve"/>
      <point x="583" y="658"/>
      <point x="543" y="656"/>
      <point x="525" y="656" type="curve"/>
      <point x="504" y="656"/>
      <point x="464" y="658"/>
      <point x="404" y="662" type="curve"/>
      <point x="402" y="660"/>
      <point x="400" y="652"/>
      <point x="400" y="644" type="curve"/>
      <point x="400" y="633"/>
      <point x="402" y="625"/>
      <point x="405" y="625" type="curve"/>
      <point x="448" y="625"/>
      <point x="469" y="618"/>
      <point x="469" y="603" type="curve"/>
      <point x="469" y="593"/>
      <point x="464" y="576"/>
      <point x="456" y="564" type="curve"/>
      <point x="367" y="416" type="line" smooth="yes"/>
      <point x="362" y="407"/>
      <point x="358" y="403"/>
      <point x="354" y="403" type="curve"/>
      <point x="352" y="403"/>
      <point x="351" y="405"/>
      <point x="347" y="411" type="curve"/>
      <point x="250" y="582" type="line" smooth="yes"/>
      <point x="245" y="591"/>
      <point x="242" y="599"/>
      <point x="242" y="604" type="curve"/>
      <point x="243" y="615"/>
      <point x="269" y="625"/>
      <point x="295" y="625" type="curve"/>
      <point x="297" y="625"/>
      <point x="299" y="636"/>
      <point x="299" y="647" type="curve"/>
      <point x="299" y="653"/>
      <point x="298" y="660"/>
      <point x="297" y="662" type="curve"/>
      <point x="221" y="658"/>
      <point x="170" y="656"/>
      <point x="154" y="656" type="curve"/>
      <point x="135" y="656"/>
      <point x="72" y="659"/>
      <point x="12" y="662" type="curve"/>
      <point x="9" y="659"/>
      <point x="8" y="654"/>
      <point x="8" y="642" type="curve"/>
      <point x="8" y="630"/>
      <point x="9" y="625"/>
      <point x="12" y="625" type="curve"/>
      <point x="31" y="625"/>
      <point x="48" y="620"/>
      <point x="65" y="610" type="curve"/>
      <point x="78" y="603"/>
      <point x="92" y="584"/>
      <point x="119" y="537" type="curve"/>
      <point x="227" y="348" type="line" smooth="yes"/>
      <point x="235" y="334"/>
      <point x="244" y="314"/>
      <point x="244" y="309" type="curve"/>
      <point x="244" y="139" type="line" smooth="yes"/>
      <point x="244" y="100"/>
      <point x="242" y="74"/>
      <point x="237" y="58" type="curve"/>
      <point x="234" y="49"/>
      <point x="191" y="33"/>
      <point x="171" y="33" type="curve"/>
      <point x="169" y="33"/>
      <point x="168" y="26"/>
      <point x="168" y="12" type="curve"/>
      <point x="168" y="4"/>
      <point x="169" y="-1"/>
    </contour>
    <contour>
      <point x="312" y="0" type="move" name="bottom"/>
    </contour>
    <contour>
      <point x="312" y="658" type="move" name="top"/>
    </contour>
    <contour>
      <point x="-3" y="658" type="move" name="topleft"/>
    </contour>
  </outline>
</glyph>
<glyph name="Z" format="1">
  <advance width="645"/>
  <unicode hex="005A"/>
  <note>
    Z
  </note>
  <outline>
    <contour>
      <point x="351" y="656" type="curve"/>
      <point x="242" y="656" type="line"/>
      <point x="150" y="656"/>
      <point x="96" y="658"/>
      <point x="80" y="662" type="curve"/>
      <point x="76" y="627"/>
      <point x="66" y="567"/>
      <point x="50" y="482" type="curve"/>
      <point x="53" y="479"/>
      <point x="64" y="478"/>
      <point x="83" y="478" type="curve"/>
      <point x="90" y="478"/>
      <point x="95" y="480"/>
      <point x="96" y="484" type="curve"/>
      <point x="127" y="578"/>
      <point x="156" y="599"/>
      <point x="236" y="599" type="curve"/>
      <point x="452" y="599" type="line"/>
      <point x="432" y="637" type="line"/>
      <point x="39" y="43" type="line"/>
      <point x="36" y="40"/>
      <point x="35" y="34"/>
      <point x="35" y="26" type="curve"/>
      <point x="35" y="15"/>
      <point x="38" y="6"/>
      <point x="43" y="0" type="curve"/>
      <point x="560" y="0" type="line"/>
      <point x="564" y="35"/>
      <point x="602" y="140"/>
      <point x="614" y="174" type="curve"/>
      <point x="609" y="178"/>
      <point x="599" y="180"/>
      <point x="583" y="180" type="curve"/>
      <point x="576" y="180"/>
      <point x="572" y="178"/>
      <point x="570" y="174" type="curve"/>
      <point x="547" y="107"/>
      <point x="487" y="57"/>
      <point x="394" y="57" type="curve"/>
      <point x="195" y="57" type="line"/>
      <point x="195" y="32" type="line"/>
      <point x="593" y="633" type="line"/>
      <point x="593" y="644"/>
      <point x="587" y="665"/>
      <point x="583" y="666" type="curve"/>
      <point x="490" y="659"/>
      <point x="412" y="656"/>
    </contour>
    <contour>
      <point x="323" y="0" type="move" name="bottom"/>
    </contour>
    <contour>
      <point x="323" y="329" type="move" name="center"/>
    </contour>
    <contour>
      <point x="323" y="658" type="move" name="top"/>
    </contour>
  </outline>
</glyph>
<glyph name="bracketleft" format="1">
  <advance width="389"/>
  <unicode hex="005B"/>
  <note>
    bracketleft
  </note>
  <outline>
    <contour>
      <point x="231" y="-60" type="curve"/>
      <point x="231" y="720" type="line"/>
      <point x="261" y="722"/>
      <point x="317" y="732"/>
      <point x="356" y="747" type="curve"/>
      <point x="361" y="754"/>
      <point x="362" y="762"/>
      <point x="362" y="775" type="curve"/>
      <point x="362" y="783"/>
      <point x="360" y="790"/>
      <point x="356" y="793" type="curve"/>
      <point x="277" y="778"/>
      <point x="201" y="770"/>
      <point x="127" y="770" type="curve"/>
      <point x="114" y="770"/>
      <point x="108" y="763"/>
      <point x="108" y="751" type="curve"/>
      <point x="108" y="-91" type="line" smooth="yes"/>
      <point x="108" y="-103"/>
      <point x="114" y="-110"/>
      <point x="127" y="-110" type="curve"/>
      <point x="201" y="-110"/>
      <point x="277" y="-118"/>
      <point x="356" y="-133" type="curve"/>
      <point x="360" y="-130"/>
      <point x="362" y="-123"/>
      <point x="362" y="-115" type="curve"/>
      <point x="362" y="-102"/>
      <point x="361" y="-94"/>
      <point x="356" y="-87" type="curve"/>
      <point x="317" y="-72"/>
      <point x="261" y="-62"/>
    </contour>
  </outline>
</glyph>
<glyph name="backslash" format="1">
  <advance width="425"/>
  <unicode hex="005C"/>
  <note>
    backslash
  </note>
  <outline>
    <contour>
      <point x="101" y="755" type="line"/>
      <point x="20" y="755" type="line"/>
      <point x="322" y="-28" type="line"/>
      <point x="403" y="-28" type="line"/>
    </contour>
  </outline>
</glyph>
<glyph name="bracketright" format="1">
  <advance width="389"/>
  <unicode hex="005D"/>
  <note>
    bracketright
  </note>
  <outline>
    <contour>
      <point x="158" y="720" type="curve"/>
      <point x="158" y="-60" type="line"/>
      <point x="128" y="-62"/>
      <point x="72" y="-72"/>
      <point x="33" y="-87" type="curve"/>
      <point x="28" y="-94"/>
      <point x="27" y="-102"/>
      <point x="27" y="-115" type="curve"/>
      <point x="27" y="-123"/>
      <point x="29" y="-130"/>
      <point x="33" y="-133" type="curve"/>
      <point x="112" y="-118"/>
      <point x="188" y="-110"/>
      <point x="262" y="-110" type="curve"/>
      <point x="275" y="-110"/>
      <point x="281" y="-103"/>
      <point x="281" y="-91" type="curve"/>
      <point x="281" y="751" type="line" smooth="yes"/>
      <point x="281" y="763"/>
      <point x="275" y="770"/>
      <point x="262" y="770" type="curve"/>
      <point x="188" y="770"/>
      <point x="112" y="778"/>
      <point x="33" y="793" type="curve"/>
      <point x="29" y="790"/>
      <point x="27" y="783"/>
      <point x="27" y="775" type="curve"/>
      <point x="27" y="762"/>
      <point x="28" y="754"/>
      <point x="33" y="747" type="curve"/>
      <point x="72" y="732"/>
      <point x="128" y="722"/>
    </contour>
  </outline>
</glyph>
<glyph name="asciicircum" format="1">
  <advance width="558"/>
  <unicode hex="005E"/>
  <note>
    asciicircum
  </note>
  <outline>
    <contour>
      <point x="435" y="119" type="line"/>
      <point x="508" y="154" type="line"/>
      <point x="315" y="534" type="line"/>
      <point x="243" y="534" type="line"/>
      <point x="50" y="154" type="line"/>
      <point x="123" y="119" type="line"/>
      <point x="299" y="468" type="line"/>
      <point x="259" y="468" type="line"/>
    </contour>
  </outline>
</glyph>
<glyph name="underscore" format="1">
  <advance width="500"/>
  <unicode hex="005F"/>
  <note>
    underscore
  </note>
  <outline>
    <contour>
      <point x="470" y="0" type="curve"/>
      <point x="41" y="0" type="line" smooth="yes"/>
      <point x="32" y="0"/>
      <point x="27" y="-38"/>
      <point x="27" y="-53" type="curve"/>
      <point x="27" y="-63"/>
      <point x="28" y="-70"/>
      <point x="30" y="-74" type="curve"/>
      <point x="459" y="-74" type="line" smooth="yes"/>
      <point x="468" y="-74"/>
      <point x="473" y="-36"/>
      <point x="473" y="-21" type="curve"/>
      <point x="473" y="-11"/>
      <point x="472" y="-4"/>
    </contour>
  </outline>
</glyph>
<glyph name="a" format="1">
  <advance width="485"/>
  <unicode hex="0061"/>
  <note>
    a
  </note>
  <outline>
    <contour>
      <point x="155" y="-7" type="curve"/>
      <point x="207" y="-7"/>
      <point x="249" y="20"/>
      <point x="300" y="77" type="curve"/>
      <point x="267" y="65" type="line"/>
      <point x="295" y="21"/>
      <point x="317" y="-6"/>
      <point x="363" y="-6" type="curve"/>
      <point x="395" y="-6"/>
      <point x="445" y="14"/>
      <point x="468" y="36" type="curve"/>
      <point x="473" y="44"/>
      <point x="475" y="56"/>
      <point x="475" y="73" type="curve"/>
      <point x="475" y="80"/>
      <point x="473" y="85"/>
      <point x="468" y="88" type="curve"/>
      <point x="457" y="79"/>
      <point x="445" y="75"/>
      <point x="434" y="75" type="curve"/>
      <point x="411" y="75"/>
      <point x="400" y="95"/>
      <point x="400" y="133" type="curve"/>
      <point x="400" y="318" type="line" smooth="yes"/>
      <point x="400" y="416"/>
      <point x="356" y="447"/>
      <point x="274" y="447" type="curve"/>
      <point x="174" y="447"/>
      <point x="41" y="368"/>
      <point x="41" y="312" type="curve"/>
      <point x="41" y="293"/>
      <point x="56" y="275"/>
      <point x="98" y="275" type="curve"/>
      <point x="135" y="275"/>
      <point x="157" y="294"/>
      <point x="160" y="322" type="curve"/>
      <point x="165" y="372"/>
      <point x="184" y="392"/>
      <point x="221" y="392" type="curve"/>
      <point x="252" y="392"/>
      <point x="270" y="370"/>
      <point x="270" y="334" type="curve"/>
      <point x="270" y="271" type="line" smooth="yes"/>
      <point x="270" y="263"/>
      <point x="267" y="258"/>
      <point x="261" y="256" type="curve"/>
      <point x="133" y="215" type="line" smooth="yes"/>
      <point x="68" y="194"/>
      <point x="32" y="153"/>
      <point x="32" y="98" type="curve"/>
      <point x="32" y="34"/>
      <point x="84" y="-7"/>
    </contour>
    <contour>
      <point x="219" y="70" type="curve"/>
      <point x="184" y="70"/>
      <point x="162" y="94"/>
      <point x="162" y="126" type="curve"/>
      <point x="162" y="155"/>
      <point x="179" y="176"/>
      <point x="210" y="187" type="curve"/>
      <point x="270" y="208" type="line"/>
      <point x="270" y="101" type="line" smooth="yes"/>
      <point x="270" y="80"/>
      <point x="243" y="70"/>
    </contour>
    <contour>
      <point x="247" y="0" type="move" name="bottom"/>
    </contour>
    <contour>
      <point x="395" y="10" type="move" name="ogonek"/>
    </contour>
    <contour>
      <point x="247" y="439" type="move" name="top"/>
    </contour>
  </outline>
</glyph>
<glyph name="b" format="1">
  <advance width="552"/>
  <unicode hex="0062"/>
  <note>
    b
  </note>
  <outline>
    <contour>
      <point x="312" y="447" type="curve"/>
      <point x="283" y="447"/>
      <point x="251" y="439"/>
      <point x="209" y="409" type="curve"/>
      <point x="209" y="577" type="line" smooth="yes"/>
      <point x="209" y="614"/>
      <point x="213" y="648"/>
      <point x="220" y="678" type="curve"/>
      <point x="218" y="687"/>
      <point x="212" y="695"/>
      <point x="207" y="695" type="curve"/>
      <point x="137" y="675"/>
      <point x="75" y="662"/>
      <point x="12" y="656" type="curve"/>
      <point x="8" y="656"/>
      <point x="6" y="650"/>
      <point x="6" y="637" type="curve"/>
      <point x="6" y="624"/>
      <point x="8" y="617"/>
      <point x="12" y="617" type="curve"/>
      <point x="21" y="617" type="line" smooth="yes"/>
      <point x="52" y="617"/>
      <point x="70" y="612"/>
      <point x="73" y="601" type="curve"/>
      <point x="77" y="581"/>
      <point x="79" y="557"/>
      <point x="79" y="529" type="curve"/>
      <point x="79" y="128" type="line" smooth="yes"/>
      <point x="79" y="91"/>
      <point x="71" y="22"/>
      <point x="71" y="15" type="curve"/>
      <point x="77" y="4"/>
      <point x="93" y="-8"/>
      <point x="104" y="-9" type="curve"/>
      <point x="121" y="-1"/>
      <point x="143" y="10"/>
      <point x="161" y="10" type="curve"/>
      <point x="192" y="10"/>
      <point x="226" y="-8"/>
      <point x="287" y="-8" type="curve"/>
      <point x="410" y="-8"/>
      <point x="526" y="105"/>
      <point x="526" y="226" type="curve"/>
      <point x="526" y="349"/>
      <point x="431" y="447"/>
    </contour>
    <contour>
      <point x="256" y="375" type="curve"/>
      <point x="330" y="375"/>
      <point x="382" y="298"/>
      <point x="382" y="193" type="curve"/>
      <point x="382" y="92"/>
      <point x="345" y="46"/>
      <point x="284" y="46" type="curve"/>
      <point x="241" y="46"/>
      <point x="209" y="78"/>
      <point x="209" y="119" type="curve"/>
      <point x="209" y="334" type="line" smooth="yes"/>
      <point x="209" y="356"/>
      <point x="223" y="375"/>
    </contour>
    <contour>
      <point x="268" y="0" type="move" name="bottom"/>
    </contour>
    <contour>
      <point x="268" y="658" type="move" name="top"/>
    </contour>
  </outline>
</glyph>
<glyph name="c" format="1">
  <advance width="452"/>
  <unicode hex="0063"/>
  <note>
    c
  </note>
  <outline>
    <contour>
      <point x="271" y="447" type="curve"/>
      <point x="130" y="447"/>
      <point x="26" y="349"/>
      <point x="26" y="216" type="curve"/>
      <point x="26" y="87"/>
      <point x="122" y="-7"/>
      <point x="249" y="-7" type="curve"/>
      <point x="332" y="-7"/>
      <point x="398" y="39"/>
      <point x="423" y="90" type="curve"/>
      <point x="426" y="95"/>
      <point x="427" y="101"/>
      <point x="427" y="111" type="curve"/>
      <point x="427" y="120"/>
      <point x="423" y="125"/>
      <point x="418" y="129" type="curve"/>
      <point x="382" y="95"/>
      <point x="345" y="84"/>
      <point x="301" y="84" type="curve"/>
      <point x="221" y="84"/>
      <point x="168" y="144"/>
      <point x="168" y="255" type="curve"/>
      <point x="168" y="335"/>
      <point x="200" y="392"/>
      <point x="253" y="392" type="curve"/>
      <point x="279" y="392"/>
      <point x="295" y="380"/>
      <point x="307" y="351" type="curve"/>
      <point x="321" y="317"/>
      <point x="342" y="301"/>
      <point x="371" y="301" type="curve"/>
      <point x="405" y="301"/>
      <point x="428" y="326"/>
      <point x="428" y="358" type="curve"/>
      <point x="428" y="406"/>
      <point x="371" y="447"/>
    </contour>
    <contour>
      <point x="231" y="0" type="move" name="bottom"/>
    </contour>
    <contour>
      <point x="231" y="439" type="move" name="top"/>
    </contour>
  </outline>
</glyph>
<glyph name="e" format="1">
  <advance width="463"/>
  <unicode hex="0065"/>
  <note>
    e
  </note>
  <outline>
    <contour>
      <point x="299" y="275" type="curve"/>
      <point x="146" y="275" type="line"/>
      <point x="145" y="220" type="line"/>
      <point x="410" y="220" type="line" smooth="yes"/>
      <point x="434" y="220"/>
      <point x="442" y="228"/>
      <point x="442" y="255" type="curve"/>
      <point x="442" y="364"/>
      <point x="360" y="447"/>
      <point x="248" y="447" type="curve"/>
      <point x="133" y="447"/>
      <point x="26" y="361"/>
      <point x="26" y="216" type="curve"/>
      <point x="26" y="87"/>
      <point x="122" y="-7"/>
      <point x="254" y="-7" type="curve"/>
      <point x="341" y="-7"/>
      <point x="407" y="39"/>
      <point x="432" y="90" type="curve"/>
      <point x="435" y="95"/>
      <point x="436" y="102"/>
      <point x="436" y="111" type="curve"/>
      <point x="436" y="120"/>
      <point x="432" y="125"/>
      <point x="427" y="129" type="curve"/>
      <point x="402" y="99"/>
      <point x="359" y="84"/>
      <point x="316" y="84" type="curve"/>
      <point x="216" y="84"/>
      <point x="163" y="143"/>
      <point x="163" y="267" type="curve"/>
      <point x="163" y="346"/>
      <point x="193" y="392"/>
      <point x="243" y="392" type="curve"/>
      <point x="284" y="392"/>
      <point x="313" y="348"/>
      <point x="313" y="294" type="curve"/>
      <point x="313" y="281"/>
      <point x="308" y="275"/>
    </contour>
    <contour>
      <point x="232" y="0" type="move" name="bottom"/>
    </contour>
    <contour>
      <point x="392" y="10" type="move" name="ogonek"/>
    </contour>
    <contour>
      <point x="232" y="439" type="move" name="top"/>
    </contour>
  </outline>
</glyph>
<glyph name="f" format="1">
  <advance width="331"/>
  <unicode hex="0066"/>
  <note>
    f
  </note>
  <outline>
    <contour>
      <point x="17" y="-4" type="curve"/>
      <point x="58" y="-1"/>
      <point x="136" y="4"/>
      <point x="154" y="4" type="curve"/>
      <point x="185" y="4"/>
      <point x="281" y="-3"/>
      <point x="296" y="-4" type="curve"/>
      <point x="297" y="-2"/>
      <point x="298" y="5"/>
      <point x="298" y="11" type="curve"/>
      <point x="298" y="22"/>
      <point x="296" y="33"/>
      <point x="294" y="33" type="curve"/>
      <point x="277" y="33"/>
      <point x="228" y="51"/>
      <point x="226" y="58" type="curve"/>
      <point x="221" y="76"/>
      <point x="219" y="106"/>
      <point x="219" y="149" type="curve"/>
      <point x="219" y="377" type="line"/>
      <point x="217" y="407" type="line"/>
      <point x="217" y="475" type="line" smooth="yes"/>
      <point x="217" y="582"/>
      <point x="244" y="650"/>
      <point x="286" y="650" type="curve"/>
      <point x="328" y="650"/>
      <point x="328" y="565"/>
      <point x="378" y="565" type="curve"/>
      <point x="407" y="565"/>
      <point x="428" y="587"/>
      <point x="428" y="615" type="curve"/>
      <point x="428" y="662"/>
      <point x="379" y="696"/>
      <point x="311" y="696" type="curve"/>
      <point x="199" y="696"/>
      <point x="89" y="575"/>
      <point x="89" y="453" type="curve"/>
      <point x="89" y="134" type="line" smooth="yes"/>
      <point x="89" y="103"/>
      <point x="87" y="78"/>
      <point x="82" y="58" type="curve"/>
      <point x="80" y="50"/>
      <point x="35" y="33"/>
      <point x="17" y="33" type="curve"/>
      <point x="14" y="33"/>
      <point x="13" y="28"/>
      <point x="13" y="17" type="curve"/>
      <point x="13" y="6"/>
      <point x="14" y="-1"/>
    </contour>
    <contour>
      <point x="17" y="370" type="curve"/>
      <point x="328" y="370" type="line"/>
      <point x="336" y="386"/>
      <point x="340" y="404"/>
      <point x="340" y="423" type="curve"/>
      <point x="340" y="428"/>
      <point x="338" y="430"/>
      <point x="335" y="430" type="curve"/>
      <point x="56" y="430" type="line" smooth="yes"/>
      <point x="38" y="430"/>
      <point x="14" y="399"/>
      <point x="14" y="376" type="curve"/>
      <point x="14" y="372"/>
      <point x="15" y="370"/>
    </contour>
    <contour>
      <point x="154" y="0" type="move" name="bottom"/>
    </contour>
    <contour>
      <point x="166" y="658" type="move" name="top"/>
    </contour>
  </outline>
</glyph>
<glyph name="g" format="1">
  <advance width="485"/>
  <unicode hex="0067"/>
  <note>
    g
  </note>
  <outline>
    <contour>
      <point x="225" y="-227" type="curve"/>
      <point x="339" y="-227"/>
      <point x="473" y="-132"/>
      <point x="469" y="-27" type="curve"/>
      <point x="468" y="1"/>
      <point x="452" y="23"/>
      <point x="421" y="40" type="curve"/>
      <point x="388" y="58"/>
      <point x="325" y="72"/>
      <point x="251" y="72" type="curve"/>
      <point x="171" y="72"/>
      <point x="136" y="83"/>
      <point x="136" y="111" type="curve"/>
      <point x="136" y="121"/>
      <point x="146" y="143"/>
      <point x="171" y="158" type="curve"/>
      <point x="140" y="169" type="line"/>
      <point x="75" y="134"/>
      <point x="43" y="95"/>
      <point x="43" y="59" type="curve"/>
      <point x="43" y="21"/>
      <point x="90" y="-19"/>
      <point x="136" y="-21" type="curve"/>
      <point x="158" y="-23" type="line"/>
      <point x="315" y="-21"/>
      <point x="364" y="-37"/>
      <point x="364" y="-85" type="curve"/>
      <point x="364" y="-140"/>
      <point x="310" y="-181"/>
      <point x="240" y="-181" type="curve"/>
      <point x="183" y="-181"/>
      <point x="127" y="-141"/>
      <point x="127" y="-92" type="curve"/>
      <point x="127" y="-61"/>
      <point x="146" y="-32"/>
      <point x="194" y="-17" type="curve"/>
      <point x="153" y="-11" type="line"/>
      <point x="76" y="-35"/>
      <point x="27" y="-77"/>
      <point x="27" y="-122" type="curve"/>
      <point x="27" y="-180"/>
      <point x="106" y="-227"/>
    </contour>
    <contour>
      <point x="230" y="187" type="curve"/>
      <point x="194" y="187"/>
      <point x="167" y="239"/>
      <point x="167" y="309" type="curve"/>
      <point x="167" y="367"/>
      <point x="186" y="401"/>
      <point x="219" y="401" type="curve"/>
      <point x="253" y="401"/>
      <point x="282" y="345"/>
      <point x="282" y="279" type="curve"/>
      <point x="282" y="222"/>
      <point x="262" y="187"/>
    </contour>
    <contour>
      <point x="218" y="139" type="curve"/>
      <point x="324" y="139"/>
      <point x="402" y="213"/>
      <point x="402" y="303" type="curve"/>
      <point x="402" y="338"/>
      <point x="389" y="359"/>
      <point x="365" y="388" type="curve"/>
      <point x="361" y="368" type="line"/>
      <point x="456" y="368" type="line" smooth="yes"/>
      <point x="461" y="368"/>
      <point x="466" y="382"/>
      <point x="466" y="395" type="curve"/>
      <point x="466" y="408"/>
      <point x="463" y="423"/>
      <point x="460" y="424" type="curve"/>
      <point x="382" y="424" type="line" smooth="yes"/>
      <point x="334" y="424"/>
      <point x="277" y="449"/>
      <point x="225" y="449" type="curve"/>
      <point x="116" y="449"/>
      <point x="43" y="386"/>
      <point x="43" y="292" type="curve"/>
      <point x="43" y="199"/>
      <point x="136" y="139"/>
    </contour>
    <contour>
      <point x="243" y="-223" type="move" name="bottom"/>
    </contour>
    <contour>
      <point x="243" y="439" type="move" name="top"/>
    </contour>
  </outline>
</glyph>
<glyph name="h" format="1">
  <advance width="590"/>
  <unicode hex="0068"/>
  <note>
    h
  </note>
  <outline>
    <contour>
      <point x="365" y="446" type="curve"/>
      <point x="309" y="446"/>
      <point x="260" y="415"/>
      <point x="217" y="374" type="curve"/>
      <point x="217" y="577" type="line" smooth="yes"/>
      <point x="217" y="614"/>
      <point x="221" y="648"/>
      <point x="229" y="678" type="curve"/>
      <point x="228" y="685"/>
      <point x="221" y="694"/>
      <point x="215" y="695" type="curve"/>
      <point x="155" y="677"/>
      <point x="90" y="664"/>
      <point x="21" y="656" type="curve"/>
      <point x="17" y="656"/>
      <point x="15" y="650"/>
      <point x="15" y="639" type="curve"/>
      <point x="15" y="624"/>
      <point x="17" y="617"/>
      <point x="21" y="617" type="curve"/>
      <point x="30" y="617" type="line" smooth="yes"/>
      <point x="42" y="617"/>
      <point x="70" y="613"/>
      <point x="76" y="604" type="curve"/>
      <point x="84" y="592"/>
      <point x="87" y="563"/>
      <point x="87" y="519" type="curve"/>
      <point x="87" y="134" type="line" smooth="yes"/>
      <point x="87" y="103"/>
      <point x="85" y="78"/>
      <point x="80" y="58" type="curve"/>
      <point x="77" y="49"/>
      <point x="30" y="33"/>
      <point x="15" y="33" type="curve"/>
      <point x="12" y="33"/>
      <point x="11" y="28"/>
      <point x="11" y="17" type="curve"/>
      <point x="11" y="6"/>
      <point x="12" y="-1"/>
      <point x="15" y="-4" type="curve"/>
      <point x="30" y="-3"/>
      <point x="120" y="4"/>
      <point x="152" y="4" type="curve"/>
      <point x="183" y="4"/>
      <point x="265" y="-3"/>
      <point x="281" y="-4" type="curve"/>
      <point x="282" y="-2"/>
      <point x="283" y="4"/>
      <point x="283" y="11" type="curve"/>
      <point x="283" y="22"/>
      <point x="281" y="33"/>
      <point x="279" y="33" type="curve"/>
      <point x="265" y="33"/>
      <point x="226" y="51"/>
      <point x="224" y="58" type="curve"/>
      <point x="219" y="76"/>
      <point x="217" y="106"/>
      <point x="217" y="149" type="curve"/>
      <point x="216" y="292" type="line" smooth="yes"/>
      <point x="216" y="332"/>
      <point x="253" y="360"/>
      <point x="296" y="360" type="curve"/>
      <point x="341" y="360"/>
      <point x="375" y="330"/>
      <point x="375" y="243" type="curve"/>
      <point x="375" y="134" type="line" smooth="yes"/>
      <point x="375" y="103"/>
      <point x="373" y="78"/>
      <point x="368" y="58" type="curve"/>
      <point x="365" y="50"/>
      <point x="326" y="33"/>
      <point x="311" y="33" type="curve"/>
      <point x="308" y="33"/>
      <point x="307" y="28"/>
      <point x="307" y="17" type="curve"/>
      <point x="307" y="6"/>
      <point x="308" y="-1"/>
      <point x="311" y="-4" type="curve"/>
      <point x="327" y="-3"/>
      <point x="408" y="4"/>
      <point x="440" y="4" type="curve"/>
      <point x="471" y="4"/>
      <point x="562" y="-3"/>
      <point x="577" y="-4" type="curve"/>
      <point x="578" y="-2"/>
      <point x="579" y="4"/>
      <point x="579" y="11" type="curve"/>
      <point x="579" y="22"/>
      <point x="577" y="33"/>
      <point x="575" y="33" type="curve"/>
      <point x="563" y="33"/>
      <point x="515" y="49"/>
      <point x="512" y="58" type="curve"/>
      <point x="506" y="76"/>
      <point x="505" y="106"/>
      <point x="505" y="149" type="curve"/>
      <point x="505" y="243" type="line" smooth="yes"/>
      <point x="505" y="397"/>
      <point x="445" y="446"/>
    </contour>
    <contour>
      <point x="295" y="0" type="move" name="bottom"/>
    </contour>
    <contour>
      <point x="295" y="329" type="move" name="center"/>
    </contour>
    <contour>
      <point x="197" y="530" type="move" name="stroke"/>
    </contour>
    <contour>
      <point x="295" y="658" type="move" name="top"/>
    </contour>
  </outline>
</glyph>
<glyph name="k" format="1">
  <advance width="571"/>
  <unicode hex="006B"/>
  <note>
    k
  </note>
  <outline>
    <contour>
      <point x="13" y="-4" type="curve"/>
      <point x="30" y="-3"/>
      <point x="120" y="4"/>
      <point x="152" y="4" type="curve"/>
      <point x="183" y="4"/>
      <point x="264" y="-3"/>
      <point x="277" y="-4" type="curve"/>
      <point x="278" y="-2"/>
      <point x="279" y="4"/>
      <point x="279" y="11" type="curve"/>
      <point x="279" y="22"/>
      <point x="277" y="33"/>
      <point x="275" y="33" type="curve"/>
      <point x="263" y="34"/>
      <point x="226" y="51"/>
      <point x="224" y="58" type="curve"/>
      <point x="219" y="76"/>
      <point x="217" y="106"/>
      <point x="217" y="149" type="curve"/>
      <point x="217" y="202" type="line"/>
      <point x="230" y="205" type="line"/>
      <point x="351" y="57" type="line" smooth="yes"/>
      <point x="354" y="53"/>
      <point x="356" y="49"/>
      <point x="356" y="45" type="curve"/>
      <point x="356" y="39"/>
      <point x="333" y="33"/>
      <point x="315" y="33" type="curve"/>
      <point x="312" y="33"/>
      <point x="311" y="28"/>
      <point x="311" y="17" type="curve"/>
      <point x="311" y="6"/>
      <point x="312" y="-1"/>
      <point x="314" y="-4" type="curve"/>
      <point x="368" y="-1"/>
      <point x="432" y="3"/>
      <point x="451" y="3" type="curve"/>
      <point x="465" y="3"/>
      <point x="507" y="1"/>
      <point x="579" y="-3" type="curve"/>
      <point x="580" y="0"/>
      <point x="581" y="5"/>
      <point x="581" y="14" type="curve"/>
      <point x="581" y="27"/>
      <point x="579" y="33"/>
      <point x="576" y="33" type="curve"/>
      <point x="540" y="37"/>
      <point x="516" y="53"/>
      <point x="494" y="79" type="curve"/>
      <point x="330" y="272" type="line"/>
      <point x="301" y="232" type="line"/>
      <point x="412" y="337" type="line" smooth="yes"/>
      <point x="448" y="372"/>
      <point x="490" y="393"/>
      <point x="534" y="394" type="curve"/>
      <point x="537" y="394"/>
      <point x="538" y="403"/>
      <point x="538" y="411" type="curve"/>
      <point x="538" y="420"/>
      <point x="536" y="430"/>
      <point x="533" y="433" type="curve"/>
      <point x="503" y="431"/>
      <point x="468" y="430"/>
      <point x="429" y="430" type="curve"/>
      <point x="401" y="430"/>
      <point x="363" y="430"/>
      <point x="315" y="432" type="curve"/>
      <point x="312" y="430"/>
      <point x="311" y="425"/>
      <point x="311" y="416" type="curve"/>
      <point x="311" y="407"/>
      <point x="312" y="399"/>
      <point x="313" y="394" type="curve"/>
      <point x="354" y="391"/>
      <point x="359" y="387"/>
      <point x="359" y="378" type="curve"/>
      <point x="359" y="368"/>
      <point x="353" y="359"/>
      <point x="342" y="349" type="curve"/>
      <point x="251" y="261" type="line" smooth="yes"/>
      <point x="246" y="257"/>
      <point x="235" y="253"/>
      <point x="217" y="248" type="curve"/>
      <point x="217" y="577" type="line" smooth="yes"/>
      <point x="217" y="614"/>
      <point x="221" y="648"/>
      <point x="229" y="678" type="curve"/>
      <point x="228" y="685"/>
      <point x="221" y="694"/>
      <point x="215" y="695" type="curve"/>
      <point x="155" y="677"/>
      <point x="90" y="664"/>
      <point x="21" y="656" type="curve"/>
      <point x="17" y="656"/>
      <point x="15" y="650"/>
      <point x="15" y="639" type="curve"/>
      <point x="15" y="624"/>
      <point x="17" y="617"/>
      <point x="21" y="617" type="curve"/>
      <point x="30" y="617" type="line" smooth="yes"/>
      <point x="42" y="617"/>
      <point x="70" y="613"/>
      <point x="76" y="604" type="curve"/>
      <point x="84" y="592"/>
      <point x="87" y="563"/>
      <point x="87" y="519" type="curve"/>
      <point x="87" y="134" type="line" smooth="yes"/>
      <point x="87" y="103"/>
      <point x="85" y="78"/>
      <point x="80" y="58" type="curve"/>
      <point x="77" y="49"/>
      <point x="30" y="33"/>
      <point x="15" y="33" type="curve"/>
      <point x="12" y="33"/>
      <point x="11" y="28"/>
      <point x="11" y="17" type="curve"/>
      <point x="11" y="6"/>
      <point x="12" y="-1"/>
    </contour>
    <contour>
      <point x="308" y="0" type="move" name="bottom"/>
    </contour>
    <contour>
      <point x="308" y="658" type="move" name="top"/>
    </contour>
  </outline>
</glyph>
<glyph name="l" format="1">
  <advance width="298"/>
  <unicode hex="006C"/>
  <note>
    l
  </note>
  <outline>
    <contour>
      <point x="15" y="-4" type="curve"/>
      <point x="50" y="-1"/>
      <point x="120" y="4"/>
      <point x="152" y="4" type="curve"/>
      <point x="184" y="4"/>
      <point x="255" y="-1"/>
      <point x="290" y="-4" type="curve"/>
      <point x="291" y="-2"/>
      <point x="292" y="4"/>
      <point x="292" y="11" type="curve"/>
      <point x="292" y="22"/>
      <point x="290" y="33"/>
      <point x="288" y="33" type="curve"/>
      <point x="276" y="33"/>
      <point x="228" y="49"/>
      <point x="225" y="58" type="curve"/>
      <point x="220" y="76"/>
      <point x="217" y="106"/>
      <point x="217" y="149" type="curve"/>
      <point x="217" y="577" type="line" smooth="yes"/>
      <point x="217" y="614"/>
      <point x="221" y="648"/>
      <point x="229" y="678" type="curve"/>
      <point x="228" y="685"/>
      <point x="221" y="694"/>
      <point x="215" y="695" type="curve"/>
      <point x="155" y="677"/>
      <point x="90" y="664"/>
      <point x="21" y="656" type="curve"/>
      <point x="17" y="656"/>
      <point x="15" y="650"/>
      <point x="15" y="639" type="curve"/>
      <point x="15" y="624"/>
      <point x="17" y="617"/>
      <point x="21" y="617" type="curve"/>
      <point x="30" y="617" type="line" smooth="yes"/>
      <point x="42" y="617"/>
      <point x="70" y="613"/>
      <point x="76" y="604" type="curve"/>
      <point x="84" y="592"/>
      <point x="87" y="563"/>
      <point x="87" y="519" type="curve"/>
      <point x="87" y="134" type="line" smooth="yes"/>
      <point x="87" y="103"/>
      <point x="85" y="78"/>
      <point x="80" y="58" type="curve"/>
      <point x="77" y="49"/>
      <point x="30" y="33"/>
      <point x="15" y="33" type="curve"/>
      <point x="12" y="33"/>
      <point x="11" y="28"/>
      <point x="11" y="17" type="curve"/>
      <point x="11" y="6"/>
      <point x="12" y="-1"/>
    </contour>
    <contour>
      <point x="152" y="0" type="move" name="bottom"/>
    </contour>
    <contour>
      <point x="152" y="329" type="move" name="center"/>
    </contour>
    <contour>
      <point x="324" y="329" type="move" name="dotacc"/>
    </contour>
    <contour>
      <point x="152" y="658" type="move" name="top"/>
    </contour>
    <contour>
      <point x="247" y="439" type="move" name="topright"/>
    </contour>
  </outline>
</glyph>
<glyph name="m" format="1">
  <advance width="859"/>
  <unicode hex="006D"/>
  <note>
    m
  </note>
  <outline>
    <contour>
      <point x="18" y="-4" type="curve"/>
      <point x="33" y="-3"/>
      <point x="123" y="4"/>
      <point x="155" y="4" type="curve"/>
      <point x="186" y="4"/>
      <point x="263" y="-3"/>
      <point x="279" y="-4" type="curve"/>
      <point x="280" y="-2"/>
      <point x="281" y="5"/>
      <point x="281" y="11" type="curve"/>
      <point x="281" y="22"/>
      <point x="279" y="33"/>
      <point x="277" y="33" type="curve"/>
      <point x="263" y="35"/>
      <point x="229" y="51"/>
      <point x="227" y="58" type="curve"/>
      <point x="223" y="73"/>
      <point x="220" y="99"/>
      <point x="220" y="149" type="curve"/>
      <point x="220" y="294" type="line" smooth="yes"/>
      <point x="220" y="332"/>
      <point x="256" y="360"/>
      <point x="295" y="360" type="curve"/>
      <point x="336" y="360"/>
      <point x="370" y="333"/>
      <point x="370" y="248" type="curve"/>
      <point x="370" y="134" type="line" smooth="yes"/>
      <point x="370" y="100"/>
      <point x="368" y="76"/>
      <point x="363" y="58" type="curve"/>
      <point x="360" y="50"/>
      <point x="327" y="35"/>
      <point x="311" y="33" type="curve"/>
      <point x="308" y="33"/>
      <point x="307" y="29"/>
      <point x="307" y="17" type="curve"/>
      <point x="307" y="5"/>
      <point x="308" y="-1"/>
      <point x="311" y="-4" type="curve"/>
      <point x="327" y="-3"/>
      <point x="403" y="4"/>
      <point x="435" y="4" type="curve"/>
      <point x="466" y="4"/>
      <point x="544" y="-3"/>
      <point x="559" y="-4" type="curve"/>
      <point x="560" y="-2"/>
      <point x="561" y="5"/>
      <point x="561" y="11" type="curve"/>
      <point x="561" y="22"/>
      <point x="559" y="33"/>
      <point x="557" y="33" type="curve"/>
      <point x="541" y="35"/>
      <point x="509" y="51"/>
      <point x="507" y="58" type="curve"/>
      <point x="503" y="73"/>
      <point x="500" y="99"/>
      <point x="500" y="149" type="curve"/>
      <point x="500" y="248" type="line" smooth="yes"/>
      <point x="500" y="400"/>
      <point x="440" y="446"/>
      <point x="364" y="446" type="curve"/>
      <point x="312" y="446"/>
      <point x="263" y="415"/>
      <point x="219" y="374" type="curve"/>
      <point x="221" y="402"/>
      <point x="225" y="420"/>
      <point x="225" y="433" type="curve"/>
      <point x="225" y="439"/>
      <point x="221" y="443"/>
      <point x="215" y="443" type="curve"/>
      <point x="208" y="443"/>
      <point x="200" y="441"/>
      <point x="193" y="439" type="curve"/>
      <point x="157" y="429"/>
      <point x="74" y="405"/>
      <point x="25" y="405" type="curve"/>
      <point x="22" y="405"/>
      <point x="20" y="391"/>
      <point x="20" y="369" type="curve"/>
      <point x="40" y="366"/>
      <point x="60" y="359"/>
      <point x="72" y="346" type="curve"/>
      <point x="84" y="333"/>
      <point x="90" y="308"/>
      <point x="90" y="271" type="curve"/>
      <point x="90" y="134" type="line" smooth="yes"/>
      <point x="90" y="100"/>
      <point x="88" y="76"/>
      <point x="83" y="58" type="curve"/>
      <point x="80" y="50"/>
      <point x="36" y="33"/>
      <point x="18" y="33" type="curve"/>
      <point x="15" y="33"/>
      <point x="14" y="29"/>
      <point x="14" y="17" type="curve"/>
      <point x="14" y="5"/>
      <point x="15" y="-1"/>
    </contour>
    <contour>
      <point x="591" y="-4" type="curve"/>
      <point x="607" y="-3"/>
      <point x="681" y="4"/>
      <point x="713" y="4" type="curve"/>
      <point x="744" y="4"/>
      <point x="830" y="-3"/>
      <point x="845" y="-4" type="curve"/>
      <point x="846" y="-2"/>
      <point x="847" y="5"/>
      <point x="847" y="11" type="curve"/>
      <point x="847" y="22"/>
      <point x="845" y="33"/>
      <point x="843" y="33" type="curve"/>
      <point x="827" y="33"/>
      <point x="787" y="51"/>
      <point x="785" y="58" type="curve"/>
      <point x="781" y="73"/>
      <point x="778" y="99"/>
      <point x="778" y="149" type="curve"/>
      <point x="778" y="248" type="line" smooth="yes"/>
      <point x="778" y="400"/>
      <point x="718" y="446"/>
      <point x="642" y="446" type="curve"/>
      <point x="580" y="446"/>
      <point x="522" y="409"/>
      <point x="471" y="359" type="curve"/>
      <point x="492" y="294" type="line"/>
      <point x="492" y="330"/>
      <point x="529" y="360"/>
      <point x="570" y="360" type="curve"/>
      <point x="614" y="360"/>
      <point x="648" y="333"/>
      <point x="648" y="248" type="curve"/>
      <point x="648" y="134" type="line" smooth="yes"/>
      <point x="648" y="100"/>
      <point x="646" y="76"/>
      <point x="641" y="58" type="curve"/>
      <point x="638" y="50"/>
      <point x="607" y="33"/>
      <point x="591" y="33" type="curve"/>
      <point x="588" y="33"/>
      <point x="587" y="29"/>
      <point x="587" y="17" type="curve"/>
      <point x="587" y="5"/>
      <point x="588" y="-1"/>
    </contour>
    <contour>
      <point x="431" y="0" type="move" name="bottom"/>
    </contour>
    <contour>
      <point x="431" y="439" type="move" name="top"/>
    </contour>
  </outline>
</glyph>
<glyph name="n" format="1">
  <advance width="592"/>
  <unicode hex="006E"/>
  <note>
    n
  </note>
  <outline>
    <contour>
      <point x="17" y="-4" type="curve"/>
      <point x="32" y="-3"/>
      <point x="122" y="4"/>
      <point x="154" y="4" type="curve"/>
      <point x="185" y="4"/>
      <point x="267" y="-3"/>
      <point x="283" y="-4" type="curve"/>
      <point x="284" y="-2"/>
      <point x="285" y="5"/>
      <point x="285" y="11" type="curve"/>
      <point x="285" y="22"/>
      <point x="283" y="33"/>
      <point x="281" y="33" type="curve"/>
      <point x="267" y="33"/>
      <point x="228" y="51"/>
      <point x="226" y="58" type="curve"/>
      <point x="222" y="73"/>
      <point x="219" y="99"/>
      <point x="219" y="149" type="curve"/>
      <point x="219" y="292" type="line" smooth="yes"/>
      <point x="219" y="332"/>
      <point x="255" y="360"/>
      <point x="298" y="360" type="curve"/>
      <point x="343" y="360"/>
      <point x="377" y="330"/>
      <point x="377" y="243" type="curve"/>
      <point x="377" y="134" type="line" smooth="yes"/>
      <point x="377" y="100"/>
      <point x="375" y="76"/>
      <point x="370" y="58" type="curve"/>
      <point x="367" y="50"/>
      <point x="329" y="33"/>
      <point x="313" y="33" type="curve"/>
      <point x="310" y="33"/>
      <point x="309" y="29"/>
      <point x="309" y="17" type="curve"/>
      <point x="309" y="5"/>
      <point x="310" y="-1"/>
      <point x="313" y="-4" type="curve"/>
      <point x="329" y="-3"/>
      <point x="410" y="4"/>
      <point x="442" y="4" type="curve"/>
      <point x="473" y="4"/>
      <point x="564" y="-3"/>
      <point x="579" y="-4" type="curve"/>
      <point x="580" y="-2"/>
      <point x="581" y="5"/>
      <point x="581" y="11" type="curve"/>
      <point x="581" y="22"/>
      <point x="579" y="33"/>
      <point x="577" y="33" type="curve"/>
      <point x="561" y="33"/>
      <point x="516" y="51"/>
      <point x="514" y="58" type="curve"/>
      <point x="510" y="73"/>
      <point x="507" y="99"/>
      <point x="507" y="149" type="curve"/>
      <point x="507" y="243" type="line" smooth="yes"/>
      <point x="507" y="397"/>
      <point x="447" y="446"/>
      <point x="367" y="446" type="curve"/>
      <point x="311" y="446"/>
      <point x="262" y="415"/>
      <point x="218" y="374" type="curve"/>
      <point x="220" y="402"/>
      <point x="224" y="420"/>
      <point x="224" y="433" type="curve"/>
      <point x="224" y="439"/>
      <point x="220" y="443"/>
      <point x="214" y="443" type="curve"/>
      <point x="207" y="443"/>
      <point x="199" y="441"/>
      <point x="192" y="439" type="curve"/>
      <point x="156" y="429"/>
      <point x="73" y="405"/>
      <point x="24" y="405" type="curve"/>
      <point x="21" y="405"/>
      <point x="19" y="391"/>
      <point x="19" y="369" type="curve"/>
      <point x="39" y="366"/>
      <point x="59" y="359"/>
      <point x="71" y="346" type="curve"/>
      <point x="83" y="333"/>
      <point x="89" y="308"/>
      <point x="89" y="271" type="curve"/>
      <point x="89" y="134" type="line" smooth="yes"/>
      <point x="89" y="100"/>
      <point x="87" y="76"/>
      <point x="82" y="58" type="curve"/>
      <point x="79" y="50"/>
      <point x="35" y="33"/>
      <point x="17" y="33" type="curve"/>
      <point x="14" y="33"/>
      <point x="13" y="29"/>
      <point x="13" y="17" type="curve"/>
      <point x="13" y="5"/>
      <point x="14" y="-1"/>
    </contour>
    <contour>
      <point x="296" y="0" type="move" name="bottom"/>
    </contour>
    <contour>
      <point x="296" y="439" type="move" name="top"/>
    </contour>
  </outline>
</glyph>
<glyph name="o" format="1">
  <advance width="522"/>
  <unicode hex="006F"/>
  <note>
    o
  </note>
  <outline>
    <contour>
      <point x="244" y="391" type="curve"/>
      <point x="301" y="391"/>
      <point x="354" y="303"/>
      <point x="354" y="205" type="curve"/>
      <point x="354" y="104"/>
      <point x="328" y="49"/>
      <point x="278" y="49" type="curve"/>
      <point x="217" y="49"/>
      <point x="168" y="139"/>
      <point x="168" y="240" type="curve"/>
      <point x="168" y="341"/>
      <point x="194" y="391"/>
    </contour>
    <contour>
      <point x="257" y="447" type="curve"/>
      <point x="127" y="447"/>
      <point x="26" y="349"/>
      <point x="26" y="221" type="curve"/>
      <point x="26" y="89"/>
      <point x="125" y="-7"/>
      <point x="263" y="-7" type="curve"/>
      <point x="396" y="-7"/>
      <point x="496" y="89"/>
      <point x="496" y="221" type="curve"/>
      <point x="496" y="345"/>
      <point x="390" y="447"/>
    </contour>
    <contour>
      <point x="262" y="0" type="move" name="bottom"/>
    </contour>
    <contour>
      <point x="262" y="216" type="move" name="center"/>
    </contour>
    <contour>
      <point x="471" y="10" type="move" name="ogonek"/>
    </contour>
    <contour>
      <point x="262" y="439" type="move" name="top"/>
    </contour>
    <contour>
      <point x="503" y="431" type="move" name="topright"/>
    </contour>
  </outline>
</glyph>
<glyph name="p" format="1">
  <advance width="560"/>
  <unicode hex="0070"/>
  <note>
    p
  </note>
  <outline>
    <contour>
      <point x="320" y="447" type="curve"/>
      <point x="291" y="447"/>
      <point x="259" y="439"/>
      <point x="217" y="396" type="curve"/>
      <point x="218" y="417"/>
      <point x="220" y="428"/>
      <point x="220" y="433" type="curve"/>
      <point x="220" y="441"/>
      <point x="217" y="443"/>
      <point x="213" y="443" type="curve"/>
      <point x="205" y="443"/>
      <point x="197" y="441"/>
      <point x="190" y="439" type="curve"/>
      <point x="154" y="429"/>
      <point x="71" y="405"/>
      <point x="22" y="405" type="curve"/>
      <point x="19" y="405"/>
      <point x="17" y="391"/>
      <point x="17" y="369" type="curve"/>
      <point x="37" y="366"/>
      <point x="57" y="359"/>
      <point x="69" y="346" type="curve"/>
      <point x="81" y="333"/>
      <point x="87" y="308"/>
      <point x="87" y="271" type="curve"/>
      <point x="87" y="-80" type="line" smooth="yes"/>
      <point x="87" y="-111"/>
      <point x="85" y="-136"/>
      <point x="80" y="-156" type="curve"/>
      <point x="77" y="-165"/>
      <point x="30" y="-181"/>
      <point x="15" y="-181" type="curve"/>
      <point x="12" y="-181"/>
      <point x="11" y="-187"/>
      <point x="11" y="-198" type="curve"/>
      <point x="11" y="-209"/>
      <point x="12" y="-215"/>
      <point x="15" y="-218" type="curve"/>
      <point x="40" y="-216"/>
      <point x="110" y="-210"/>
      <point x="152" y="-210" type="curve"/>
      <point x="194" y="-210"/>
      <point x="264" y="-216"/>
      <point x="289" y="-218" type="curve"/>
      <point x="290" y="-216"/>
      <point x="291" y="-210"/>
      <point x="291" y="-203" type="curve"/>
      <point x="291" y="-192"/>
      <point x="289" y="-181"/>
      <point x="287" y="-181" type="curve"/>
      <point x="275" y="-181"/>
      <point x="227" y="-165"/>
      <point x="224" y="-156" type="curve"/>
      <point x="218" y="-138"/>
      <point x="217" y="-108"/>
      <point x="217" y="-65" type="curve"/>
      <point x="217" y="5" type="line"/>
      <point x="233" y="-2"/>
      <point x="275" y="-8"/>
      <point x="295" y="-8" type="curve"/>
      <point x="418" y="-8"/>
      <point x="534" y="105"/>
      <point x="534" y="226" type="curve"/>
      <point x="534" y="349"/>
      <point x="439" y="447"/>
    </contour>
    <contour>
      <point x="274" y="375" type="curve"/>
      <point x="338" y="375"/>
      <point x="390" y="298"/>
      <point x="390" y="193" type="curve"/>
      <point x="390" y="92"/>
      <point x="353" y="46"/>
      <point x="292" y="46" type="curve"/>
      <point x="249" y="46"/>
      <point x="217" y="78"/>
      <point x="217" y="119" type="curve"/>
      <point x="217" y="310" type="line" smooth="yes"/>
      <point x="217" y="352"/>
      <point x="244" y="375"/>
    </contour>
    <contour>
      <point x="280" y="0" type="move" name="bottom"/>
    </contour>
    <contour>
      <point x="280" y="439" type="move" name="top"/>
    </contour>
  </outline>
</glyph>
<glyph name="q" format="1">
  <advance width="551"/>
  <unicode hex="0071"/>
  <note>
    q
  </note>
  <outline>
    <contour>
      <point x="542" y="-181" type="curve"/>
      <point x="530" y="-181"/>
      <point x="482" y="-165"/>
      <point x="479" y="-156" type="curve"/>
      <point x="473" y="-138"/>
      <point x="472" y="-108"/>
      <point x="472" y="-65" type="curve"/>
      <point x="472" y="311" type="line" smooth="yes"/>
      <point x="472" y="348"/>
      <point x="480" y="417"/>
      <point x="480" y="424" type="curve"/>
      <point x="474" y="435"/>
      <point x="458" y="447"/>
      <point x="447" y="448" type="curve"/>
      <point x="430" y="440"/>
      <point x="408" y="429"/>
      <point x="390" y="429" type="curve"/>
      <point x="359" y="429"/>
      <point x="329" y="447"/>
      <point x="268" y="447" type="curve"/>
      <point x="138" y="447"/>
      <point x="26" y="333"/>
      <point x="26" y="202" type="curve"/>
      <point x="26" y="90"/>
      <point x="114" y="-6"/>
      <point x="217" y="-6" type="curve"/>
      <point x="253" y="-6"/>
      <point x="297" y="12"/>
      <point x="342" y="45" type="curve"/>
      <point x="342" y="-80" type="line" smooth="yes"/>
      <point x="342" y="-111"/>
      <point x="340" y="-136"/>
      <point x="335" y="-156" type="curve"/>
      <point x="332" y="-165"/>
      <point x="285" y="-181"/>
      <point x="270" y="-181" type="curve"/>
      <point x="267" y="-181"/>
      <point x="266" y="-187"/>
      <point x="266" y="-198" type="curve"/>
      <point x="266" y="-209"/>
      <point x="267" y="-215"/>
      <point x="270" y="-218" type="curve"/>
      <point x="295" y="-216"/>
      <point x="365" y="-210"/>
      <point x="407" y="-210" type="curve"/>
      <point x="449" y="-210"/>
      <point x="519" y="-216"/>
      <point x="544" y="-218" type="curve"/>
      <point x="545" y="-216"/>
      <point x="546" y="-210"/>
      <point x="546" y="-203" type="curve"/>
      <point x="546" y="-192"/>
      <point x="544" y="-181"/>
    </contour>
    <contour>
      <point x="288" y="75" type="curve"/>
      <point x="217" y="75"/>
      <point x="168" y="146"/>
      <point x="168" y="239" type="curve"/>
      <point x="168" y="330"/>
      <point x="211" y="390"/>
      <point x="269" y="390" type="curve"/>
      <point x="309" y="390"/>
      <point x="342" y="365"/>
      <point x="342" y="334" type="curve"/>
      <point x="342" y="131" type="line" smooth="yes"/>
      <point x="342" y="100"/>
      <point x="318" y="75"/>
    </contour>
    <contour>
      <point x="257" y="0" type="move" name="bottom"/>
    </contour>
    <contour>
      <point x="257" y="439" type="move" name="top"/>
    </contour>
  </outline>
</glyph>
<glyph name="r" format="1">
  <advance width="423"/>
  <unicode hex="0072"/>
  <note>
    r
  </note>
  <outline>
    <contour>
      <point x="346" y="447" type="curve"/>
      <point x="297" y="447"/>
      <point x="252" y="418"/>
      <point x="218" y="364" type="curve"/>
      <point x="218" y="390"/>
      <point x="224" y="420"/>
      <point x="224" y="433" type="curve"/>
      <point x="224" y="439"/>
      <point x="220" y="443"/>
      <point x="214" y="443" type="curve"/>
      <point x="209" y="443"/>
      <point x="201" y="442"/>
      <point x="192" y="439" type="curve"/>
      <point x="156" y="429"/>
      <point x="73" y="405"/>
      <point x="24" y="405" type="curve"/>
      <point x="21" y="405"/>
      <point x="19" y="391"/>
      <point x="19" y="369" type="curve"/>
      <point x="40" y="366"/>
      <point x="59" y="358"/>
      <point x="71" y="346" type="curve"/>
      <point x="83" y="333"/>
      <point x="89" y="308"/>
      <point x="89" y="271" type="curve"/>
      <point x="89" y="134" type="line" smooth="yes"/>
      <point x="89" y="103"/>
      <point x="87" y="78"/>
      <point x="82" y="58" type="curve"/>
      <point x="80" y="50"/>
      <point x="35" y="33"/>
      <point x="17" y="33" type="curve"/>
      <point x="14" y="33"/>
      <point x="13" y="28"/>
      <point x="13" y="17" type="curve"/>
      <point x="13" y="6"/>
      <point x="14" y="-1"/>
      <point x="17" y="-4" type="curve"/>
      <point x="58" y="-1"/>
      <point x="116" y="4"/>
      <point x="154" y="4" type="curve"/>
      <point x="192" y="4"/>
      <point x="271" y="-3"/>
      <point x="289" y="-4" type="curve"/>
      <point x="290" y="-2"/>
      <point x="291" y="5"/>
      <point x="291" y="11" type="curve"/>
      <point x="291" y="22"/>
      <point x="289" y="33"/>
      <point x="287" y="33" type="curve"/>
      <point x="270" y="33"/>
      <point x="228" y="50"/>
      <point x="226" y="58" type="curve"/>
      <point x="221" y="76"/>
      <point x="219" y="106"/>
      <point x="219" y="148" type="curve"/>
      <point x="219" y="229" type="line" smooth="yes"/>
      <point x="219" y="306"/>
      <point x="241" y="354"/>
      <point x="277" y="354" type="curve"/>
      <point x="315" y="354"/>
      <point x="331" y="308"/>
      <point x="364" y="308" type="curve"/>
      <point x="400" y="308"/>
      <point x="422" y="336"/>
      <point x="422" y="378" type="curve"/>
      <point x="422" y="422"/>
      <point x="394" y="447"/>
    </contour>
    <contour>
      <point x="154" y="0" type="move" name="bottom"/>
    </contour>
    <contour>
      <point x="219" y="439" type="move" name="top"/>
    </contour>
  </outline>
</glyph>
<glyph name="s" format="1">
  <advance width="393"/>
  <unicode hex="0073"/>
  <note>
    s
  </note>
  <outline>
    <contour>
      <point x="232" y="449" type="curve"/>
      <point x="125" y="449"/>
      <point x="40" y="388"/>
      <point x="40" y="308" type="curve"/>
      <point x="40" y="252"/>
      <point x="71" y="210"/>
      <point x="152" y="174" type="curve"/>
      <point x="235" y="137"/>
      <point x="253" y="114"/>
      <point x="253" y="92" type="curve"/>
      <point x="253" y="62"/>
      <point x="229" y="45"/>
      <point x="195" y="45" type="curve"/>
      <point x="130" y="45"/>
      <point x="94" y="78"/>
      <point x="83" y="144" type="curve"/>
      <point x="82" y="150"/>
      <point x="71" y="153"/>
      <point x="56" y="153" type="curve"/>
      <point x="43" y="153"/>
      <point x="38" y="151"/>
      <point x="35" y="149" type="curve"/>
      <point x="35" y="114"/>
      <point x="39" y="72"/>
      <point x="45" y="16" type="curve"/>
      <point x="80" y="9"/>
      <point x="137" y="-10"/>
      <point x="191" y="-10" type="curve"/>
      <point x="302" y="-10"/>
      <point x="372" y="71"/>
      <point x="372" y="134" type="curve"/>
      <point x="372" y="184"/>
      <point x="331" y="228"/>
      <point x="236" y="275" type="curve"/>
      <point x="177" y="304"/>
      <point x="159" y="322"/>
      <point x="159" y="349" type="curve"/>
      <point x="159" y="377"/>
      <point x="182" y="394"/>
      <point x="216" y="394" type="curve"/>
      <point x="265" y="394"/>
      <point x="292" y="367"/>
      <point x="306" y="304" type="curve"/>
      <point x="307" y="299"/>
      <point x="318" y="296"/>
      <point x="329" y="296" type="curve"/>
      <point x="348" y="296"/>
      <point x="352" y="299"/>
      <point x="352" y="305" type="curve"/>
      <point x="352" y="357"/>
      <point x="349" y="398"/>
      <point x="342" y="429" type="curve"/>
      <point x="304" y="442"/>
      <point x="271" y="449"/>
    </contour>
    <contour>
      <point x="204" y="0" type="move" name="bottom"/>
    </contour>
    <contour>
      <point x="204" y="439" type="move" name="top"/>
    </contour>
  </outline>
</glyph>
<glyph name="t" format="1">
  <advance width="358"/>
  <unicode hex="0074"/>
  <note>
    t
  </note>
  <outline>
    <contour>
      <point x="13" y="370" type="curve"/>
      <point x="78" y="370" type="line"/>
      <point x="78" y="118" type="line" smooth="yes"/>
      <point x="78" y="47"/>
      <point x="125" y="-7"/>
      <point x="215" y="-7" type="curve"/>
      <point x="267" y="-7"/>
      <point x="320" y="23"/>
      <point x="344" y="48" type="curve"/>
      <point x="343" y="56"/>
      <point x="336" y="78"/>
      <point x="329" y="85" type="curve"/>
      <point x="325" y="81"/>
      <point x="293" y="68"/>
      <point x="273" y="68" type="curve"/>
      <point x="230" y="68"/>
      <point x="208" y="107"/>
      <point x="208" y="163" type="curve"/>
      <point x="208" y="370" type="line"/>
      <point x="334" y="370" type="line"/>
      <point x="341" y="383"/>
      <point x="344" y="400"/>
      <point x="344" y="419" type="curve"/>
      <point x="344" y="426"/>
      <point x="341" y="429"/>
      <point x="336" y="429" type="curve"/>
      <point x="208" y="429" type="line"/>
      <point x="208" y="527" type="line"/>
      <point x="203" y="532"/>
      <point x="182" y="544"/>
      <point x="171" y="544" type="curve"/>
      <point x="124" y="497"/>
      <point x="75" y="446"/>
      <point x="7" y="412" type="curve"/>
      <point x="6" y="410"/>
      <point x="5" y="406"/>
      <point x="5" y="401" type="curve"/>
      <point x="5" y="380"/>
      <point x="8" y="370"/>
    </contour>
    <contour>
      <point x="211" y="0" type="move" name="bottom"/>
    </contour>
    <contour>
      <point x="169" y="269" type="move" name="center"/>
    </contour>
    <contour>
      <point x="143" y="510" type="move" name="top"/>
    </contour>
    <contour>
      <point x="238" y="439" type="move" name="topright"/>
    </contour>
  </outline>
</glyph>
<glyph name="u" format="1">
  <advance width="583"/>
  <unicode hex="0075"/>
  <note>
    u
  </note>
  <outline>
    <contour>
      <point x="514" y="93" type="curve"/>
      <point x="502" y="106"/>
      <point x="496" y="131"/>
      <point x="496" y="168" type="curve"/>
      <point x="496" y="281" type="line" smooth="yes"/>
      <point x="496" y="348"/>
      <point x="505" y="408"/>
      <point x="505" y="431" type="curve"/>
      <point x="505" y="437"/>
      <point x="499" y="443"/>
      <point x="493" y="443" type="curve"/>
      <point x="486" y="443"/>
      <point x="478" y="441"/>
      <point x="471" y="439" type="curve"/>
      <point x="435" y="429"/>
      <point x="350" y="405"/>
      <point x="301" y="405" type="curve"/>
      <point x="298" y="405"/>
      <point x="296" y="391"/>
      <point x="296" y="369" type="curve"/>
      <point x="316" y="366"/>
      <point x="336" y="359"/>
      <point x="348" y="346" type="curve"/>
      <point x="360" y="333"/>
      <point x="366" y="308"/>
      <point x="366" y="271" type="curve"/>
      <point x="366" y="147" type="line" smooth="yes"/>
      <point x="366" y="107"/>
      <point x="330" y="79"/>
      <point x="287" y="79" type="curve"/>
      <point x="244" y="79"/>
      <point x="212" y="109"/>
      <point x="212" y="176" type="curve"/>
      <point x="212" y="281" type="line" smooth="yes"/>
      <point x="212" y="348"/>
      <point x="221" y="408"/>
      <point x="221" y="431" type="curve"/>
      <point x="221" y="437"/>
      <point x="215" y="443"/>
      <point x="209" y="443" type="curve"/>
      <point x="202" y="443"/>
      <point x="194" y="441"/>
      <point x="187" y="439" type="curve"/>
      <point x="151" y="429"/>
      <point x="66" y="410"/>
      <point x="17" y="405" type="curve"/>
      <point x="14" y="405"/>
      <point x="12" y="391"/>
      <point x="12" y="369" type="curve"/>
      <point x="32" y="366"/>
      <point x="52" y="359"/>
      <point x="64" y="346" type="curve"/>
      <point x="76" y="333"/>
      <point x="82" y="308"/>
      <point x="82" y="271" type="curve"/>
      <point x="82" y="176" type="line" smooth="yes"/>
      <point x="82" y="42"/>
      <point x="140" y="-7"/>
      <point x="220" y="-7" type="curve"/>
      <point x="274" y="-7"/>
      <point x="323" y="24"/>
      <point x="367" y="65" type="curve"/>
      <point x="365" y="37"/>
      <point x="361" y="19"/>
      <point x="361" y="6" type="curve"/>
      <point x="361" y="0"/>
      <point x="365" y="-4"/>
      <point x="371" y="-4" type="curve"/>
      <point x="378" y="-4"/>
      <point x="386" y="-2"/>
      <point x="393" y="0" type="curve"/>
      <point x="429" y="10"/>
      <point x="512" y="34"/>
      <point x="561" y="34" type="curve"/>
      <point x="564" y="34"/>
      <point x="566" y="48"/>
      <point x="566" y="70" type="curve"/>
      <point x="546" y="73"/>
      <point x="526" y="80"/>
    </contour>
    <contour>
      <point x="289" y="0" type="move" name="bottom"/>
    </contour>
    <contour>
      <point x="546" y="10" type="move" name="ogonek"/>
    </contour>
    <contour>
      <point x="289" y="439" type="move" name="top"/>
    </contour>
    <contour>
      <point x="573" y="431" type="move" name="topright"/>
    </contour>
  </outline>
</glyph>
<glyph name="v" format="1">
  <advance width="519"/>
  <unicode hex="0076"/>
  <note>
    v
  </note>
  <outline>
    <contour>
      <point x="250" y="-11" type="curve"/>
      <point x="260" y="-11"/>
      <point x="270" y="-1"/>
      <point x="280" y="18" type="curve"/>
      <point x="456" y="366" type="line" smooth="yes"/>
      <point x="467" y="386"/>
      <point x="491" y="401"/>
      <point x="535" y="406" type="curve"/>
      <point x="538" y="406"/>
      <point x="539" y="412"/>
      <point x="539" y="426" type="curve"/>
      <point x="539" y="435"/>
      <point x="538" y="440"/>
      <point x="535" y="443" type="curve"/>
      <point x="498" y="440"/>
      <point x="447" y="436"/>
      <point x="420" y="436" type="curve"/>
      <point x="393" y="436"/>
      <point x="345" y="440"/>
      <point x="310" y="443" type="curve"/>
      <point x="308" y="439"/>
      <point x="307" y="432"/>
      <point x="307" y="422" type="curve"/>
      <point x="307" y="412"/>
      <point x="308" y="407"/>
      <point x="310" y="406" type="curve"/>
      <point x="364" y="400"/>
      <point x="378" y="392"/>
      <point x="378" y="375" type="curve"/>
      <point x="378" y="364"/>
      <point x="375" y="352"/>
      <point x="370" y="342" type="curve"/>
      <point x="291" y="176" type="line"/>
      <point x="215" y="358" type="line" smooth="yes"/>
      <point x="212" y="366"/>
      <point x="210" y="374"/>
      <point x="210" y="379" type="curve"/>
      <point x="210" y="393"/>
      <point x="226" y="401"/>
      <point x="275" y="406" type="curve"/>
      <point x="278" y="406"/>
      <point x="279" y="411"/>
      <point x="279" y="423" type="curve"/>
      <point x="279" y="434"/>
      <point x="278" y="440"/>
      <point x="275" y="443" type="curve"/>
      <point x="253" y="441"/>
      <point x="170" y="435"/>
      <point x="140" y="435" type="curve"/>
      <point x="110" y="435"/>
      <point x="36" y="440"/>
      <point x="-2" y="443" type="curve"/>
      <point x="-5" y="440"/>
      <point x="-6" y="434"/>
      <point x="-6" y="426" type="curve"/>
      <point x="-6" y="413"/>
      <point x="-5" y="406"/>
      <point x="-2" y="406" type="curve"/>
      <point x="28" y="406"/>
      <point x="60" y="390"/>
      <point x="68" y="371" type="curve"/>
      <point x="231" y="5" type="line" smooth="yes"/>
      <point x="236" y="-7"/>
      <point x="241" y="-11"/>
    </contour>
    <contour>
      <point x="268" y="0" type="move" name="bottom"/>
    </contour>
    <contour>
      <point x="268" y="439" type="move" name="top"/>
    </contour>
  </outline>
</glyph>
<glyph name="w" format="1">
  <advance width="811"/>
  <unicode hex="0077"/>
  <note>
    w
  </note>
  <outline>
    <contour>
      <point x="251" y="-11" type="curve"/>
      <point x="261" y="-11"/>
      <point x="271" y="-1"/>
      <point x="281" y="18" type="curve"/>
      <point x="457" y="366" type="line"/>
      <point x="392" y="374" type="line"/>
      <point x="292" y="176" type="line"/>
      <point x="216" y="358" type="line" smooth="yes"/>
      <point x="213" y="366"/>
      <point x="211" y="374"/>
      <point x="211" y="379" type="curve"/>
      <point x="211" y="393"/>
      <point x="235" y="406"/>
      <point x="264" y="406" type="curve"/>
      <point x="267" y="406"/>
      <point x="268" y="411"/>
      <point x="268" y="423" type="curve"/>
      <point x="268" y="434"/>
      <point x="267" y="440"/>
      <point x="264" y="443" type="curve"/>
      <point x="242" y="441"/>
      <point x="171" y="435"/>
      <point x="141" y="435" type="curve"/>
      <point x="111" y="435"/>
      <point x="37" y="440"/>
      <point x="-1" y="443" type="curve"/>
      <point x="-4" y="440"/>
      <point x="-5" y="434"/>
      <point x="-5" y="426" type="curve"/>
      <point x="-5" y="413"/>
      <point x="-4" y="406"/>
      <point x="-1" y="406" type="curve"/>
      <point x="29" y="406"/>
      <point x="61" y="390"/>
      <point x="69" y="371" type="curve"/>
      <point x="232" y="5" type="line" smooth="yes"/>
      <point x="237" y="-7"/>
      <point x="242" y="-11"/>
    </contour>
    <contour>
      <point x="541" y="-11" type="curve"/>
      <point x="551" y="-11"/>
      <point x="561" y="-1"/>
      <point x="571" y="18" type="curve"/>
      <point x="747" y="366" type="line" smooth="yes"/>
      <point x="757" y="386"/>
      <point x="782" y="406"/>
      <point x="826" y="406" type="curve"/>
      <point x="829" y="406"/>
      <point x="830" y="412"/>
      <point x="830" y="426" type="curve"/>
      <point x="830" y="435"/>
      <point x="829" y="440"/>
      <point x="826" y="443" type="curve"/>
      <point x="789" y="440"/>
      <point x="738" y="436"/>
      <point x="711" y="436" type="curve"/>
      <point x="684" y="436"/>
      <point x="636" y="440"/>
      <point x="601" y="443" type="curve"/>
      <point x="599" y="439"/>
      <point x="598" y="432"/>
      <point x="598" y="422" type="curve"/>
      <point x="598" y="412"/>
      <point x="599" y="407"/>
      <point x="601" y="406" type="curve"/>
      <point x="655" y="400"/>
      <point x="669" y="392"/>
      <point x="669" y="375" type="curve"/>
      <point x="669" y="364"/>
      <point x="666" y="352"/>
      <point x="661" y="342" type="curve"/>
      <point x="582" y="176" type="line"/>
      <point x="506" y="358" type="line" smooth="yes"/>
      <point x="503" y="366"/>
      <point x="501" y="374"/>
      <point x="501" y="379" type="curve"/>
      <point x="501" y="393"/>
      <point x="517" y="406"/>
      <point x="566" y="406" type="curve"/>
      <point x="569" y="406"/>
      <point x="570" y="411"/>
      <point x="570" y="423" type="curve"/>
      <point x="570" y="434"/>
      <point x="569" y="440"/>
      <point x="566" y="443" type="curve"/>
      <point x="544" y="441"/>
      <point x="461" y="435"/>
      <point x="431" y="435" type="curve"/>
      <point x="401" y="435"/>
      <point x="319" y="440"/>
      <point x="301" y="443" type="curve"/>
      <point x="298" y="440"/>
      <point x="297" y="434"/>
      <point x="297" y="426" type="curve"/>
      <point x="297" y="413"/>
      <point x="298" y="407"/>
      <point x="301" y="406" type="curve"/>
      <point x="329" y="397"/>
      <point x="351" y="390"/>
      <point x="359" y="371" type="curve"/>
      <point x="522" y="5" type="line" smooth="yes"/>
      <point x="527" y="-7"/>
      <point x="532" y="-11"/>
    </contour>
    <contour>
      <point x="406" y="0" type="move" name="bottom"/>
    </contour>
    <contour>
      <point x="406" y="439" type="move" name="top"/>
    </contour>
  </outline>
</glyph>
<glyph name="x" format="1">
  <advance width="545"/>
  <unicode hex="0078"/>
  <note>
    x
  </note>
  <outline>
    <contour>
      <point x="274" y="-4" type="curve"/>
      <point x="308" y="-2"/>
      <point x="385" y="4"/>
      <point x="414" y="4" type="curve"/>
      <point x="442" y="4"/>
      <point x="514" y="-2"/>
      <point x="546" y="-4" type="curve"/>
      <point x="549" y="-1"/>
      <point x="550" y="4"/>
      <point x="550" y="10" type="curve"/>
      <point x="550" y="24"/>
      <point x="549" y="31"/>
      <point x="546" y="31" type="curve"/>
      <point x="515" y="37"/>
      <point x="489" y="56"/>
      <point x="465" y="84" type="curve"/>
      <point x="223" y="370" type="line" smooth="yes"/>
      <point x="220" y="374"/>
      <point x="218" y="378"/>
      <point x="218" y="382" type="curve"/>
      <point x="218" y="395"/>
      <point x="244" y="406"/>
      <point x="263" y="406" type="curve"/>
      <point x="266" y="406"/>
      <point x="268" y="412"/>
      <point x="268" y="425" type="curve"/>
      <point x="268" y="434"/>
      <point x="267" y="440"/>
      <point x="265" y="443" type="curve"/>
      <point x="182" y="438"/>
      <point x="137" y="436"/>
      <point x="130" y="436" type="curve"/>
      <point x="121" y="436"/>
      <point x="84" y="438"/>
      <point x="1" y="443" type="curve"/>
      <point x="-1" y="439"/>
      <point x="-2" y="433"/>
      <point x="-2" y="425" type="curve"/>
      <point x="-2" y="412"/>
      <point x="0" y="405"/>
      <point x="3" y="405" type="curve"/>
      <point x="24" y="405"/>
      <point x="53" y="390"/>
      <point x="71" y="368" type="curve"/>
      <point x="313" y="79" type="line" smooth="yes"/>
      <point x="319" y="72"/>
      <point x="322" y="65"/>
      <point x="322" y="60" type="curve"/>
      <point x="322" y="48"/>
      <point x="297" y="36"/>
      <point x="276" y="33" type="curve"/>
      <point x="273" y="33"/>
      <point x="272" y="25"/>
      <point x="272" y="8" type="curve"/>
      <point x="272" y="7"/>
      <point x="273" y="3"/>
    </contour>
    <contour>
      <point x="0" y="-4" type="curve"/>
      <point x="30" y="-2"/>
      <point x="98" y="4"/>
      <point x="124" y="4" type="curve"/>
      <point x="160" y="4"/>
      <point x="231" y="-3"/>
      <point x="242" y="-4" type="curve"/>
      <point x="245" y="-1"/>
      <point x="246" y="5"/>
      <point x="246" y="15" type="curve"/>
      <point x="246" y="23"/>
      <point x="245" y="31"/>
      <point x="244" y="33" type="curve"/>
      <point x="195" y="41"/>
      <point x="180" y="47"/>
      <point x="180" y="59" type="curve"/>
      <point x="180" y="66"/>
      <point x="183" y="72"/>
      <point x="187" y="78" type="curve"/>
      <point x="253" y="162" type="line"/>
      <point x="218" y="212" type="line"/>
      <point x="87" y="68" type="line" smooth="yes"/>
      <point x="75" y="55"/>
      <point x="35" y="38"/>
      <point x="2" y="33" type="curve"/>
      <point x="-1" y="33"/>
      <point x="-2" y="27"/>
      <point x="-2" y="15" type="curve"/>
      <point x="-2" y="8"/>
      <point x="-1" y="1"/>
    </contour>
    <contour>
      <point x="280" y="280" type="line"/>
      <point x="319" y="238" type="line"/>
      <point x="448" y="378" type="line" smooth="yes"/>
      <point x="460" y="391"/>
      <point x="490" y="401"/>
      <point x="537" y="406" type="curve"/>
      <point x="539" y="406"/>
      <point x="540" y="412"/>
      <point x="540" y="425" type="curve"/>
      <point x="540" y="433"/>
      <point x="539" y="439"/>
      <point x="537" y="443" type="curve"/>
      <point x="466" y="438"/>
      <point x="426" y="436"/>
      <point x="419" y="436" type="curve"/>
      <point x="412" y="436"/>
      <point x="370" y="438"/>
      <point x="292" y="443" type="curve"/>
      <point x="289" y="440"/>
      <point x="288" y="433"/>
      <point x="288" y="424" type="curve"/>
      <point x="288" y="412"/>
      <point x="289" y="406"/>
      <point x="292" y="406" type="curve"/>
      <point x="333" y="406"/>
      <point x="354" y="399"/>
      <point x="354" y="385" type="curve"/>
      <point x="354" y="380"/>
      <point x="349" y="371"/>
      <point x="341" y="360" type="curve"/>
    </contour>
    <contour>
      <point x="273" y="0" type="move" name="bottom"/>
    </contour>
    <contour>
      <point x="273" y="439" type="move" name="top"/>
    </contour>
  </outline>
</glyph>
<glyph name="y" format="1">
  <advance width="519"/>
  <unicode hex="0079"/>
  <note>
    y
  </note>
  <outline>
    <contour>
      <point x="370" y="342" type="curve"/>
      <point x="273" y="138" type="line"/>
      <point x="236" y="73" type="line"/>
      <point x="171" y="-40" type="line"/>
      <point x="148" y="-80"/>
      <point x="121" y="-95"/>
      <point x="37" y="-113" type="curve"/>
      <point x="7" y="-119"/>
      <point x="-10" y="-138"/>
      <point x="-10" y="-166" type="curve"/>
      <point x="-10" y="-196"/>
      <point x="19" y="-218"/>
      <point x="57" y="-218" type="curve"/>
      <point x="128" y="-218"/>
      <point x="187" y="-163"/>
      <point x="251" y="-37" type="curve"/>
      <point x="456" y="366" type="line" smooth="yes"/>
      <point x="467" y="388"/>
      <point x="493" y="401"/>
      <point x="535" y="406" type="curve"/>
      <point x="538" y="406"/>
      <point x="539" y="412"/>
      <point x="539" y="426" type="curve"/>
      <point x="539" y="434"/>
      <point x="538" y="439"/>
      <point x="535" y="443" type="curve"/>
      <point x="504" y="440"/>
      <point x="437" y="436"/>
      <point x="420" y="436" type="curve"/>
      <point x="388" y="436"/>
      <point x="325" y="442"/>
      <point x="309" y="443" type="curve"/>
      <point x="308" y="437"/>
      <point x="307" y="430"/>
      <point x="307" y="424" type="curve"/>
      <point x="307" y="411"/>
      <point x="308" y="406"/>
      <point x="311" y="406" type="curve"/>
      <point x="363" y="400"/>
      <point x="378" y="393"/>
      <point x="378" y="375" type="curve"/>
      <point x="378" y="366"/>
      <point x="375" y="353"/>
    </contour>
    <contour>
      <point x="68" y="371" type="curve"/>
      <point x="231" y="5" type="line"/>
      <point x="300" y="154" type="line"/>
      <point x="215" y="358" type="line" smooth="yes"/>
      <point x="212" y="366"/>
      <point x="210" y="374"/>
      <point x="210" y="379" type="curve"/>
      <point x="210" y="394"/>
      <point x="227" y="401"/>
      <point x="275" y="406" type="curve"/>
      <point x="278" y="406"/>
      <point x="279" y="411"/>
      <point x="279" y="423" type="curve"/>
      <point x="279" y="435"/>
      <point x="278" y="440"/>
      <point x="275" y="443" type="curve"/>
      <point x="241" y="440"/>
      <point x="165" y="435"/>
      <point x="140" y="435" type="curve"/>
      <point x="121" y="435"/>
      <point x="69" y="438"/>
      <point x="-2" y="443" type="curve"/>
      <point x="-5" y="440"/>
      <point x="-6" y="435"/>
      <point x="-6" y="426" type="curve"/>
      <point x="-6" y="412"/>
      <point x="-5" y="406"/>
      <point x="-2" y="406" type="curve"/>
      <point x="28" y="406"/>
      <point x="60" y="390"/>
    </contour>
    <contour>
      <point x="360" y="0" type="move" name="bottom"/>
    </contour>
    <contour>
      <point x="260" y="439" type="move" name="top"/>
    </contour>
  </outline>
</glyph>
<glyph name="z" format="1">
  <advance width="436"/>
  <unicode hex="007A"/>
  <note>
    z
  </note>
  <outline>
    <contour>
      <point x="280" y="54" type="curve"/>
      <point x="166" y="54" type="line"/>
      <point x="171" y="43" type="line"/>
      <point x="411" y="415" type="line"/>
      <point x="411" y="428"/>
      <point x="410" y="436"/>
      <point x="408" y="439" type="curve"/>
      <point x="364" y="434"/>
      <point x="321" y="431"/>
      <point x="279" y="431" type="curve"/>
      <point x="135" y="431" type="line" smooth="yes"/>
      <point x="111" y="431"/>
      <point x="79" y="433"/>
      <point x="40" y="437" type="curve"/>
      <point x="39" y="418"/>
      <point x="36" y="394"/>
      <point x="31" y="358" type="curve"/>
      <point x="26" y="321"/>
      <point x="24" y="302"/>
      <point x="24" y="297" type="curve"/>
      <point x="24" y="294"/>
      <point x="31" y="291"/>
      <point x="40" y="291" type="curve"/>
      <point x="52" y="291"/>
      <point x="59" y="293"/>
      <point x="61" y="297" type="curve"/>
      <point x="75" y="355"/>
      <point x="96" y="377"/>
      <point x="140" y="377" type="curve"/>
      <point x="277" y="377" type="line"/>
      <point x="261" y="406" type="line"/>
      <point x="26" y="27" type="line"/>
      <point x="25" y="26"/>
      <point x="25" y="25"/>
      <point x="25" y="22" type="curve"/>
      <point x="25" y="15"/>
      <point x="28" y="8"/>
      <point x="35" y="0" type="curve"/>
      <point x="300" y="0" type="line" smooth="yes"/>
      <point x="325" y="0"/>
      <point x="350" y="-1"/>
      <point x="399" y="-4" type="curve"/>
      <point x="416" y="143" type="line"/>
      <point x="413" y="146"/>
      <point x="403" y="149"/>
      <point x="394" y="149" type="curve"/>
      <point x="384" y="149"/>
      <point x="380" y="147"/>
      <point x="378" y="140" type="curve"/>
      <point x="358" y="77"/>
      <point x="331" y="54"/>
    </contour>
    <contour>
      <point x="221" y="0" type="move" name="bottom"/>
    </contour>
    <contour>
      <point x="221" y="216" type="move" name="center"/>
    </contour>
    <contour>
      <point x="221" y="439" type="move" name="top"/>
    </contour>
  </outline>
</glyph>
<glyph name="braceleft" format="1">
  <advance width="328"/>
  <unicode hex="007B"/>
  <note>
    braceleft
  </note>
  <outline>
    <contour>
      <point x="196" y="8" type="curve"/>
      <point x="196" y="79"/>
      <point x="233" y="136"/>
      <point x="233" y="197" type="curve"/>
      <point x="233" y="258"/>
      <point x="187" y="303"/>
      <point x="107" y="309" type="curve"/>
      <point x="187" y="315"/>
      <point x="233" y="360"/>
      <point x="233" y="421" type="curve"/>
      <point x="233" y="482"/>
      <point x="196" y="539"/>
      <point x="196" y="610" type="curve"/>
      <point x="196" y="661"/>
      <point x="215" y="704"/>
      <point x="291" y="707" type="curve"/>
      <point x="294" y="711"/>
      <point x="295" y="720"/>
      <point x="295" y="728" type="curve"/>
      <point x="295" y="736"/>
      <point x="294" y="743"/>
      <point x="292" y="746" type="curve"/>
      <point x="167" y="743"/>
      <point x="82" y="683"/>
      <point x="82" y="583" type="curve"/>
      <point x="82" y="514"/>
      <point x="126" y="441"/>
      <point x="126" y="399" type="curve"/>
      <point x="126" y="349"/>
      <point x="85" y="334"/>
      <point x="25" y="329" type="curve"/>
      <point x="23" y="323"/>
      <point x="22" y="314"/>
      <point x="22" y="309" type="curve"/>
      <point x="22" y="304"/>
      <point x="23" y="295"/>
      <point x="25" y="289" type="curve"/>
      <point x="85" y="284"/>
      <point x="126" y="269"/>
      <point x="126" y="219" type="curve"/>
      <point x="126" y="177"/>
      <point x="82" y="104"/>
      <point x="82" y="35" type="curve"/>
      <point x="82" y="-65"/>
      <point x="167" y="-125"/>
      <point x="292" y="-128" type="curve"/>
      <point x="294" y="-125"/>
      <point x="295" y="-118"/>
      <point x="295" y="-110" type="curve"/>
      <point x="295" y="-102"/>
      <point x="294" y="-93"/>
      <point x="291" y="-89" type="curve"/>
      <point x="215" y="-86"/>
      <point x="196" y="-43"/>
    </contour>
  </outline>
</glyph>
<glyph name="bar" format="1">
  <advance width="301"/>
  <unicode hex="007C"/>
  <note>
    bar
  </note>
  <outline>
    <contour>
      <point x="107" y="-114" type="line"/>
      <point x="194" y="-114" type="line"/>
      <point x="194" y="765" type="line"/>
      <point x="107" y="765" type="line"/>
    </contour>
  </outline>
</glyph>
<glyph name="braceright" format="1">
  <advance width="328"/>
  <unicode hex="007D"/>
  <note>
    braceright
  </note>
  <outline>
    <contour>
      <point x="132" y="8" type="curve"/>
      <point x="132" y="-43"/>
      <point x="113" y="-86"/>
      <point x="37" y="-89" type="curve"/>
      <point x="34" y="-93"/>
      <point x="33" y="-102"/>
      <point x="33" y="-110" type="curve"/>
      <point x="33" y="-118"/>
      <point x="34" y="-125"/>
      <point x="36" y="-128" type="curve"/>
      <point x="161" y="-125"/>
      <point x="246" y="-65"/>
      <point x="246" y="35" type="curve"/>
      <point x="246" y="104"/>
      <point x="202" y="177"/>
      <point x="202" y="219" type="curve"/>
      <point x="202" y="269"/>
      <point x="243" y="284"/>
      <point x="303" y="289" type="curve"/>
      <point x="305" y="295"/>
      <point x="306" y="304"/>
      <point x="306" y="309" type="curve"/>
      <point x="306" y="314"/>
      <point x="305" y="323"/>
      <point x="303" y="329" type="curve"/>
      <point x="243" y="334"/>
      <point x="202" y="349"/>
      <point x="202" y="399" type="curve"/>
      <point x="202" y="441"/>
      <point x="246" y="514"/>
      <point x="246" y="583" type="curve"/>
      <point x="246" y="683"/>
      <point x="161" y="743"/>
      <point x="36" y="746" type="curve"/>
      <point x="34" y="743"/>
      <point x="33" y="736"/>
      <point x="33" y="728" type="curve"/>
      <point x="33" y="720"/>
      <point x="34" y="711"/>
      <point x="37" y="707" type="curve"/>
      <point x="113" y="704"/>
      <point x="132" y="661"/>
      <point x="132" y="610" type="curve"/>
      <point x="132" y="539"/>
      <point x="95" y="482"/>
      <point x="95" y="421" type="curve"/>
      <point x="95" y="360"/>
      <point x="141" y="315"/>
      <point x="221" y="309" type="curve"/>
      <point x="141" y="303"/>
      <point x="95" y="258"/>
      <point x="95" y="197" type="curve"/>
      <point x="95" y="136"/>
      <point x="132" y="79"/>
    </contour>
  </outline>
</glyph>
<glyph name="asciitilde" format="1">
  <advance width="590"/>
  <unicode hex="007E"/>
  <note>
    asciitilde
  </note>
  <outline>
    <contour>
      <point x="50" y="213" type="curve"/>
      <point x="74" y="188" type="line"/>
      <point x="105" y="224"/>
      <point x="137" y="244"/>
      <point x="180" y="244" type="curve"/>
      <point x="256" y="244"/>
      <point x="313" y="181"/>
      <point x="395" y="181" type="curve"/>
      <point x="455" y="181"/>
      <point x="513" y="223"/>
      <point x="540" y="279" type="curve"/>
      <point x="516" y="304" type="line"/>
      <point x="485" y="268"/>
      <point x="453" y="248"/>
      <point x="410" y="248" type="curve"/>
      <point x="334" y="248"/>
      <point x="277" y="311"/>
      <point x="195" y="311" type="curve"/>
      <point x="135" y="311"/>
      <point x="77" y="269"/>
    </contour>
  </outline>
</glyph>
<glyph name="exclamdown" format="1">
  <advance width="206"/>
  <unicode hex="00A1"/>
  <note>
    exclamdown
  </note>
  <outline>
    <contour>
      <point x="102" y="243" type="curve"/>
      <point x="89" y="243"/>
      <point x="82" y="234"/>
      <point x="79" y="213" type="curve"/>
      <point x="67" y="127"/>
      <point x="39" y="-95"/>
      <point x="39" y="-142" type="curve"/>
      <point x="39" y="-183"/>
      <point x="67" y="-209"/>
      <point x="104" y="-209" type="curve"/>
      <point x="137" y="-209"/>
      <point x="167" y="-183"/>
      <point x="167" y="-142" type="curve"/>
      <point x="167" y="-95"/>
      <point x="137" y="127"/>
      <point x="125" y="212" type="curve"/>
      <point x="122" y="234"/>
      <point x="115" y="243"/>
    </contour>
    <contour>
      <point x="105" y="444" type="curve"/>
      <point x="55" y="444"/>
      <point x="30" y="406"/>
      <point x="30" y="368" type="curve"/>
      <point x="30" y="331"/>
      <point x="54" y="294"/>
      <point x="103" y="294" type="curve"/>
      <point x="143" y="294"/>
      <point x="176" y="327"/>
      <point x="176" y="367" type="curve"/>
      <point x="176" y="408"/>
      <point x="145" y="444"/>
    </contour>
  </outline>
</glyph>
<glyph name="sterling" format="1">
  <advance width="507"/>
  <unicode hex="00A3"/>
  <note>
    sterling
  </note>
  <outline>
    <contour>
      <point x="330" y="665" type="curve"/>
      <point x="203" y="665"/>
      <point x="101" y="582"/>
      <point x="101" y="462" type="curve"/>
      <point x="101" y="401"/>
      <point x="143" y="269"/>
      <point x="143" y="178" type="curve"/>
      <point x="143" y="106"/>
      <point x="125" y="76"/>
      <point x="56" y="20" type="curve"/>
      <point x="56" y="12"/>
      <point x="64" y="-4"/>
      <point x="84" y="-8" type="curve"/>
      <point x="108" y="5"/>
      <point x="144" y="26"/>
      <point x="186" y="26" type="curve"/>
      <point x="227" y="26"/>
      <point x="315" y="-8"/>
      <point x="368" y="-8" type="curve"/>
      <point x="426" y="-8"/>
      <point x="491" y="72"/>
      <point x="491" y="132" type="curve"/>
      <point x="488" y="141"/>
      <point x="477" y="149"/>
      <point x="470" y="149" type="curve"/>
      <point x="446" y="109"/>
      <point x="431" y="82"/>
      <point x="388" y="82" type="curve"/>
      <point x="365" y="82"/>
      <point x="290" y="112"/>
      <point x="251" y="112" type="curve"/>
      <point x="230" y="112"/>
      <point x="213" y="109"/>
      <point x="200" y="103" type="curve"/>
      <point x="227" y="142"/>
      <point x="251" y="195"/>
      <point x="251" y="260" type="curve"/>
      <point x="251" y="330"/>
      <point x="210" y="453"/>
      <point x="210" y="507" type="curve"/>
      <point x="210" y="580"/>
      <point x="243" y="616"/>
      <point x="295" y="616" type="curve"/>
      <point x="364" y="616"/>
      <point x="365" y="538"/>
      <point x="415" y="538" type="curve"/>
      <point x="449" y="538"/>
      <point x="464" y="564"/>
      <point x="464" y="595" type="curve"/>
      <point x="464" y="640"/>
      <point x="412" y="665"/>
    </contour>
    <contour>
      <point x="390" y="360" type="line"/>
      <point x="28" y="360" type="line"/>
      <point x="28" y="300" type="line"/>
      <point x="390" y="300" type="line"/>
    </contour>
  </outline>
</glyph>
<glyph name="currency" format="1">
  <advance width="469"/>
  <unicode hex="00A4"/>
  <note>
    currency
  </note>
  <outline>
    <contour>
      <point x="246" y="164" type="curve"/>
      <point x="189" y="164"/>
      <point x="161" y="221"/>
      <point x="161" y="334" type="curve"/>
      <point x="161" y="398"/>
      <point x="179" y="452"/>
      <point x="226" y="452" type="curve"/>
      <point x="284" y="452"/>
      <point x="313" y="394"/>
      <point x="313" y="279" type="curve"/>
      <point x="313" y="218"/>
      <point x="293" y="164"/>
    </contour>
    <contour>
      <point x="402" y="510" type="curve"/>
      <point x="351" y="462" type="line"/>
      <point x="317" y="485"/>
      <point x="279" y="497"/>
      <point x="237" y="497" type="curve"/>
      <point x="198" y="497"/>
      <point x="162" y="487"/>
      <point x="131" y="467" type="curve"/>
      <point x="82" y="520" type="line"/>
      <point x="64" y="515"/>
      <point x="24" y="486"/>
      <point x="34" y="476" type="curve"/>
      <point x="83" y="424" type="line"/>
      <point x="56" y="389"/>
      <point x="42" y="351"/>
      <point x="42" y="308" type="curve"/>
      <point x="42" y="271"/>
      <point x="53" y="236"/>
      <point x="74" y="204" type="curve"/>
      <point x="23" y="156" type="line"/>
      <point x="28" y="138"/>
      <point x="57" y="98"/>
      <point x="67" y="108" type="curve"/>
      <point x="119" y="157" type="line"/>
      <point x="154" y="132"/>
      <point x="193" y="119"/>
      <point x="237" y="119" type="curve"/>
      <point x="275" y="119"/>
      <point x="310" y="129"/>
      <point x="342" y="148" type="curve"/>
      <point x="388" y="98" type="line"/>
      <point x="406" y="103"/>
      <point x="446" y="132"/>
      <point x="436" y="142" type="curve"/>
      <point x="391" y="190" type="line"/>
      <point x="418" y="223"/>
      <point x="432" y="263"/>
      <point x="432" y="308" type="curve"/>
      <point x="432" y="347"/>
      <point x="420" y="383"/>
      <point x="397" y="416" type="curve"/>
      <point x="446" y="462" type="line"/>
      <point x="441" y="480"/>
      <point x="412" y="520"/>
    </contour>
  </outline>
</glyph>
<glyph name="brokenbar" format="1">
  <advance width="301"/>
  <unicode hex="00A6"/>
  <note>
    brokenbar
  </note>
  <outline>
    <contour>
      <point x="194" y="-114" type="line"/>
      <point x="194" y="261" type="line"/>
      <point x="107" y="261" type="line"/>
      <point x="107" y="-114" type="line"/>
    </contour>
    <contour>
      <point x="107" y="765" type="line"/>
      <point x="107" y="390" type="line"/>
      <point x="194" y="390" type="line"/>
      <point x="194" y="765" type="line"/>
    </contour>
  </outline>
</glyph>
<glyph name="section" format="1">
  <advance width="456"/>
  <unicode hex="00A7"/>
  <note>
    section
  </note>
  <outline>
    <contour>
      <point x="198" y="454" type="curve"/>
      <point x="153" y="462" type="line"/>
      <point x="73" y="419"/>
      <point x="41" y="374"/>
      <point x="41" y="314" type="curve"/>
      <point x="41" y="154"/>
      <point x="257" y="179"/>
      <point x="257" y="63" type="curve"/>
      <point x="257" y="39"/>
      <point x="242" y="12"/>
      <point x="211" y="12" type="curve"/>
      <point x="164" y="12"/>
      <point x="175" y="87"/>
      <point x="114" y="87" type="curve"/>
      <point x="87" y="87"/>
      <point x="67" y="69"/>
      <point x="67" y="40" type="curve"/>
      <point x="67" y="-5"/>
      <point x="119" y="-40"/>
      <point x="199" y="-40" type="curve"/>
      <point x="281" y="-40"/>
      <point x="365" y="21"/>
      <point x="365" y="114" type="curve"/>
      <point x="365" y="254"/>
      <point x="135" y="264"/>
      <point x="135" y="355" type="curve"/>
      <point x="135" y="385"/>
      <point x="148" y="411"/>
    </contour>
    <contour>
      <point x="258" y="171" type="curve"/>
      <point x="303" y="163" type="line"/>
      <point x="383" y="206"/>
      <point x="415" y="251"/>
      <point x="415" y="311" type="curve"/>
      <point x="415" y="471"/>
      <point x="199" y="446"/>
      <point x="199" y="562" type="curve"/>
      <point x="199" y="586"/>
      <point x="214" y="613"/>
      <point x="245" y="613" type="curve"/>
      <point x="292" y="613"/>
      <point x="281" y="538"/>
      <point x="342" y="538" type="curve"/>
      <point x="369" y="538"/>
      <point x="389" y="556"/>
      <point x="389" y="585" type="curve"/>
      <point x="389" y="630"/>
      <point x="337" y="665"/>
      <point x="257" y="665" type="curve"/>
      <point x="175" y="665"/>
      <point x="91" y="604"/>
      <point x="91" y="511" type="curve"/>
      <point x="91" y="371"/>
      <point x="321" y="361"/>
      <point x="321" y="270" type="curve"/>
      <point x="321" y="240"/>
      <point x="308" y="214"/>
    </contour>
  </outline>
</glyph>
